%TF.GenerationSoftware,KiCad,Pcbnew,9.0.4*%
%TF.CreationDate,2026-01-23T16:00:14+08:00*%
%TF.ProjectId,TTR9.5eco_VCU,54545239-2e35-4656-936f-5f5643552e6b,v1*%
%TF.SameCoordinates,Original*%
%TF.FileFunction,Paste,Bot*%
%TF.FilePolarity,Positive*%
%FSLAX46Y46*%
G04 Gerber Fmt 4.6, Leading zero omitted, Abs format (unit mm)*
G04 Created by KiCad (PCBNEW 9.0.4) date 2026-01-23 16:00:14*
%MOMM*%
%LPD*%
G01*
G04 APERTURE LIST*
G04 Aperture macros list*
%AMRoundRect*
0 Rectangle with rounded corners*
0 $1 Rounding radius*
0 $2 $3 $4 $5 $6 $7 $8 $9 X,Y pos of 4 corners*
0 Add a 4 corners polygon primitive as box body*
4,1,4,$2,$3,$4,$5,$6,$7,$8,$9,$2,$3,0*
0 Add four circle primitives for the rounded corners*
1,1,$1+$1,$2,$3*
1,1,$1+$1,$4,$5*
1,1,$1+$1,$6,$7*
1,1,$1+$1,$8,$9*
0 Add four rect primitives between the rounded corners*
20,1,$1+$1,$2,$3,$4,$5,0*
20,1,$1+$1,$4,$5,$6,$7,0*
20,1,$1+$1,$6,$7,$8,$9,0*
20,1,$1+$1,$8,$9,$2,$3,0*%
%AMFreePoly0*
4,1,168,3.470869,3.511397,3.812536,3.443435,4.145895,3.342311,4.467749,3.208995,4.774969,3.044783,5.064620,2.851244,5.333915,2.630239,5.580239,2.383915,5.801244,2.114620,5.994783,1.824969,6.158995,1.517749,6.292311,1.195895,6.393435,0.862536,6.461397,0.520869,6.495543,0.174177,6.495543,-0.174177,6.461397,-0.520869,6.393435,-0.862536,6.292311,-1.195895,6.158995,-1.517749,
5.994783,-1.824969,5.801244,-2.114620,5.580239,-2.383915,5.333915,-2.630239,5.064620,-2.851244,4.774969,-3.044783,4.467749,-3.208995,4.145895,-3.342311,3.812536,-3.443435,3.470869,-3.511397,3.124178,-3.545543,2.775822,-3.545543,2.429130,-3.511397,2.087463,-3.443435,1.754104,-3.342311,1.432250,-3.208995,1.125030,-3.044783,0.835379,-2.851244,0.566084,-2.630239,0.319760,-2.383915,
0.098755,-2.114620,-0.094783,-1.824969,-0.258995,-1.517749,-0.392311,-1.195895,-0.493435,-0.862536,-0.561397,-0.520869,-0.595543,-0.174177,-0.595543,-0.077766,-0.596389,-0.069175,-0.596389,0.069175,-0.595543,0.077766,-0.595543,0.144196,0.600000,0.144196,0.600000,-0.144196,0.601283,-0.163775,0.638926,-0.449699,0.642754,-0.468943,0.717395,-0.747507,0.723702,-0.766087,0.834065,-1.032526,
0.842743,-1.050123,0.986938,-1.299877,0.997839,-1.316191,1.173401,-1.544987,1.186338,-1.559739,1.390261,-1.763662,1.405013,-1.776599,1.633809,-1.952161,1.650123,-1.963062,1.899877,-2.107257,1.917474,-2.115935,2.183913,-2.226298,2.202493,-2.232605,2.481057,-2.307246,2.500301,-2.311074,2.786225,-2.348717,2.805804,-2.350000,3.094196,-2.350000,3.113775,-2.348717,3.399699,-2.311074,
3.418943,-2.307246,3.697507,-2.232605,3.716087,-2.226298,3.982526,-2.115935,4.000123,-2.107257,4.249877,-1.963062,4.266191,-1.952161,4.494987,-1.776599,4.509739,-1.763662,4.713662,-1.559739,4.726599,-1.544987,4.902161,-1.316191,4.913062,-1.299877,5.057257,-1.050123,5.065935,-1.032526,5.176298,-0.766087,5.182605,-0.747507,5.257246,-0.468943,5.261074,-0.449699,5.298717,-0.163775,
5.300000,-0.144196,5.300000,0.144196,5.298717,0.163775,5.261074,0.449699,5.257246,0.468943,5.182605,0.747507,5.176298,0.766087,5.065935,1.032526,5.057257,1.050123,4.913062,1.299877,4.902161,1.316191,4.726599,1.544987,4.713662,1.559739,4.509739,1.763662,4.494987,1.776599,4.266191,1.952161,4.249877,1.963062,4.000123,2.107257,3.982526,2.115935,3.716087,2.226298,
3.697507,2.232605,3.418943,2.307246,3.399699,2.311074,3.113775,2.348717,3.094196,2.350000,2.805804,2.350000,2.786225,2.348717,2.500301,2.311074,2.481057,2.307246,2.202493,2.232605,2.183913,2.226298,1.917474,2.115935,1.899877,2.107257,1.650123,1.963062,1.633809,1.952161,1.405013,1.776599,1.390261,1.763662,1.186338,1.559739,1.173401,1.544987,0.997839,1.316191,
0.986938,1.299877,0.842743,1.050123,0.834065,1.032526,0.723702,0.766087,0.717395,0.747507,0.642754,0.468943,0.638926,0.449699,0.601283,0.163775,0.600000,0.144196,-0.595543,0.144196,-0.595543,0.174177,-0.561397,0.520869,-0.493435,0.862536,-0.392311,1.195895,-0.258995,1.517749,-0.094783,1.824969,0.098755,2.114620,0.319760,2.383915,0.566084,2.630239,0.835379,2.851244,
1.125030,3.044783,1.432250,3.208995,1.754104,3.342311,2.087463,3.443435,2.429130,3.511397,2.775822,3.545543,3.124178,3.545543,3.470869,3.511397,3.470869,3.511397,$1*%
G04 Aperture macros list end*
%ADD10C,0.000000*%
%ADD11C,1.200000*%
%ADD12FreePoly0,180.000000*%
%ADD13RoundRect,0.225000X0.250000X-0.225000X0.250000X0.225000X-0.250000X0.225000X-0.250000X-0.225000X0*%
%ADD14RoundRect,0.225000X-0.250000X0.225000X-0.250000X-0.225000X0.250000X-0.225000X0.250000X0.225000X0*%
%ADD15RoundRect,0.218750X0.256250X-0.218750X0.256250X0.218750X-0.256250X0.218750X-0.256250X-0.218750X0*%
G04 APERTURE END LIST*
D10*
%TO.C,H1*%
G36*
X84510000Y-129813001D02*
G01*
X84510000Y-129813001D01*
G75*
G03*
X82663001Y-131660000I500000J-2346999D01*
G01*
X81546000Y-131660000D01*
G75*
G02*
X84510000Y-128696000I3464000J-500000D01*
G01*
X84510000Y-129813001D01*
G37*
G36*
X82663001Y-132660000D02*
G01*
X82663001Y-132660000D01*
G75*
G03*
X84510000Y-134506999I2346999J500000D01*
G01*
X84510000Y-135624000D01*
G75*
G02*
X81546000Y-132660000I500000J3464000D01*
G01*
X82663001Y-132660000D01*
G37*
G36*
X85510000Y-128696000D02*
G01*
X85510000Y-128696000D01*
G75*
G02*
X88474000Y-131660000I-500000J-3464000D01*
G01*
X87356999Y-131660000D01*
G75*
G03*
X85510000Y-129813001I-2346999J-500000D01*
G01*
X85510000Y-128696000D01*
G37*
G36*
X88474000Y-132660000D02*
G01*
X88474000Y-132660000D01*
G75*
G02*
X85510000Y-135624000I-3464000J500000D01*
G01*
X85510000Y-134506999D01*
G75*
G03*
X87356999Y-132660000I-500000J2346999D01*
G01*
X88474000Y-132660000D01*
G37*
%TO.C,H4*%
G36*
X229450000Y-129813001D02*
G01*
X229450000Y-129813001D01*
G75*
G03*
X227603001Y-131660000I500000J-2346999D01*
G01*
X226486000Y-131660000D01*
G75*
G02*
X229450000Y-128696000I3464000J-500000D01*
G01*
X229450000Y-129813001D01*
G37*
G36*
X227603001Y-132660000D02*
G01*
X227603001Y-132660000D01*
G75*
G03*
X229450000Y-134506999I2346999J500000D01*
G01*
X229450000Y-135624000D01*
G75*
G02*
X226486000Y-132660000I500000J3464000D01*
G01*
X227603001Y-132660000D01*
G37*
G36*
X230450000Y-128696000D02*
G01*
X230450000Y-128696000D01*
G75*
G02*
X233414000Y-131660000I-500000J-3464000D01*
G01*
X232296999Y-131660000D01*
G75*
G03*
X230450000Y-129813001I-2346999J-500000D01*
G01*
X230450000Y-128696000D01*
G37*
G36*
X233414000Y-132660000D02*
G01*
X233414000Y-132660000D01*
G75*
G02*
X230450000Y-135624000I-3464000J500000D01*
G01*
X230450000Y-134506999D01*
G75*
G03*
X232296999Y-132660000I-500000J2346999D01*
G01*
X233414000Y-132660000D01*
G37*
%TO.C,H3*%
G36*
X229450000Y-73773001D02*
G01*
X229450000Y-73773001D01*
G75*
G03*
X227603001Y-75620000I500000J-2346999D01*
G01*
X226486000Y-75620000D01*
G75*
G02*
X229450000Y-72656000I3464000J-500000D01*
G01*
X229450000Y-73773001D01*
G37*
G36*
X227603001Y-76620000D02*
G01*
X227603001Y-76620000D01*
G75*
G03*
X229450000Y-78466999I2346999J500000D01*
G01*
X229450000Y-79584000D01*
G75*
G02*
X226486000Y-76620000I500000J3464000D01*
G01*
X227603001Y-76620000D01*
G37*
G36*
X230450000Y-72656000D02*
G01*
X230450000Y-72656000D01*
G75*
G02*
X233414000Y-75620000I-500000J-3464000D01*
G01*
X232296999Y-75620000D01*
G75*
G03*
X230450000Y-73773001I-2346999J-500000D01*
G01*
X230450000Y-72656000D01*
G37*
G36*
X233414000Y-76620000D02*
G01*
X233414000Y-76620000D01*
G75*
G02*
X230450000Y-79584000I-3464000J500000D01*
G01*
X230450000Y-78466999D01*
G75*
G03*
X232296999Y-76620000I-500000J2346999D01*
G01*
X233414000Y-76620000D01*
G37*
%TO.C,H2*%
G36*
X84510000Y-73773001D02*
G01*
X84510000Y-73773001D01*
G75*
G03*
X82663001Y-75620000I500000J-2346999D01*
G01*
X81546000Y-75620000D01*
G75*
G02*
X84510000Y-72656000I3464000J-500000D01*
G01*
X84510000Y-73773001D01*
G37*
G36*
X82663001Y-76620000D02*
G01*
X82663001Y-76620000D01*
G75*
G03*
X84510000Y-78466999I2346999J500000D01*
G01*
X84510000Y-79584000D01*
G75*
G02*
X81546000Y-76620000I500000J3464000D01*
G01*
X82663001Y-76620000D01*
G37*
G36*
X85510000Y-72656000D02*
G01*
X85510000Y-72656000D01*
G75*
G02*
X88474000Y-75620000I-500000J-3464000D01*
G01*
X87356999Y-75620000D01*
G75*
G03*
X85510000Y-73773001I-2346999J-500000D01*
G01*
X85510000Y-72656000D01*
G37*
G36*
X88474000Y-76620000D02*
G01*
X88474000Y-76620000D01*
G75*
G02*
X85510000Y-79584000I-3464000J500000D01*
G01*
X85510000Y-78466999D01*
G75*
G03*
X87356999Y-76620000I-500000J2346999D01*
G01*
X88474000Y-76620000D01*
G37*
%TD*%
D11*
%TO.C,H1*%
X87960000Y-132160000D03*
D12*
X87960000Y-132160000D03*
D11*
X85010000Y-135110000D03*
X85010000Y-129210000D03*
X82060000Y-132160000D03*
%TD*%
D13*
%TO.C,C8*%
X115538000Y-98806000D03*
X115538000Y-97256000D03*
%TD*%
D14*
%TO.C,C9*%
X111982000Y-97256000D03*
X111982000Y-98806000D03*
%TD*%
D11*
%TO.C,H4*%
X232900000Y-132160000D03*
D12*
X232900000Y-132160000D03*
D11*
X229950000Y-135110000D03*
X229950000Y-129210000D03*
X227000000Y-132160000D03*
%TD*%
D13*
%TO.C,C7*%
X117316000Y-98806000D03*
X117316000Y-97256000D03*
%TD*%
D11*
%TO.C,H3*%
X232900000Y-76120000D03*
D12*
X232900000Y-76120000D03*
D11*
X229950000Y-79070000D03*
X229950000Y-73170000D03*
X227000000Y-76120000D03*
%TD*%
%TO.C,H2*%
X87960000Y-76120000D03*
D12*
X87960000Y-76120000D03*
D11*
X85010000Y-79070000D03*
X85010000Y-73170000D03*
X82060000Y-76120000D03*
%TD*%
D15*
%TO.C,L2*%
X113760000Y-98793000D03*
X113760000Y-97218000D03*
%TD*%
M02*
