%TF.GenerationSoftware,KiCad,Pcbnew,9.0.4*%
%TF.CreationDate,2026-01-23T16:00:14+08:00*%
%TF.ProjectId,TTR9.5eco_VCU,54545239-2e35-4656-936f-5f5643552e6b,v1*%
%TF.SameCoordinates,Original*%
%TF.FileFunction,Soldermask,Bot*%
%TF.FilePolarity,Negative*%
%FSLAX46Y46*%
G04 Gerber Fmt 4.6, Leading zero omitted, Abs format (unit mm)*
G04 Created by KiCad (PCBNEW 9.0.4) date 2026-01-23 16:00:14*
%MOMM*%
%LPD*%
G01*
G04 APERTURE LIST*
G04 Aperture macros list*
%AMRoundRect*
0 Rectangle with rounded corners*
0 $1 Rounding radius*
0 $2 $3 $4 $5 $6 $7 $8 $9 X,Y pos of 4 corners*
0 Add a 4 corners polygon primitive as box body*
4,1,4,$2,$3,$4,$5,$6,$7,$8,$9,$2,$3,0*
0 Add four circle primitives for the rounded corners*
1,1,$1+$1,$2,$3*
1,1,$1+$1,$4,$5*
1,1,$1+$1,$6,$7*
1,1,$1+$1,$8,$9*
0 Add four rect primitives between the rounded corners*
20,1,$1+$1,$2,$3,$4,$5,0*
20,1,$1+$1,$4,$5,$6,$7,0*
20,1,$1+$1,$6,$7,$8,$9,0*
20,1,$1+$1,$8,$9,$2,$3,0*%
%AMFreePoly0*
4,1,120,3.492903,3.659953,3.849027,3.589116,4.196492,3.483713,4.531954,3.344760,4.852180,3.173596,5.154087,2.971868,5.434768,2.741519,5.691519,2.484768,5.921868,2.204087,6.123596,1.902180,6.294760,1.581954,6.433713,1.246492,6.539116,0.899027,6.609953,0.542903,6.645543,0.181550,6.645543,-0.181550,6.609953,-0.542903,6.539116,-0.899027,6.433713,-1.246492,6.294760,-1.581954,
6.123596,-1.902180,5.921868,-2.204087,5.691519,-2.484768,5.434768,-2.741519,5.154087,-2.971868,4.852180,-3.173596,4.531954,-3.344760,4.196492,-3.483713,3.849027,-3.589116,3.492903,-3.659953,3.131550,-3.695543,2.768450,-3.695543,2.407097,-3.659953,2.050973,-3.589116,1.703508,-3.483713,1.368046,-3.344760,1.047820,-3.173596,0.745913,-2.971868,0.465232,-2.741519,0.208481,-2.484768,
-0.021868,-2.204087,-0.223596,-1.902180,-0.394760,-1.581954,-0.533713,-1.246492,-0.639116,-0.899027,-0.709953,-0.542903,-0.745543,-0.181550,-0.745543,-0.077766,-0.746389,-0.073513,-0.746389,0.073513,-0.745543,0.077766,-0.745543,0.144196,0.750000,0.144196,0.750000,-0.144196,0.787643,-0.430120,0.862284,-0.708684,0.972647,-0.975123,1.116842,-1.224877,1.292404,-1.453673,1.496327,-1.657596,
1.725123,-1.833158,1.974877,-1.977353,2.241316,-2.087716,2.519880,-2.162357,2.805804,-2.200000,3.094196,-2.200000,3.380120,-2.162357,3.658684,-2.087716,3.925123,-1.977353,4.174877,-1.833158,4.403673,-1.657596,4.607596,-1.453673,4.783158,-1.224877,4.927353,-0.975123,5.037716,-0.708684,5.112357,-0.430120,5.150000,-0.144196,5.150000,0.144196,5.112357,0.430120,5.037716,0.708684,
4.927353,0.975123,4.783158,1.224877,4.607596,1.453673,4.403673,1.657596,4.174877,1.833158,3.925123,1.977353,3.658684,2.087716,3.380120,2.162357,3.094196,2.200000,2.805804,2.200000,2.519880,2.162357,2.241316,2.087716,1.974877,1.977353,1.725123,1.833158,1.496327,1.657596,1.292404,1.453673,1.116842,1.224877,0.972647,0.975123,0.862284,0.708684,0.787643,0.430120,
0.750000,0.144196,-0.745543,0.144196,-0.745543,0.181550,-0.709953,0.542903,-0.639116,0.899027,-0.533713,1.246492,-0.394760,1.581954,-0.223596,1.902180,-0.021868,2.204087,0.208481,2.484768,0.465232,2.741519,0.745913,2.971868,1.047820,3.173596,1.368046,3.344760,1.703508,3.483713,2.050973,3.589116,2.407097,3.659953,2.768450,3.695543,3.131550,3.695543,3.492903,3.659953,
3.492903,3.659953,$1*%
G04 Aperture macros list end*
%ADD10C,0.770000*%
%ADD11C,3.400000*%
%ADD12C,4.400000*%
%ADD13C,1.500000*%
%ADD14FreePoly0,180.000000*%
%ADD15RoundRect,0.225000X0.250000X-0.225000X0.250000X0.225000X-0.250000X0.225000X-0.250000X-0.225000X0*%
%ADD16RoundRect,0.225000X-0.250000X0.225000X-0.250000X-0.225000X0.250000X-0.225000X0.250000X0.225000X0*%
%ADD17RoundRect,0.218750X0.256250X-0.218750X0.256250X0.218750X-0.256250X0.218750X-0.256250X-0.218750X0*%
G04 APERTURE END LIST*
D10*
%TO.C,U2*%
X189799000Y-112171000D03*
X189799000Y-110871000D03*
X189799000Y-109571000D03*
X188499000Y-112171000D03*
X188499000Y-110871000D03*
X188499000Y-109571000D03*
%TD*%
%TO.C,U1*%
X208280000Y-114584000D03*
X208280000Y-113284000D03*
X208280000Y-111984000D03*
X206980000Y-114584000D03*
X206980000Y-113284000D03*
X206980000Y-111984000D03*
%TD*%
D11*
%TO.C,J3*%
X226060000Y-111840000D03*
X226060000Y-116840000D03*
%TD*%
D12*
%TO.C,H1*%
X85010000Y-132160000D03*
D13*
X87960000Y-132160000D03*
D14*
X87960000Y-132160000D03*
D13*
X85010000Y-135110000D03*
X85010000Y-129210000D03*
X82060000Y-132160000D03*
%TD*%
D15*
%TO.C,C8*%
X115538000Y-98806000D03*
X115538000Y-97256000D03*
%TD*%
D16*
%TO.C,C9*%
X111982000Y-97256000D03*
X111982000Y-98806000D03*
%TD*%
D12*
%TO.C,H4*%
X229950000Y-132160000D03*
D13*
X232900000Y-132160000D03*
D14*
X232900000Y-132160000D03*
D13*
X229950000Y-135110000D03*
X229950000Y-129210000D03*
X227000000Y-132160000D03*
%TD*%
D15*
%TO.C,C7*%
X117316000Y-98806000D03*
X117316000Y-97256000D03*
%TD*%
D12*
%TO.C,H3*%
X229950000Y-76120000D03*
D13*
X232900000Y-76120000D03*
D14*
X232900000Y-76120000D03*
D13*
X229950000Y-79070000D03*
X229950000Y-73170000D03*
X227000000Y-76120000D03*
%TD*%
D12*
%TO.C,H2*%
X85010000Y-76120000D03*
D13*
X87960000Y-76120000D03*
D14*
X87960000Y-76120000D03*
D13*
X85010000Y-79070000D03*
X85010000Y-73170000D03*
X82060000Y-76120000D03*
%TD*%
D17*
%TO.C,L2*%
X113760000Y-98793000D03*
X113760000Y-97218000D03*
%TD*%
M02*
