M48
; DRILL file {KiCad 9.0.4} date 2026-01-23T16:00:22+0800
; FORMAT={-:-/ absolute / metric / decimal}
; #@! TF.CreationDate,2026-01-23T16:00:22+08:00
; #@! TF.GenerationSoftware,Kicad,Pcbnew,9.0.4
; #@! TF.FileFunction,Plated,1,4,PTH
FMAT,2
METRIC
; #@! TA.AperFunction,Plated,PTH,ViaDrill
T1C0.300
; #@! TA.AperFunction,Plated,PTH,ComponentDrill
T2C0.330
; #@! TA.AperFunction,Plated,PTH,ViaDrill
T3C0.400
; #@! TA.AperFunction,Plated,PTH,ComponentDrill
T4C2.600
%
G90
G05
T1
X92.666Y-90.096
X95.903Y-112.776
X95.903Y-125.73
X96.083Y-101.6
X97.479Y-91.891
X99.822Y-89.154
X99.822Y-89.916
X99.822Y-90.678
X99.822Y-91.44
X99.822Y-92.202
X99.822Y-92.964
X99.822Y-93.726
X100.584Y-88.9
X100.584Y-93.98
X101.346Y-88.9
X101.346Y-93.98
X102.108Y-88.9
X102.108Y-93.98
X102.616Y-94.488
X102.87Y-88.9
X103.124Y-94.996
X103.583Y-102.362
X103.632Y-88.9
X103.632Y-95.504
X104.336Y-88.9
X104.394Y-95.631
X105.156Y-88.9
X105.156Y-95.631
X105.86Y-88.9
X105.918Y-89.662
X105.918Y-90.424
X105.918Y-91.186
X105.918Y-93.218
X105.918Y-93.98
X105.918Y-95.631
X106.083Y-101.6
X106.426Y-91.694
X106.68Y-95.631
X106.934Y-92.202
X107.442Y-95.631
X108.095Y-112.776
X108.095Y-125.55
X108.178Y-88.92
X108.178Y-89.682
X108.178Y-90.444
X108.178Y-91.206
X108.178Y-91.968
X108.178Y-92.73
X108.204Y-93.472
X108.204Y-95.631
X108.583Y-100.584
X108.94Y-88.92
X108.966Y-93.726
X108.966Y-95.631
X109.702Y-88.92
X109.728Y-93.726
X109.728Y-95.631
X110.464Y-88.92
X110.49Y-93.726
X110.49Y-95.631
X110.776Y-97.269
X111.03Y-98.793
X111.226Y-88.92
X111.252Y-93.726
X111.988Y-88.92
X112.014Y-93.853
X112.75Y-88.92
X112.776Y-93.853
X113.03Y-101.562
X113.03Y-102.362
X113.512Y-88.92
X113.538Y-93.853
X114.274Y-88.92
X114.3Y-93.888
X114.3Y-95.885
X115.036Y-88.92
X115.062Y-93.888
X115.062Y-95.885
X115.798Y-89.174
X115.798Y-89.936
X115.824Y-93.218
X115.824Y-93.888
X115.824Y-95.885
X116.27Y-101.107
X116.586Y-95.885
X117.094Y-91.694
X117.348Y-95.885
X118.11Y-89.154
X118.396Y-97.269
X118.396Y-98.793
X119.126Y-88.9
X119.38Y-104.394
X120.765Y-112.088
X120.945Y-125.296
X121.158Y-76.962
X121.666Y-98.298
X121.92Y-87.884
X122.428Y-92.456
X122.428Y-105.41
X122.448Y-100.584
X123.265Y-120.65
X123.297Y-92.603
X123.339Y-105.877
X123.979Y-85.852
X124.004Y-93.31
X124.968Y-85.852
X124.968Y-95.758
X125.222Y-84.074
X125.73Y-97.79
X125.742Y-105.652
X125.984Y-74.93
X125.984Y-85.852
X126.492Y-91.948
X127.0Y-105.664
X127.038Y-98.37
X127.254Y-74.93
X128.27Y-85.852
X128.524Y-75.184
X128.989Y-92.232
X129.014Y-100.584
X129.316Y-85.822
X129.54Y-105.156
X129.787Y-92.188
X130.285Y-93.74
X131.826Y-106.68
X132.588Y-104.14
X132.842Y-93.397
X133.096Y-86.868
X133.096Y-124.714
X133.858Y-91.694
X136.15Y-111.8
X136.398Y-92.71
X137.033Y-95.897
X137.16Y-103.792
X137.16Y-105.792
X137.922Y-86.868
X137.922Y-88.392
X138.064Y-80.376
X139.043Y-96.625
X139.446Y-94.897
X139.7Y-78.826
X140.362Y-94.27
X143.891Y-78.867
X144.018Y-86.868
X144.78Y-75.946
X144.78Y-83.82
X147.637Y-90.424
X154.163Y-86.629
X154.243Y-78.486
X156.21Y-103.886
X156.464Y-109.728
X156.464Y-111.792
X156.464Y-115.824
X156.464Y-117.856
X156.464Y-119.888
X156.464Y-121.792
X156.464Y-123.792
X156.972Y-124.714
X156.972Y-126.746
X157.734Y-118.872
X157.988Y-124.714
X157.988Y-126.746
X159.004Y-124.714
X159.004Y-126.746
X159.766Y-118.872
X160.02Y-107.442
X160.02Y-108.204
X160.02Y-108.966
X160.02Y-109.728
X160.02Y-110.49
X160.02Y-124.714
X160.02Y-126.746
X161.036Y-124.714
X161.036Y-126.746
X161.29Y-121.158
X162.052Y-126.746
X162.064Y-124.714
X162.56Y-83.78
X162.56Y-99.09
X163.068Y-124.714
X163.068Y-126.746
X164.084Y-124.714
X164.084Y-126.746
X165.1Y-124.714
X165.1Y-126.746
X165.862Y-122.936
X165.862Y-128.636
X166.116Y-124.714
X166.116Y-126.746
X168.302Y-112.93
X168.36Y-120.904
X170.798Y-119.888
X173.918Y-115.388
X174.244Y-107.188
X175.006Y-122.936
X175.006Y-128.636
X175.26Y-83.78
X175.26Y-99.09
X183.007Y-108.839
X185.105Y-129.987
X187.655Y-127.508
X187.96Y-83.78
X187.96Y-99.09
X188.941Y-107.188
X194.371Y-112.903
X196.403Y-113.411
X200.66Y-83.78
X200.914Y-99.09
X201.646Y-111.282
X203.708Y-132.588
X206.236Y-130.683
X207.591Y-109.601
X212.753Y-115.219
X213.36Y-83.78
X213.36Y-99.09
X214.854Y-115.945
X225.806Y-99.09
T2
X188.499Y-109.571
X188.499Y-110.871
X188.499Y-112.171
X189.799Y-109.571
X189.799Y-110.871
X189.799Y-112.171
X206.98Y-111.984
X206.98Y-113.284
X206.98Y-114.584
X208.28Y-111.984
X208.28Y-113.284
X208.28Y-114.584
T3
X181.61Y-106.934
X181.61Y-131.953
X200.225Y-109.502
X200.225Y-134.8
T4
X226.06Y-111.84
X226.06Y-116.84
M30
