%TF.GenerationSoftware,KiCad,Pcbnew,9.0.4*%
%TF.CreationDate,2026-01-23T16:00:14+08:00*%
%TF.ProjectId,TTR9.5eco_VCU,54545239-2e35-4656-936f-5f5643552e6b,v1*%
%TF.SameCoordinates,Original*%
%TF.FileFunction,Copper,L2,Inr*%
%TF.FilePolarity,Positive*%
%FSLAX46Y46*%
G04 Gerber Fmt 4.6, Leading zero omitted, Abs format (unit mm)*
G04 Created by KiCad (PCBNEW 9.0.4) date 2026-01-23 16:00:14*
%MOMM*%
%LPD*%
G01*
G04 APERTURE LIST*
%TA.AperFunction,ComponentPad*%
%ADD10C,0.630000*%
%TD*%
%TA.AperFunction,ComponentPad*%
%ADD11C,3.400000*%
%TD*%
%TA.AperFunction,ViaPad*%
%ADD12C,0.600000*%
%TD*%
%TA.AperFunction,ViaPad*%
%ADD13C,0.800000*%
%TD*%
G04 APERTURE END LIST*
D10*
%TO.N,GND*%
%TO.C,U2*%
X189799000Y-112171000D03*
X189799000Y-110871000D03*
X189799000Y-109571000D03*
X188499000Y-112171000D03*
X188499000Y-110871000D03*
X188499000Y-109571000D03*
%TD*%
%TO.N,GND*%
%TO.C,U1*%
X208280000Y-114584000D03*
X208280000Y-113284000D03*
X208280000Y-111984000D03*
X206980000Y-114584000D03*
X206980000Y-113284000D03*
X206980000Y-111984000D03*
%TD*%
D11*
%TO.N,+48V*%
%TO.C,J3*%
X226060000Y-111840000D03*
%TO.N,GND*%
X226060000Y-116840000D03*
%TD*%
D12*
%TO.N,+3V3A*%
X156464000Y-121792000D03*
%TO.N,GND*%
X157734000Y-118872000D03*
X159766000Y-118872000D03*
X156464000Y-123792000D03*
X133096000Y-124714000D03*
X108966000Y-95631000D03*
X106934000Y-92202000D03*
X162560000Y-83780000D03*
X175260000Y-99090000D03*
X99822000Y-92964000D03*
X118110000Y-89154000D03*
X115062000Y-95885000D03*
X116586000Y-95885000D03*
X156210000Y-103886000D03*
X187960000Y-83780000D03*
X99822000Y-92202000D03*
X107442000Y-95631000D03*
X156972000Y-126746000D03*
X110464000Y-88920000D03*
X115798000Y-89174000D03*
X103124000Y-94996000D03*
X99822000Y-91440000D03*
X174244000Y-107188000D03*
X132588000Y-104140000D03*
X187960000Y-99090000D03*
X157988000Y-124714000D03*
X110490000Y-93726000D03*
X112776000Y-93853000D03*
X108095000Y-112776000D03*
X164084000Y-126746000D03*
X201646000Y-111282000D03*
X108178000Y-89682000D03*
X105918000Y-91186000D03*
X133096000Y-86868000D03*
X159004000Y-126746000D03*
X200914000Y-99090000D03*
X108204000Y-93472000D03*
X165100000Y-124714000D03*
X163068000Y-124714000D03*
X154163144Y-86628856D03*
X115824000Y-93888000D03*
X114300000Y-93888000D03*
X122428000Y-92456000D03*
X187655000Y-127508000D03*
X159004000Y-124714000D03*
X111226000Y-88920000D03*
X165100000Y-126746000D03*
X162560000Y-99090000D03*
X143891000Y-78867000D03*
X109702000Y-88920000D03*
X110490000Y-95631000D03*
X144780000Y-75946000D03*
X102108000Y-93980000D03*
X106680000Y-95631000D03*
X105918000Y-93980000D03*
X147637000Y-90424000D03*
X114274000Y-88920000D03*
X194371000Y-112903000D03*
X105156000Y-95631000D03*
X162063777Y-124714000D03*
X114300000Y-95885000D03*
X213360000Y-83780000D03*
X105860003Y-88900000D03*
X115824000Y-95885000D03*
X115798000Y-89936000D03*
X170798000Y-119888000D03*
X108204000Y-95631000D03*
X125984000Y-74930000D03*
X214854000Y-115945373D03*
X166116000Y-126746000D03*
X105918000Y-95631000D03*
X99822000Y-93726000D03*
X137160000Y-105792000D03*
X154243000Y-78486000D03*
X213360000Y-99090000D03*
X111988000Y-88920000D03*
X121666000Y-98298000D03*
X160020000Y-124714000D03*
X111030000Y-98793000D03*
X163068000Y-126746000D03*
X203708000Y-132588000D03*
X156972000Y-124714000D03*
X111252000Y-93726000D03*
X131826000Y-106680000D03*
X164084000Y-124714000D03*
X115062000Y-93888000D03*
X165862000Y-122936000D03*
X115824000Y-93218000D03*
X115036000Y-88920000D03*
X168360000Y-120904000D03*
X92666000Y-90096000D03*
X113538000Y-93853000D03*
X175006000Y-122936000D03*
X101346000Y-93980000D03*
X108178000Y-91968000D03*
X175006000Y-128636000D03*
X102870000Y-88900000D03*
X100584000Y-93980000D03*
X165862000Y-128636000D03*
X117348000Y-95885000D03*
X200660000Y-83780000D03*
X112750000Y-88920000D03*
X99822000Y-90678000D03*
X137160000Y-103792000D03*
X136150000Y-111800000D03*
X144018000Y-86868000D03*
X139700000Y-78826000D03*
X108178000Y-91206000D03*
X105918000Y-89662000D03*
X212753000Y-115219000D03*
X105918000Y-90424000D03*
X166116000Y-124714000D03*
X173918000Y-115388000D03*
X118396000Y-97269000D03*
X108178000Y-88920000D03*
X206235875Y-130683000D03*
X100584000Y-88900000D03*
X96083051Y-101600000D03*
X136398000Y-92710000D03*
X99822000Y-89916000D03*
X157988000Y-126746000D03*
X99822000Y-89154000D03*
X120945400Y-125296000D03*
X225806000Y-99090000D03*
X144780000Y-83820000D03*
X108966000Y-93726000D03*
X105918000Y-93218000D03*
X188940750Y-107188000D03*
X185105000Y-129987000D03*
X104336003Y-88900000D03*
X120765400Y-112088000D03*
X95903000Y-112776000D03*
X162052000Y-126746000D03*
X109728000Y-93726000D03*
X132842000Y-93397000D03*
X108940000Y-88920000D03*
X112014000Y-93853000D03*
X103632000Y-95504000D03*
X168302000Y-112930000D03*
X196403000Y-113411000D03*
X102108000Y-88900000D03*
X137922000Y-86868000D03*
X102616000Y-94488000D03*
X108178000Y-92730000D03*
X108178000Y-90444000D03*
X101346000Y-88900000D03*
X108095000Y-125550000D03*
X103632000Y-88900000D03*
X175260000Y-83780000D03*
X161036000Y-124714000D03*
X122447660Y-100584000D03*
X106426000Y-91694000D03*
X109728000Y-95631000D03*
X183007000Y-108839000D03*
X113512000Y-88920000D03*
X127254000Y-74930000D03*
X119380000Y-104394000D03*
X105156000Y-88900000D03*
X104394000Y-95631000D03*
X95903000Y-125730000D03*
X129014468Y-100584000D03*
X119126000Y-88900000D03*
X207591500Y-109601000D03*
X161036000Y-126746000D03*
X160020000Y-126746000D03*
%TO.N,Net-(U4-VDDA)*%
X118396000Y-98793000D03*
%TO.N,+3V3*%
X160020000Y-108204000D03*
X160020000Y-110490000D03*
X108583051Y-100584000D03*
X133858000Y-91694000D03*
X160020000Y-109728000D03*
X129540000Y-105156000D03*
X138064000Y-80376000D03*
X160020000Y-108966000D03*
X110776000Y-97269000D03*
X137922000Y-88392000D03*
X160020000Y-107442000D03*
X122428000Y-105410000D03*
X121920000Y-87884000D03*
X117094000Y-91694000D03*
X97479000Y-91891000D03*
X128524000Y-75184000D03*
D13*
%TO.N,+5V*%
X181610000Y-131953000D03*
X181610000Y-106934000D03*
D12*
%TO.N,/MCU/NRST*%
X124968000Y-95758000D03*
X124968000Y-85852000D03*
D13*
%TO.N,+12V*%
X200225500Y-134800500D03*
X200225500Y-109502000D03*
D12*
%TO.N,+3V3A*%
X161290000Y-121158000D03*
%TO.N,/Connectors/USART6.TX*%
X127000000Y-105664000D03*
X127038003Y-98370000D03*
%TO.N,/Connectors/USART6.RX*%
X125742132Y-105651869D03*
X125730000Y-97790000D03*
%TO.N,/Connectors/ROT1_SIG*%
X106083051Y-101600000D03*
X113030000Y-101561997D03*
%TO.N,/Connectors/ROT2_SIG*%
X103583051Y-102362000D03*
X113030000Y-102362000D03*
%TO.N,/Connectors/ACC_SIG*%
X123265400Y-120650000D03*
X116269644Y-101107000D03*
%TO.N,/Connectors/SYS.JTCK*%
X128270000Y-85852000D03*
X129787459Y-92188367D03*
%TO.N,/Connectors/USART3.TX*%
X124004124Y-93310000D03*
X123979292Y-85852000D03*
%TO.N,/Connectors/SYS.JTMS*%
X129315550Y-85822450D03*
X130285469Y-93740306D03*
%TO.N,/Connectors/USART3.RX*%
X123297000Y-92603000D03*
X121158000Y-76962000D03*
%TO.N,/Connectors/SYS.JTDO*%
X126492000Y-91948000D03*
X125984000Y-85852000D03*
%TO.N,/Connectors/SYS.JTDI*%
X125222000Y-84074000D03*
X128988667Y-92232372D03*
%TO.N,/MCU/USART1.RX*%
X156464000Y-119888000D03*
X139043000Y-96625000D03*
%TO.N,/MCU/USART1.RTS*%
X156464000Y-111792000D03*
X140362000Y-94270000D03*
%TO.N,/MCU/USART1.CTS*%
X156464000Y-115824000D03*
X139446000Y-94897000D03*
%TO.N,/MCU/~{DATA_IND}*%
X156464000Y-109728000D03*
X123339185Y-105877185D03*
%TO.N,/MCU/USART1.TX*%
X156464000Y-117856000D03*
X137033000Y-95897000D03*
%TD*%
%TA.AperFunction,Conductor*%
%TO.N,GND*%
G36*
X229952702Y-71374617D02*
G01*
X230358212Y-71392322D01*
X230368947Y-71393262D01*
X230768688Y-71445889D01*
X230779315Y-71447762D01*
X231172958Y-71535031D01*
X231183370Y-71537820D01*
X231567911Y-71659066D01*
X231578046Y-71662755D01*
X231950542Y-71817048D01*
X231960334Y-71821614D01*
X232317965Y-72007785D01*
X232327305Y-72013178D01*
X232474493Y-72106947D01*
X232667336Y-72229802D01*
X232676197Y-72236006D01*
X232996056Y-72481442D01*
X233004343Y-72488396D01*
X233301583Y-72760767D01*
X233309232Y-72768416D01*
X233581603Y-73065656D01*
X233588557Y-73073943D01*
X233833993Y-73393802D01*
X233840197Y-73402663D01*
X233948505Y-73572671D01*
X234007643Y-73665500D01*
X234056813Y-73742680D01*
X234062218Y-73752042D01*
X234174836Y-73968378D01*
X234248382Y-74109659D01*
X234252954Y-74119463D01*
X234407238Y-74491938D01*
X234410937Y-74502101D01*
X234472519Y-74697414D01*
X234532173Y-74886610D01*
X234534973Y-74897060D01*
X234622234Y-75290672D01*
X234624112Y-75301325D01*
X234676735Y-75701032D01*
X234677678Y-75711808D01*
X234695382Y-76117297D01*
X234695500Y-76122706D01*
X234695500Y-132157293D01*
X234695382Y-132162702D01*
X234677678Y-132568191D01*
X234676735Y-132578967D01*
X234624112Y-132978674D01*
X234622234Y-132989327D01*
X234534973Y-133382939D01*
X234532173Y-133393389D01*
X234410938Y-133777896D01*
X234407238Y-133788061D01*
X234252954Y-134160536D01*
X234248382Y-134170340D01*
X234062222Y-134527951D01*
X234056813Y-134537319D01*
X233840197Y-134877336D01*
X233833993Y-134886197D01*
X233588557Y-135206056D01*
X233581603Y-135214343D01*
X233309232Y-135511583D01*
X233301583Y-135519232D01*
X233004343Y-135791603D01*
X232996056Y-135798557D01*
X232676197Y-136043993D01*
X232667336Y-136050197D01*
X232327319Y-136266813D01*
X232317951Y-136272222D01*
X231960340Y-136458382D01*
X231950536Y-136462954D01*
X231578061Y-136617238D01*
X231567896Y-136620938D01*
X231183389Y-136742173D01*
X231172939Y-136744973D01*
X230779327Y-136832234D01*
X230768674Y-136834112D01*
X230368967Y-136886735D01*
X230358191Y-136887678D01*
X229952703Y-136905382D01*
X229947294Y-136905500D01*
X85012706Y-136905500D01*
X85007297Y-136905382D01*
X84601808Y-136887678D01*
X84591032Y-136886735D01*
X84191325Y-136834112D01*
X84180672Y-136832234D01*
X83924740Y-136775495D01*
X83787057Y-136744972D01*
X83776614Y-136742174D01*
X83392101Y-136620937D01*
X83381938Y-136617238D01*
X83009463Y-136462954D01*
X82999659Y-136458382D01*
X82882813Y-136397556D01*
X82642042Y-136272218D01*
X82632686Y-136266817D01*
X82462671Y-136158505D01*
X82292663Y-136050197D01*
X82283802Y-136043993D01*
X81963943Y-135798557D01*
X81955656Y-135791603D01*
X81658416Y-135519232D01*
X81650767Y-135511583D01*
X81378396Y-135214343D01*
X81371442Y-135206056D01*
X81126006Y-134886197D01*
X81119802Y-134877336D01*
X81020487Y-134721443D01*
X199625000Y-134721443D01*
X199625000Y-134879556D01*
X199665923Y-135032283D01*
X199665926Y-135032290D01*
X199744975Y-135169209D01*
X199744979Y-135169214D01*
X199744980Y-135169216D01*
X199856784Y-135281020D01*
X199856786Y-135281021D01*
X199856790Y-135281024D01*
X199993709Y-135360073D01*
X199993716Y-135360077D01*
X200146443Y-135401000D01*
X200146445Y-135401000D01*
X200304555Y-135401000D01*
X200304557Y-135401000D01*
X200457284Y-135360077D01*
X200594216Y-135281020D01*
X200706020Y-135169216D01*
X200785077Y-135032284D01*
X200826000Y-134879557D01*
X200826000Y-134721443D01*
X200785077Y-134568716D01*
X200761542Y-134527951D01*
X200706024Y-134431790D01*
X200706018Y-134431782D01*
X200594217Y-134319981D01*
X200594209Y-134319975D01*
X200457290Y-134240926D01*
X200457286Y-134240924D01*
X200457284Y-134240923D01*
X200304557Y-134200000D01*
X200146443Y-134200000D01*
X199993716Y-134240923D01*
X199993709Y-134240926D01*
X199856790Y-134319975D01*
X199856782Y-134319981D01*
X199744981Y-134431782D01*
X199744975Y-134431790D01*
X199665926Y-134568709D01*
X199665923Y-134568716D01*
X199625000Y-134721443D01*
X81020487Y-134721443D01*
X80903178Y-134537305D01*
X80897785Y-134527965D01*
X80711614Y-134170334D01*
X80707045Y-134160536D01*
X80552755Y-133788046D01*
X80549066Y-133777911D01*
X80427820Y-133393370D01*
X80425031Y-133382958D01*
X80337762Y-132989315D01*
X80335889Y-132978688D01*
X80283262Y-132578947D01*
X80282322Y-132568210D01*
X80264618Y-132162701D01*
X80264500Y-132157293D01*
X80264500Y-132022153D01*
X82555500Y-132022153D01*
X82555500Y-132297846D01*
X82586365Y-132571779D01*
X82586367Y-132571791D01*
X82647712Y-132840562D01*
X82647713Y-132840564D01*
X82738765Y-133100777D01*
X82858378Y-133349156D01*
X82858380Y-133349159D01*
X83005052Y-133582586D01*
X83176938Y-133798124D01*
X83371876Y-133993062D01*
X83587414Y-134164948D01*
X83820841Y-134311620D01*
X84069224Y-134431235D01*
X84329437Y-134522287D01*
X84598208Y-134583633D01*
X84872154Y-134614499D01*
X84872155Y-134614500D01*
X84872158Y-134614500D01*
X85147845Y-134614500D01*
X85147845Y-134614499D01*
X85263554Y-134601462D01*
X85364436Y-134590096D01*
X85393537Y-134586816D01*
X85421792Y-134583633D01*
X85690563Y-134522287D01*
X85950776Y-134431235D01*
X86199159Y-134311620D01*
X86432586Y-134164948D01*
X86648124Y-133993062D01*
X86843062Y-133798124D01*
X87014948Y-133582586D01*
X87161620Y-133349159D01*
X87281235Y-133100776D01*
X87372287Y-132840563D01*
X87433633Y-132571792D01*
X87464500Y-132297842D01*
X87464500Y-132022158D01*
X87447800Y-131873945D01*
X87447800Y-131873943D01*
X181009500Y-131873943D01*
X181009500Y-132032056D01*
X181050423Y-132184783D01*
X181050426Y-132184790D01*
X181129475Y-132321709D01*
X181129479Y-132321714D01*
X181129480Y-132321716D01*
X181241284Y-132433520D01*
X181241286Y-132433521D01*
X181241290Y-132433524D01*
X181378209Y-132512573D01*
X181378216Y-132512577D01*
X181530943Y-132553500D01*
X181530945Y-132553500D01*
X181689055Y-132553500D01*
X181689057Y-132553500D01*
X181841784Y-132512577D01*
X181978716Y-132433520D01*
X182090520Y-132321716D01*
X182169577Y-132184784D01*
X182210500Y-132032057D01*
X182210500Y-132022153D01*
X227495500Y-132022153D01*
X227495500Y-132297846D01*
X227526365Y-132571779D01*
X227526367Y-132571791D01*
X227587712Y-132840562D01*
X227587713Y-132840564D01*
X227678765Y-133100777D01*
X227798378Y-133349156D01*
X227798380Y-133349159D01*
X227945052Y-133582586D01*
X228116938Y-133798124D01*
X228311876Y-133993062D01*
X228527414Y-134164948D01*
X228760841Y-134311620D01*
X229009224Y-134431235D01*
X229269437Y-134522287D01*
X229538208Y-134583633D01*
X229812154Y-134614499D01*
X229812155Y-134614500D01*
X229812158Y-134614500D01*
X230087845Y-134614500D01*
X230087845Y-134614499D01*
X230361792Y-134583633D01*
X230630563Y-134522287D01*
X230890776Y-134431235D01*
X231139159Y-134311620D01*
X231372586Y-134164948D01*
X231588124Y-133993062D01*
X231783062Y-133798124D01*
X231954948Y-133582586D01*
X232101620Y-133349159D01*
X232221235Y-133100776D01*
X232312287Y-132840563D01*
X232373633Y-132571792D01*
X232404500Y-132297842D01*
X232404500Y-132022158D01*
X232373633Y-131748208D01*
X232312287Y-131479437D01*
X232221235Y-131219224D01*
X232101620Y-130970841D01*
X231954948Y-130737414D01*
X231783062Y-130521876D01*
X231588124Y-130326938D01*
X231372586Y-130155052D01*
X231139159Y-130008380D01*
X231139156Y-130008378D01*
X230890777Y-129888765D01*
X230630564Y-129797713D01*
X230630562Y-129797712D01*
X230423137Y-129750368D01*
X230361792Y-129736367D01*
X230361788Y-129736366D01*
X230361779Y-129736365D01*
X230087846Y-129705500D01*
X230087842Y-129705500D01*
X229812158Y-129705500D01*
X229812153Y-129705500D01*
X229538220Y-129736365D01*
X229538208Y-129736367D01*
X229269437Y-129797712D01*
X229269435Y-129797713D01*
X229009222Y-129888765D01*
X228760843Y-130008378D01*
X228527415Y-130155051D01*
X228311876Y-130326937D01*
X228116937Y-130521876D01*
X227945051Y-130737415D01*
X227798378Y-130970843D01*
X227678765Y-131219222D01*
X227587713Y-131479435D01*
X227587712Y-131479437D01*
X227526367Y-131748208D01*
X227526365Y-131748220D01*
X227495500Y-132022153D01*
X182210500Y-132022153D01*
X182210500Y-131873943D01*
X182169577Y-131721216D01*
X182169573Y-131721209D01*
X182090524Y-131584290D01*
X182090518Y-131584282D01*
X181978717Y-131472481D01*
X181978709Y-131472475D01*
X181841790Y-131393426D01*
X181841786Y-131393424D01*
X181841784Y-131393423D01*
X181689057Y-131352500D01*
X181530943Y-131352500D01*
X181378216Y-131393423D01*
X181378209Y-131393426D01*
X181241290Y-131472475D01*
X181241282Y-131472481D01*
X181129481Y-131584282D01*
X181129475Y-131584290D01*
X181050426Y-131721209D01*
X181050423Y-131721216D01*
X181009500Y-131873943D01*
X87447800Y-131873943D01*
X87433634Y-131748220D01*
X87433633Y-131748208D01*
X87372287Y-131479437D01*
X87281235Y-131219224D01*
X87161620Y-130970841D01*
X87014948Y-130737414D01*
X86843062Y-130521876D01*
X86648124Y-130326938D01*
X86432586Y-130155052D01*
X86199159Y-130008380D01*
X86199156Y-130008378D01*
X85950777Y-129888765D01*
X85690564Y-129797713D01*
X85690562Y-129797712D01*
X85483137Y-129750368D01*
X85421792Y-129736367D01*
X85421788Y-129736366D01*
X85421779Y-129736365D01*
X85147846Y-129705500D01*
X85147842Y-129705500D01*
X84872158Y-129705500D01*
X84872153Y-129705500D01*
X84598220Y-129736365D01*
X84598208Y-129736367D01*
X84329437Y-129797712D01*
X84329435Y-129797713D01*
X84069222Y-129888765D01*
X83820843Y-130008378D01*
X83587415Y-130155051D01*
X83371876Y-130326937D01*
X83176937Y-130521876D01*
X83005051Y-130737415D01*
X82858378Y-130970843D01*
X82738765Y-131219222D01*
X82647713Y-131479435D01*
X82647712Y-131479437D01*
X82586367Y-131748208D01*
X82586365Y-131748220D01*
X82555500Y-132022153D01*
X80264500Y-132022153D01*
X80264500Y-121726108D01*
X155963500Y-121726108D01*
X155963500Y-121857891D01*
X155997608Y-121985187D01*
X156030554Y-122042250D01*
X156063500Y-122099314D01*
X156156686Y-122192500D01*
X156270814Y-122258392D01*
X156398108Y-122292500D01*
X156398110Y-122292500D01*
X156529890Y-122292500D01*
X156529892Y-122292500D01*
X156657186Y-122258392D01*
X156771314Y-122192500D01*
X156864500Y-122099314D01*
X156930392Y-121985186D01*
X156964500Y-121857892D01*
X156964500Y-121726108D01*
X156930392Y-121598814D01*
X156864500Y-121484686D01*
X156771314Y-121391500D01*
X156701490Y-121351187D01*
X156657187Y-121325608D01*
X156593539Y-121308554D01*
X156529892Y-121291500D01*
X156398108Y-121291500D01*
X156270812Y-121325608D01*
X156156686Y-121391500D01*
X156156683Y-121391502D01*
X156063502Y-121484683D01*
X156063500Y-121484686D01*
X155997608Y-121598812D01*
X155963500Y-121726108D01*
X80264500Y-121726108D01*
X80264500Y-120584108D01*
X122764900Y-120584108D01*
X122764900Y-120715891D01*
X122799008Y-120843187D01*
X122803336Y-120850683D01*
X122864900Y-120957314D01*
X122958086Y-121050500D01*
X123072214Y-121116392D01*
X123199508Y-121150500D01*
X123199510Y-121150500D01*
X123331290Y-121150500D01*
X123331292Y-121150500D01*
X123458586Y-121116392D01*
X123500647Y-121092108D01*
X160789500Y-121092108D01*
X160789500Y-121223891D01*
X160823608Y-121351187D01*
X160856554Y-121408250D01*
X160889500Y-121465314D01*
X160982686Y-121558500D01*
X161096814Y-121624392D01*
X161224108Y-121658500D01*
X161224110Y-121658500D01*
X161355890Y-121658500D01*
X161355892Y-121658500D01*
X161483186Y-121624392D01*
X161597314Y-121558500D01*
X161690500Y-121465314D01*
X161756392Y-121351186D01*
X161790500Y-121223892D01*
X161790500Y-121092108D01*
X161756392Y-120964814D01*
X161690500Y-120850686D01*
X161597314Y-120757500D01*
X161525247Y-120715892D01*
X161483187Y-120691608D01*
X161419539Y-120674554D01*
X161355892Y-120657500D01*
X161224108Y-120657500D01*
X161096812Y-120691608D01*
X160982686Y-120757500D01*
X160982683Y-120757502D01*
X160889502Y-120850683D01*
X160889500Y-120850686D01*
X160823608Y-120964812D01*
X160789500Y-121092108D01*
X123500647Y-121092108D01*
X123572714Y-121050500D01*
X123665900Y-120957314D01*
X123731792Y-120843186D01*
X123765900Y-120715892D01*
X123765900Y-120584108D01*
X123731792Y-120456814D01*
X123665900Y-120342686D01*
X123572714Y-120249500D01*
X123478865Y-120195316D01*
X123458587Y-120183608D01*
X123394939Y-120166554D01*
X123331292Y-120149500D01*
X123199508Y-120149500D01*
X123072212Y-120183608D01*
X122958086Y-120249500D01*
X122958083Y-120249502D01*
X122864902Y-120342683D01*
X122864900Y-120342686D01*
X122799008Y-120456812D01*
X122764900Y-120584108D01*
X80264500Y-120584108D01*
X80264500Y-119822108D01*
X155963500Y-119822108D01*
X155963500Y-119953891D01*
X155997608Y-120081187D01*
X156030554Y-120138250D01*
X156063500Y-120195314D01*
X156156686Y-120288500D01*
X156270814Y-120354392D01*
X156398108Y-120388500D01*
X156398110Y-120388500D01*
X156529890Y-120388500D01*
X156529892Y-120388500D01*
X156657186Y-120354392D01*
X156771314Y-120288500D01*
X156864500Y-120195314D01*
X156930392Y-120081186D01*
X156964500Y-119953892D01*
X156964500Y-119822108D01*
X156930392Y-119694814D01*
X156864500Y-119580686D01*
X156771314Y-119487500D01*
X156714250Y-119454554D01*
X156657187Y-119421608D01*
X156593539Y-119404554D01*
X156529892Y-119387500D01*
X156398108Y-119387500D01*
X156270812Y-119421608D01*
X156156686Y-119487500D01*
X156156683Y-119487502D01*
X156063502Y-119580683D01*
X156063500Y-119580686D01*
X155997608Y-119694812D01*
X155963500Y-119822108D01*
X80264500Y-119822108D01*
X80264500Y-117790108D01*
X155963500Y-117790108D01*
X155963500Y-117921891D01*
X155997608Y-118049187D01*
X156030554Y-118106250D01*
X156063500Y-118163314D01*
X156156686Y-118256500D01*
X156270814Y-118322392D01*
X156398108Y-118356500D01*
X156398110Y-118356500D01*
X156529890Y-118356500D01*
X156529892Y-118356500D01*
X156657186Y-118322392D01*
X156771314Y-118256500D01*
X156864500Y-118163314D01*
X156930392Y-118049186D01*
X156964500Y-117921892D01*
X156964500Y-117790108D01*
X156930392Y-117662814D01*
X156864500Y-117548686D01*
X156771314Y-117455500D01*
X156714250Y-117422554D01*
X156657187Y-117389608D01*
X156593539Y-117372554D01*
X156529892Y-117355500D01*
X156398108Y-117355500D01*
X156270812Y-117389608D01*
X156156686Y-117455500D01*
X156156683Y-117455502D01*
X156063502Y-117548683D01*
X156063500Y-117548686D01*
X155997608Y-117662812D01*
X155963500Y-117790108D01*
X80264500Y-117790108D01*
X80264500Y-115758108D01*
X155963500Y-115758108D01*
X155963500Y-115889891D01*
X155997608Y-116017187D01*
X156030554Y-116074250D01*
X156063500Y-116131314D01*
X156156686Y-116224500D01*
X156270814Y-116290392D01*
X156398108Y-116324500D01*
X156398110Y-116324500D01*
X156529890Y-116324500D01*
X156529892Y-116324500D01*
X156657186Y-116290392D01*
X156771314Y-116224500D01*
X156864500Y-116131314D01*
X156930392Y-116017186D01*
X156964500Y-115889892D01*
X156964500Y-115758108D01*
X156930392Y-115630814D01*
X156864500Y-115516686D01*
X156771314Y-115423500D01*
X156714250Y-115390554D01*
X156657187Y-115357608D01*
X156593539Y-115340554D01*
X156529892Y-115323500D01*
X156398108Y-115323500D01*
X156270812Y-115357608D01*
X156156686Y-115423500D01*
X156156683Y-115423502D01*
X156063502Y-115516683D01*
X156063500Y-115516686D01*
X155997608Y-115630812D01*
X155963500Y-115758108D01*
X80264500Y-115758108D01*
X80264500Y-114340000D01*
X223769300Y-114340000D01*
X223786054Y-114499406D01*
X223786055Y-114499409D01*
X223835582Y-114651838D01*
X223835585Y-114651845D01*
X223915727Y-114790655D01*
X223953086Y-114832146D01*
X224022972Y-114909764D01*
X224022975Y-114909766D01*
X224022978Y-114909769D01*
X224120232Y-114980428D01*
X224152651Y-115003983D01*
X224208859Y-115029008D01*
X224299077Y-115069175D01*
X224455858Y-115102500D01*
X227664142Y-115102500D01*
X227820923Y-115069175D01*
X227967350Y-115003982D01*
X228097022Y-114909769D01*
X228204273Y-114790655D01*
X228284415Y-114651845D01*
X228333946Y-114499406D01*
X228350700Y-114340000D01*
X228333946Y-114180594D01*
X228284415Y-114028155D01*
X228204273Y-113889345D01*
X228162265Y-113842691D01*
X228097027Y-113770235D01*
X228097024Y-113770233D01*
X228097023Y-113770232D01*
X228097022Y-113770231D01*
X228032186Y-113723124D01*
X227967348Y-113676016D01*
X227854930Y-113625965D01*
X227820923Y-113610825D01*
X227820921Y-113610824D01*
X227664142Y-113577500D01*
X227634623Y-113577500D01*
X227282852Y-113577500D01*
X227215813Y-113557815D01*
X227170058Y-113505011D01*
X227160114Y-113435853D01*
X227189139Y-113372297D01*
X227207366Y-113355124D01*
X227246919Y-113324773D01*
X227315776Y-113271938D01*
X227491938Y-113095776D01*
X227643599Y-112898127D01*
X227768164Y-112682373D01*
X227863502Y-112452207D01*
X227927982Y-112211565D01*
X227960500Y-111964565D01*
X227960500Y-111715435D01*
X227927982Y-111468435D01*
X227863502Y-111227793D01*
X227768164Y-110997627D01*
X227764049Y-110990500D01*
X227643599Y-110781873D01*
X227491939Y-110584225D01*
X227491933Y-110584218D01*
X227315781Y-110408066D01*
X227315774Y-110408060D01*
X227118126Y-110256400D01*
X226902376Y-110131837D01*
X226902361Y-110131830D01*
X226672207Y-110036498D01*
X226431561Y-109972017D01*
X226184575Y-109939501D01*
X226184570Y-109939500D01*
X226184565Y-109939500D01*
X225935435Y-109939500D01*
X225935429Y-109939500D01*
X225935424Y-109939501D01*
X225688438Y-109972017D01*
X225447792Y-110036498D01*
X225217638Y-110131830D01*
X225217623Y-110131837D01*
X225001873Y-110256400D01*
X224804225Y-110408060D01*
X224804218Y-110408066D01*
X224628066Y-110584218D01*
X224628060Y-110584225D01*
X224476400Y-110781873D01*
X224351837Y-110997623D01*
X224351830Y-110997638D01*
X224256498Y-111227792D01*
X224192017Y-111468438D01*
X224159501Y-111715424D01*
X224159500Y-111715441D01*
X224159500Y-111964558D01*
X224159501Y-111964575D01*
X224192017Y-112211561D01*
X224256498Y-112452207D01*
X224351830Y-112682361D01*
X224351837Y-112682376D01*
X224476400Y-112898126D01*
X224628060Y-113095774D01*
X224628066Y-113095781D01*
X224804218Y-113271933D01*
X224804225Y-113271939D01*
X224912634Y-113355124D01*
X224953837Y-113411552D01*
X224957992Y-113481298D01*
X224923780Y-113542218D01*
X224862063Y-113574971D01*
X224837148Y-113577500D01*
X224455858Y-113577500D01*
X224299079Y-113610824D01*
X224152651Y-113676016D01*
X224022975Y-113770233D01*
X224022972Y-113770235D01*
X223915726Y-113889346D01*
X223835585Y-114028154D01*
X223835582Y-114028161D01*
X223786055Y-114180590D01*
X223786054Y-114180594D01*
X223769300Y-114340000D01*
X80264500Y-114340000D01*
X80264500Y-111726108D01*
X155963500Y-111726108D01*
X155963500Y-111857891D01*
X155997608Y-111985187D01*
X156030554Y-112042250D01*
X156063500Y-112099314D01*
X156156686Y-112192500D01*
X156270814Y-112258392D01*
X156398108Y-112292500D01*
X156398110Y-112292500D01*
X156529890Y-112292500D01*
X156529892Y-112292500D01*
X156657186Y-112258392D01*
X156771314Y-112192500D01*
X156864500Y-112099314D01*
X156930392Y-111985186D01*
X156964500Y-111857892D01*
X156964500Y-111726108D01*
X156930392Y-111598814D01*
X156864500Y-111484686D01*
X156771314Y-111391500D01*
X156714250Y-111358554D01*
X156657187Y-111325608D01*
X156593539Y-111308554D01*
X156529892Y-111291500D01*
X156398108Y-111291500D01*
X156270812Y-111325608D01*
X156156686Y-111391500D01*
X156156683Y-111391502D01*
X156063502Y-111484683D01*
X156063500Y-111484686D01*
X155997608Y-111598812D01*
X155963500Y-111726108D01*
X80264500Y-111726108D01*
X80264500Y-109662108D01*
X155963500Y-109662108D01*
X155963500Y-109793891D01*
X155997608Y-109921187D01*
X156008182Y-109939501D01*
X156063500Y-110035314D01*
X156156686Y-110128500D01*
X156270814Y-110194392D01*
X156398108Y-110228500D01*
X156398110Y-110228500D01*
X156529890Y-110228500D01*
X156529892Y-110228500D01*
X156657186Y-110194392D01*
X156771314Y-110128500D01*
X156864500Y-110035314D01*
X156930392Y-109921186D01*
X156964500Y-109793892D01*
X156964500Y-109662108D01*
X156930392Y-109534814D01*
X156864500Y-109420686D01*
X156771314Y-109327500D01*
X156714250Y-109294554D01*
X156657187Y-109261608D01*
X156593539Y-109244554D01*
X156529892Y-109227500D01*
X156398108Y-109227500D01*
X156270812Y-109261608D01*
X156156686Y-109327500D01*
X156156683Y-109327502D01*
X156063502Y-109420683D01*
X156063500Y-109420686D01*
X155997608Y-109534812D01*
X155963500Y-109662108D01*
X80264500Y-109662108D01*
X80264500Y-107376108D01*
X159519500Y-107376108D01*
X159519500Y-107507891D01*
X159553608Y-107635187D01*
X159587959Y-107694684D01*
X159619500Y-107749314D01*
X159619501Y-107749315D01*
X159623564Y-107756352D01*
X159621907Y-107757308D01*
X159643313Y-107812696D01*
X159629268Y-107881139D01*
X159621482Y-107893253D01*
X159553608Y-108010812D01*
X159519500Y-108138108D01*
X159519500Y-108269891D01*
X159553608Y-108397187D01*
X159587959Y-108456684D01*
X159619500Y-108511314D01*
X159619501Y-108511315D01*
X159623564Y-108518352D01*
X159621907Y-108519308D01*
X159643313Y-108574696D01*
X159629268Y-108643139D01*
X159621482Y-108655253D01*
X159553608Y-108772812D01*
X159519500Y-108900108D01*
X159519500Y-109031891D01*
X159553608Y-109159187D01*
X159587959Y-109218684D01*
X159619500Y-109273314D01*
X159619501Y-109273315D01*
X159623564Y-109280352D01*
X159621907Y-109281308D01*
X159643313Y-109336696D01*
X159629268Y-109405139D01*
X159621482Y-109417253D01*
X159553608Y-109534812D01*
X159519500Y-109662108D01*
X159519500Y-109793891D01*
X159553608Y-109921187D01*
X159564182Y-109939501D01*
X159619500Y-110035314D01*
X159619501Y-110035315D01*
X159623564Y-110042352D01*
X159621907Y-110043308D01*
X159643313Y-110098696D01*
X159629268Y-110167139D01*
X159621486Y-110179248D01*
X159619502Y-110182683D01*
X159619500Y-110182686D01*
X159612742Y-110194392D01*
X159553608Y-110296812D01*
X159523800Y-110408060D01*
X159519500Y-110424108D01*
X159519500Y-110555892D01*
X159527092Y-110584225D01*
X159553608Y-110683187D01*
X159586554Y-110740250D01*
X159619500Y-110797314D01*
X159712686Y-110890500D01*
X159826814Y-110956392D01*
X159954108Y-110990500D01*
X159954110Y-110990500D01*
X160085890Y-110990500D01*
X160085892Y-110990500D01*
X160213186Y-110956392D01*
X160327314Y-110890500D01*
X160420500Y-110797314D01*
X160486392Y-110683186D01*
X160520500Y-110555892D01*
X160520500Y-110424108D01*
X160486392Y-110296814D01*
X160420500Y-110182686D01*
X160420498Y-110182684D01*
X160416436Y-110175648D01*
X160418094Y-110174690D01*
X160396687Y-110119321D01*
X160410724Y-110050876D01*
X160418507Y-110038764D01*
X160420497Y-110035316D01*
X160420500Y-110035314D01*
X160486392Y-109921186D01*
X160520500Y-109793892D01*
X160520500Y-109662108D01*
X160486392Y-109534814D01*
X160421803Y-109422943D01*
X199625000Y-109422943D01*
X199625000Y-109581056D01*
X199665923Y-109733783D01*
X199665926Y-109733790D01*
X199744975Y-109870709D01*
X199744979Y-109870714D01*
X199744980Y-109870716D01*
X199856784Y-109982520D01*
X199856786Y-109982521D01*
X199856790Y-109982524D01*
X199948230Y-110035316D01*
X199993716Y-110061577D01*
X200146443Y-110102500D01*
X200146445Y-110102500D01*
X200304555Y-110102500D01*
X200304557Y-110102500D01*
X200457284Y-110061577D01*
X200594216Y-109982520D01*
X200706020Y-109870716D01*
X200785077Y-109733784D01*
X200826000Y-109581057D01*
X200826000Y-109422943D01*
X200785077Y-109270216D01*
X200720975Y-109159187D01*
X200706024Y-109133290D01*
X200706018Y-109133282D01*
X200594217Y-109021481D01*
X200594209Y-109021475D01*
X200457290Y-108942426D01*
X200457286Y-108942424D01*
X200457284Y-108942423D01*
X200304557Y-108901500D01*
X200146443Y-108901500D01*
X199993716Y-108942423D01*
X199993709Y-108942426D01*
X199856790Y-109021475D01*
X199856782Y-109021481D01*
X199744981Y-109133282D01*
X199744975Y-109133290D01*
X199665926Y-109270209D01*
X199665923Y-109270216D01*
X199625000Y-109422943D01*
X160421803Y-109422943D01*
X160420500Y-109420686D01*
X160418698Y-109418884D01*
X160413477Y-109410040D01*
X160406681Y-109383171D01*
X160396687Y-109357321D01*
X160398235Y-109349772D01*
X160396346Y-109342303D01*
X160405156Y-109316025D01*
X160410724Y-109288876D01*
X160418113Y-109277376D01*
X160418556Y-109276058D01*
X160419225Y-109275521D01*
X160420498Y-109273315D01*
X160420500Y-109273314D01*
X160486392Y-109159186D01*
X160520500Y-109031892D01*
X160520500Y-108900108D01*
X160486392Y-108772814D01*
X160420500Y-108658686D01*
X160420498Y-108658684D01*
X160416436Y-108651648D01*
X160418094Y-108650690D01*
X160396687Y-108595321D01*
X160410724Y-108526876D01*
X160418507Y-108514764D01*
X160420497Y-108511316D01*
X160420500Y-108511314D01*
X160486392Y-108397186D01*
X160520500Y-108269892D01*
X160520500Y-108138108D01*
X160486392Y-108010814D01*
X160420500Y-107896686D01*
X160420498Y-107896684D01*
X160416436Y-107889648D01*
X160418094Y-107888690D01*
X160396687Y-107833321D01*
X160410724Y-107764876D01*
X160418507Y-107752764D01*
X160420497Y-107749316D01*
X160420500Y-107749314D01*
X160486392Y-107635186D01*
X160520500Y-107507892D01*
X160520500Y-107376108D01*
X160486392Y-107248814D01*
X160420500Y-107134686D01*
X160327314Y-107041500D01*
X160270250Y-107008554D01*
X160213187Y-106975608D01*
X160201070Y-106972361D01*
X160085892Y-106941500D01*
X159954108Y-106941500D01*
X159826812Y-106975608D01*
X159712686Y-107041500D01*
X159712683Y-107041502D01*
X159619502Y-107134683D01*
X159619500Y-107134686D01*
X159553608Y-107248812D01*
X159519500Y-107376108D01*
X80264500Y-107376108D01*
X80264500Y-106854943D01*
X181009500Y-106854943D01*
X181009500Y-107013057D01*
X181042091Y-107134686D01*
X181050423Y-107165783D01*
X181050426Y-107165790D01*
X181129475Y-107302709D01*
X181129479Y-107302714D01*
X181129480Y-107302716D01*
X181241284Y-107414520D01*
X181241286Y-107414521D01*
X181241290Y-107414524D01*
X181378209Y-107493573D01*
X181378216Y-107493577D01*
X181530943Y-107534500D01*
X181530945Y-107534500D01*
X181689055Y-107534500D01*
X181689057Y-107534500D01*
X181841784Y-107493577D01*
X181978716Y-107414520D01*
X182090520Y-107302716D01*
X182169577Y-107165784D01*
X182210500Y-107013057D01*
X182210500Y-106854943D01*
X182169577Y-106702216D01*
X182169573Y-106702209D01*
X182090524Y-106565290D01*
X182090518Y-106565282D01*
X181978717Y-106453481D01*
X181978709Y-106453475D01*
X181841790Y-106374426D01*
X181841786Y-106374424D01*
X181841784Y-106374423D01*
X181689057Y-106333500D01*
X181530943Y-106333500D01*
X181378216Y-106374423D01*
X181378209Y-106374426D01*
X181241290Y-106453475D01*
X181241282Y-106453481D01*
X181129481Y-106565282D01*
X181129475Y-106565290D01*
X181050426Y-106702209D01*
X181050423Y-106702216D01*
X181009500Y-106854943D01*
X80264500Y-106854943D01*
X80264500Y-105344108D01*
X121927500Y-105344108D01*
X121927500Y-105475892D01*
X121927713Y-105476687D01*
X121961608Y-105603187D01*
X121982777Y-105639852D01*
X122027500Y-105717314D01*
X122120686Y-105810500D01*
X122201550Y-105857187D01*
X122234810Y-105876390D01*
X122234814Y-105876392D01*
X122362108Y-105910500D01*
X122362110Y-105910500D01*
X122493890Y-105910500D01*
X122493892Y-105910500D01*
X122621186Y-105876392D01*
X122654443Y-105857190D01*
X122722342Y-105840716D01*
X122788369Y-105863567D01*
X122831561Y-105918487D01*
X122835984Y-105935387D01*
X122836582Y-105935227D01*
X122838685Y-105943075D01*
X122838685Y-105943077D01*
X122843001Y-105959183D01*
X122872793Y-106070372D01*
X122900442Y-106118260D01*
X122938685Y-106184499D01*
X123031871Y-106277685D01*
X123145999Y-106343577D01*
X123273293Y-106377685D01*
X123273295Y-106377685D01*
X123405075Y-106377685D01*
X123405077Y-106377685D01*
X123532371Y-106343577D01*
X123646499Y-106277685D01*
X123739685Y-106184499D01*
X123805577Y-106070371D01*
X123839685Y-105943077D01*
X123839685Y-105811293D01*
X123805577Y-105683999D01*
X123805575Y-105683995D01*
X123780089Y-105639852D01*
X123780088Y-105639851D01*
X123770008Y-105622392D01*
X123748984Y-105585977D01*
X125241632Y-105585977D01*
X125241632Y-105717761D01*
X125258686Y-105781408D01*
X125275740Y-105845056D01*
X125286428Y-105863567D01*
X125341632Y-105959183D01*
X125434818Y-106052369D01*
X125548946Y-106118261D01*
X125676240Y-106152369D01*
X125676242Y-106152369D01*
X125808022Y-106152369D01*
X125808024Y-106152369D01*
X125935318Y-106118261D01*
X126049446Y-106052369D01*
X126142632Y-105959183D01*
X126208524Y-105845055D01*
X126242632Y-105717761D01*
X126242632Y-105598108D01*
X126499500Y-105598108D01*
X126499500Y-105729891D01*
X126533608Y-105857187D01*
X126564388Y-105910499D01*
X126599500Y-105971314D01*
X126692686Y-106064500D01*
X126806814Y-106130392D01*
X126934108Y-106164500D01*
X126934110Y-106164500D01*
X127065890Y-106164500D01*
X127065892Y-106164500D01*
X127193186Y-106130392D01*
X127307314Y-106064500D01*
X127400500Y-105971314D01*
X127466392Y-105857186D01*
X127500500Y-105729892D01*
X127500500Y-105598108D01*
X127466392Y-105470814D01*
X127400500Y-105356686D01*
X127307314Y-105263500D01*
X127235247Y-105221892D01*
X127193187Y-105197608D01*
X127129539Y-105180554D01*
X127065892Y-105163500D01*
X126934108Y-105163500D01*
X126806812Y-105197608D01*
X126692686Y-105263500D01*
X126692683Y-105263502D01*
X126599502Y-105356683D01*
X126599500Y-105356686D01*
X126533608Y-105470812D01*
X126499500Y-105598108D01*
X126242632Y-105598108D01*
X126242632Y-105585977D01*
X126208524Y-105458683D01*
X126142632Y-105344555D01*
X126049446Y-105251369D01*
X125989592Y-105216812D01*
X125935319Y-105185477D01*
X125853298Y-105163500D01*
X125808024Y-105151369D01*
X125676240Y-105151369D01*
X125548944Y-105185477D01*
X125434818Y-105251369D01*
X125434815Y-105251371D01*
X125341634Y-105344552D01*
X125341632Y-105344555D01*
X125275740Y-105458681D01*
X125241632Y-105585977D01*
X123748984Y-105585977D01*
X123739685Y-105569871D01*
X123646499Y-105476685D01*
X123565630Y-105429995D01*
X123532372Y-105410793D01*
X123468724Y-105393739D01*
X123405077Y-105376685D01*
X123273293Y-105376685D01*
X123145999Y-105410793D01*
X123145998Y-105410793D01*
X123145996Y-105410794D01*
X123145995Y-105410794D01*
X123112739Y-105429995D01*
X123044839Y-105446468D01*
X122978812Y-105423615D01*
X122935621Y-105368694D01*
X122931201Y-105351797D01*
X122930603Y-105351958D01*
X122928500Y-105344108D01*
X122894392Y-105216814D01*
X122828500Y-105102686D01*
X122815922Y-105090108D01*
X129039500Y-105090108D01*
X129039500Y-105221891D01*
X129073608Y-105349187D01*
X129106554Y-105406250D01*
X129139500Y-105463314D01*
X129232686Y-105556500D01*
X129346814Y-105622392D01*
X129474108Y-105656500D01*
X129474110Y-105656500D01*
X129605890Y-105656500D01*
X129605892Y-105656500D01*
X129733186Y-105622392D01*
X129847314Y-105556500D01*
X129940500Y-105463314D01*
X130006392Y-105349186D01*
X130040500Y-105221892D01*
X130040500Y-105090108D01*
X130006392Y-104962814D01*
X129940500Y-104848686D01*
X129847314Y-104755500D01*
X129790250Y-104722554D01*
X129733187Y-104689608D01*
X129669539Y-104672554D01*
X129605892Y-104655500D01*
X129474108Y-104655500D01*
X129346812Y-104689608D01*
X129232686Y-104755500D01*
X129232683Y-104755502D01*
X129139502Y-104848683D01*
X129139500Y-104848686D01*
X129073608Y-104962812D01*
X129039500Y-105090108D01*
X122815922Y-105090108D01*
X122735314Y-105009500D01*
X122654452Y-104962814D01*
X122621187Y-104943608D01*
X122557539Y-104926554D01*
X122493892Y-104909500D01*
X122362108Y-104909500D01*
X122234812Y-104943608D01*
X122120686Y-105009500D01*
X122120683Y-105009502D01*
X122027502Y-105102683D01*
X122027500Y-105102686D01*
X121961608Y-105216812D01*
X121949098Y-105263502D01*
X121927500Y-105344108D01*
X80264500Y-105344108D01*
X80264500Y-102296108D01*
X103082551Y-102296108D01*
X103082551Y-102427891D01*
X103116659Y-102555187D01*
X103149605Y-102612250D01*
X103182551Y-102669314D01*
X103275737Y-102762500D01*
X103389865Y-102828392D01*
X103517159Y-102862500D01*
X103517161Y-102862500D01*
X103648941Y-102862500D01*
X103648943Y-102862500D01*
X103776237Y-102828392D01*
X103890365Y-102762500D01*
X103983551Y-102669314D01*
X104049443Y-102555186D01*
X104083551Y-102427892D01*
X104083551Y-102296108D01*
X104049443Y-102168814D01*
X103983551Y-102054686D01*
X103890365Y-101961500D01*
X103796516Y-101907316D01*
X103776238Y-101895608D01*
X103696747Y-101874309D01*
X103648943Y-101861500D01*
X103517159Y-101861500D01*
X103389863Y-101895608D01*
X103275737Y-101961500D01*
X103275734Y-101961502D01*
X103182553Y-102054683D01*
X103182551Y-102054686D01*
X103116659Y-102168812D01*
X103082551Y-102296108D01*
X80264500Y-102296108D01*
X80264500Y-101534108D01*
X105582551Y-101534108D01*
X105582551Y-101665891D01*
X105616659Y-101793187D01*
X105649605Y-101850250D01*
X105682551Y-101907314D01*
X105775737Y-102000500D01*
X105889865Y-102066392D01*
X106017159Y-102100500D01*
X106017161Y-102100500D01*
X106148941Y-102100500D01*
X106148943Y-102100500D01*
X106276237Y-102066392D01*
X106390365Y-102000500D01*
X106483551Y-101907314D01*
X106549443Y-101793186D01*
X106583551Y-101665892D01*
X106583551Y-101534108D01*
X106573368Y-101496105D01*
X112529500Y-101496105D01*
X112529500Y-101627888D01*
X112563608Y-101755184D01*
X112596554Y-101812247D01*
X112629500Y-101869311D01*
X112629501Y-101869312D01*
X112629502Y-101869313D01*
X112634506Y-101874317D01*
X112667991Y-101935640D01*
X112663007Y-102005332D01*
X112634510Y-102049675D01*
X112629503Y-102054682D01*
X112629501Y-102054684D01*
X112629500Y-102054686D01*
X112622742Y-102066392D01*
X112563608Y-102168813D01*
X112529500Y-102296108D01*
X112529500Y-102427891D01*
X112563608Y-102555187D01*
X112596554Y-102612250D01*
X112629500Y-102669314D01*
X112722686Y-102762500D01*
X112836814Y-102828392D01*
X112964108Y-102862500D01*
X112964110Y-102862500D01*
X113095890Y-102862500D01*
X113095892Y-102862500D01*
X113223186Y-102828392D01*
X113337314Y-102762500D01*
X113430500Y-102669314D01*
X113496392Y-102555186D01*
X113530500Y-102427892D01*
X113530500Y-102296108D01*
X113496392Y-102168814D01*
X113430500Y-102054686D01*
X113425493Y-102049679D01*
X113392008Y-101988356D01*
X113396992Y-101918664D01*
X113425499Y-101874311D01*
X113430500Y-101869311D01*
X113496392Y-101755183D01*
X113530500Y-101627889D01*
X113530500Y-101496105D01*
X113496392Y-101368811D01*
X113430500Y-101254683D01*
X113337314Y-101161497D01*
X113300716Y-101140367D01*
X113300715Y-101140366D01*
X113223188Y-101095606D01*
X113223187Y-101095605D01*
X113223186Y-101095605D01*
X113095892Y-101061497D01*
X112964108Y-101061497D01*
X112836812Y-101095605D01*
X112722686Y-101161497D01*
X112722683Y-101161499D01*
X112629502Y-101254680D01*
X112629500Y-101254683D01*
X112563608Y-101368809D01*
X112529500Y-101496105D01*
X106573368Y-101496105D01*
X106549443Y-101406814D01*
X106483551Y-101292686D01*
X106390365Y-101199500D01*
X106287946Y-101140368D01*
X106276238Y-101133608D01*
X106212590Y-101116554D01*
X106148943Y-101099500D01*
X106017159Y-101099500D01*
X105889863Y-101133608D01*
X105775737Y-101199500D01*
X105775734Y-101199502D01*
X105682555Y-101292682D01*
X105682551Y-101292686D01*
X105616659Y-101406812D01*
X105582551Y-101534108D01*
X80264500Y-101534108D01*
X80264500Y-100518108D01*
X108082551Y-100518108D01*
X108082551Y-100649891D01*
X108116659Y-100777187D01*
X108129649Y-100799686D01*
X108182551Y-100891314D01*
X108275737Y-100984500D01*
X108389865Y-101050392D01*
X108517159Y-101084500D01*
X108517161Y-101084500D01*
X108648941Y-101084500D01*
X108648943Y-101084500D01*
X108776237Y-101050392D01*
X108792317Y-101041108D01*
X115769144Y-101041108D01*
X115769144Y-101172891D01*
X115803252Y-101300187D01*
X115836198Y-101357250D01*
X115869144Y-101414314D01*
X115962330Y-101507500D01*
X116076458Y-101573392D01*
X116203752Y-101607500D01*
X116203754Y-101607500D01*
X116335534Y-101607500D01*
X116335536Y-101607500D01*
X116462830Y-101573392D01*
X116576958Y-101507500D01*
X116670144Y-101414314D01*
X116736036Y-101300186D01*
X116770144Y-101172892D01*
X116770144Y-101041108D01*
X116736036Y-100913814D01*
X116670144Y-100799686D01*
X116576958Y-100706500D01*
X116519894Y-100673554D01*
X116462831Y-100640608D01*
X116399183Y-100623554D01*
X116335536Y-100606500D01*
X116203752Y-100606500D01*
X116076456Y-100640608D01*
X115962330Y-100706500D01*
X115962327Y-100706502D01*
X115869146Y-100799683D01*
X115869144Y-100799686D01*
X115803252Y-100913812D01*
X115769144Y-101041108D01*
X108792317Y-101041108D01*
X108890365Y-100984500D01*
X108983551Y-100891314D01*
X109049443Y-100777186D01*
X109083551Y-100649892D01*
X109083551Y-100518108D01*
X109049443Y-100390814D01*
X108983551Y-100276686D01*
X108890365Y-100183500D01*
X108833301Y-100150554D01*
X108776238Y-100117608D01*
X108712590Y-100100554D01*
X108648943Y-100083500D01*
X108517159Y-100083500D01*
X108389863Y-100117608D01*
X108275737Y-100183500D01*
X108275734Y-100183502D01*
X108182553Y-100276683D01*
X108182551Y-100276686D01*
X108116659Y-100390812D01*
X108082551Y-100518108D01*
X80264500Y-100518108D01*
X80264500Y-98727108D01*
X117895500Y-98727108D01*
X117895500Y-98858892D01*
X117912554Y-98922539D01*
X117929608Y-98986187D01*
X117962554Y-99043250D01*
X117995500Y-99100314D01*
X118088686Y-99193500D01*
X118202814Y-99259392D01*
X118330108Y-99293500D01*
X118330110Y-99293500D01*
X118461890Y-99293500D01*
X118461892Y-99293500D01*
X118589186Y-99259392D01*
X118703314Y-99193500D01*
X118796500Y-99100314D01*
X118862392Y-98986186D01*
X118896500Y-98858892D01*
X118896500Y-98727108D01*
X118862392Y-98599814D01*
X118796500Y-98485686D01*
X118703314Y-98392500D01*
X118646250Y-98359554D01*
X118589187Y-98326608D01*
X118525539Y-98309554D01*
X118505214Y-98304108D01*
X126537503Y-98304108D01*
X126537503Y-98435891D01*
X126571611Y-98563187D01*
X126592757Y-98599812D01*
X126637503Y-98677314D01*
X126730689Y-98770500D01*
X126844817Y-98836392D01*
X126972111Y-98870500D01*
X126972113Y-98870500D01*
X127103893Y-98870500D01*
X127103895Y-98870500D01*
X127231189Y-98836392D01*
X127345317Y-98770500D01*
X127438503Y-98677314D01*
X127504395Y-98563186D01*
X127538503Y-98435892D01*
X127538503Y-98304108D01*
X127504395Y-98176814D01*
X127438503Y-98062686D01*
X127345317Y-97969500D01*
X127288253Y-97936554D01*
X127231190Y-97903608D01*
X127167542Y-97886554D01*
X127103895Y-97869500D01*
X126972111Y-97869500D01*
X126844815Y-97903608D01*
X126730689Y-97969500D01*
X126730686Y-97969502D01*
X126637505Y-98062683D01*
X126637503Y-98062686D01*
X126571611Y-98176812D01*
X126537503Y-98304108D01*
X118505214Y-98304108D01*
X118461892Y-98292500D01*
X118330108Y-98292500D01*
X118202812Y-98326608D01*
X118088686Y-98392500D01*
X118088683Y-98392502D01*
X117995502Y-98485683D01*
X117995500Y-98485686D01*
X117929608Y-98599812D01*
X117895500Y-98727108D01*
X80264500Y-98727108D01*
X80264500Y-97203108D01*
X110275500Y-97203108D01*
X110275500Y-97334891D01*
X110309608Y-97462187D01*
X110342554Y-97519250D01*
X110375500Y-97576314D01*
X110468686Y-97669500D01*
X110582814Y-97735392D01*
X110710108Y-97769500D01*
X110710110Y-97769500D01*
X110841890Y-97769500D01*
X110841892Y-97769500D01*
X110969186Y-97735392D01*
X110988730Y-97724108D01*
X125229500Y-97724108D01*
X125229500Y-97855891D01*
X125263608Y-97983187D01*
X125296554Y-98040250D01*
X125329500Y-98097314D01*
X125422686Y-98190500D01*
X125536814Y-98256392D01*
X125664108Y-98290500D01*
X125664110Y-98290500D01*
X125795890Y-98290500D01*
X125795892Y-98290500D01*
X125923186Y-98256392D01*
X126037314Y-98190500D01*
X126130500Y-98097314D01*
X126196392Y-97983186D01*
X126230500Y-97855892D01*
X126230500Y-97724108D01*
X126196392Y-97596814D01*
X126130500Y-97482686D01*
X126037314Y-97389500D01*
X125980250Y-97356554D01*
X125923187Y-97323608D01*
X125859539Y-97306554D01*
X125795892Y-97289500D01*
X125664108Y-97289500D01*
X125536812Y-97323608D01*
X125422686Y-97389500D01*
X125422683Y-97389502D01*
X125329502Y-97482683D01*
X125329500Y-97482686D01*
X125263608Y-97596812D01*
X125229500Y-97724108D01*
X110988730Y-97724108D01*
X111083314Y-97669500D01*
X111176500Y-97576314D01*
X111242392Y-97462186D01*
X111276500Y-97334892D01*
X111276500Y-97203108D01*
X111242392Y-97075814D01*
X111176500Y-96961686D01*
X111083314Y-96868500D01*
X110996168Y-96818186D01*
X110969187Y-96802608D01*
X110905539Y-96785554D01*
X110841892Y-96768500D01*
X110710108Y-96768500D01*
X110582812Y-96802608D01*
X110468686Y-96868500D01*
X110468683Y-96868502D01*
X110375502Y-96961683D01*
X110375500Y-96961686D01*
X110309608Y-97075812D01*
X110275500Y-97203108D01*
X80264500Y-97203108D01*
X80264500Y-96559108D01*
X138542500Y-96559108D01*
X138542500Y-96690891D01*
X138576608Y-96818187D01*
X138605657Y-96868500D01*
X138642500Y-96932314D01*
X138735686Y-97025500D01*
X138849814Y-97091392D01*
X138977108Y-97125500D01*
X138977110Y-97125500D01*
X139108890Y-97125500D01*
X139108892Y-97125500D01*
X139236186Y-97091392D01*
X139350314Y-97025500D01*
X139443500Y-96932314D01*
X139509392Y-96818186D01*
X139543500Y-96690892D01*
X139543500Y-96559108D01*
X139509392Y-96431814D01*
X139443500Y-96317686D01*
X139350314Y-96224500D01*
X139293250Y-96191554D01*
X139236187Y-96158608D01*
X139172539Y-96141554D01*
X139108892Y-96124500D01*
X138977108Y-96124500D01*
X138849812Y-96158608D01*
X138735686Y-96224500D01*
X138735683Y-96224502D01*
X138642502Y-96317683D01*
X138642500Y-96317686D01*
X138576608Y-96431812D01*
X138542500Y-96559108D01*
X80264500Y-96559108D01*
X80264500Y-95692108D01*
X124467500Y-95692108D01*
X124467500Y-95823891D01*
X124501608Y-95951187D01*
X124508366Y-95962892D01*
X124567500Y-96065314D01*
X124660686Y-96158500D01*
X124774814Y-96224392D01*
X124902108Y-96258500D01*
X124902110Y-96258500D01*
X125033890Y-96258500D01*
X125033892Y-96258500D01*
X125161186Y-96224392D01*
X125275314Y-96158500D01*
X125368500Y-96065314D01*
X125434392Y-95951186D01*
X125466566Y-95831108D01*
X136532500Y-95831108D01*
X136532500Y-95962891D01*
X136566608Y-96090187D01*
X136586419Y-96124500D01*
X136632500Y-96204314D01*
X136725686Y-96297500D01*
X136839814Y-96363392D01*
X136967108Y-96397500D01*
X136967110Y-96397500D01*
X137098890Y-96397500D01*
X137098892Y-96397500D01*
X137226186Y-96363392D01*
X137340314Y-96297500D01*
X137433500Y-96204314D01*
X137499392Y-96090186D01*
X137533500Y-95962892D01*
X137533500Y-95831108D01*
X137499392Y-95703814D01*
X137433500Y-95589686D01*
X137340314Y-95496500D01*
X137260957Y-95450683D01*
X137226187Y-95430608D01*
X137162539Y-95413554D01*
X137098892Y-95396500D01*
X136967108Y-95396500D01*
X136839812Y-95430608D01*
X136725686Y-95496500D01*
X136725683Y-95496502D01*
X136632502Y-95589683D01*
X136632500Y-95589686D01*
X136566608Y-95703812D01*
X136532500Y-95831108D01*
X125466566Y-95831108D01*
X125468500Y-95823892D01*
X125468500Y-95692108D01*
X125434392Y-95564814D01*
X125368500Y-95450686D01*
X125275314Y-95357500D01*
X125218250Y-95324554D01*
X125161187Y-95291608D01*
X125097539Y-95274554D01*
X125033892Y-95257500D01*
X124902108Y-95257500D01*
X124774812Y-95291608D01*
X124660686Y-95357500D01*
X124660683Y-95357502D01*
X124567502Y-95450683D01*
X124567500Y-95450686D01*
X124501608Y-95564812D01*
X124467500Y-95692108D01*
X80264500Y-95692108D01*
X80264500Y-94831108D01*
X138945500Y-94831108D01*
X138945500Y-94962891D01*
X138979608Y-95090187D01*
X139012554Y-95147250D01*
X139045500Y-95204314D01*
X139138686Y-95297500D01*
X139252814Y-95363392D01*
X139380108Y-95397500D01*
X139380110Y-95397500D01*
X139511890Y-95397500D01*
X139511892Y-95397500D01*
X139639186Y-95363392D01*
X139753314Y-95297500D01*
X139846500Y-95204314D01*
X139912392Y-95090186D01*
X139946500Y-94962892D01*
X139946500Y-94831108D01*
X139946500Y-94822981D01*
X139950036Y-94822981D01*
X139958291Y-94769973D01*
X140004660Y-94717707D01*
X140071925Y-94698807D01*
X140132476Y-94715412D01*
X140136451Y-94717707D01*
X140168811Y-94736391D01*
X140168813Y-94736391D01*
X140168814Y-94736392D01*
X140296108Y-94770500D01*
X140296110Y-94770500D01*
X140427890Y-94770500D01*
X140427892Y-94770500D01*
X140555186Y-94736392D01*
X140669314Y-94670500D01*
X140762500Y-94577314D01*
X140828392Y-94463186D01*
X140862500Y-94335892D01*
X140862500Y-94204108D01*
X140828392Y-94076814D01*
X140762500Y-93962686D01*
X140669314Y-93869500D01*
X140612250Y-93836554D01*
X140555187Y-93803608D01*
X140491539Y-93786554D01*
X140427892Y-93769500D01*
X140296108Y-93769500D01*
X140168812Y-93803608D01*
X140054686Y-93869500D01*
X140054683Y-93869502D01*
X139961502Y-93962683D01*
X139961500Y-93962686D01*
X139895608Y-94076812D01*
X139861500Y-94204108D01*
X139861500Y-94344019D01*
X139858053Y-94344019D01*
X139849457Y-94397555D01*
X139802842Y-94449601D01*
X139735489Y-94468183D01*
X139675523Y-94451587D01*
X139661882Y-94443711D01*
X139639187Y-94430608D01*
X139575539Y-94413554D01*
X139511892Y-94396500D01*
X139380108Y-94396500D01*
X139252812Y-94430608D01*
X139138686Y-94496500D01*
X139138683Y-94496502D01*
X139045502Y-94589683D01*
X139045500Y-94589686D01*
X138979608Y-94703812D01*
X138945500Y-94831108D01*
X80264500Y-94831108D01*
X80264500Y-92537108D01*
X122796500Y-92537108D01*
X122796500Y-92668891D01*
X122830608Y-92796187D01*
X122857987Y-92843608D01*
X122896500Y-92910314D01*
X122989686Y-93003500D01*
X123103814Y-93069392D01*
X123231108Y-93103500D01*
X123231110Y-93103500D01*
X123362890Y-93103500D01*
X123362892Y-93103500D01*
X123362893Y-93103499D01*
X123364720Y-93103259D01*
X123366266Y-93103500D01*
X123371019Y-93103500D01*
X123371019Y-93104240D01*
X123433756Y-93114021D01*
X123486014Y-93160398D01*
X123504903Y-93227666D01*
X123503851Y-93242381D01*
X123503624Y-93244105D01*
X123503624Y-93375891D01*
X123537732Y-93503187D01*
X123563096Y-93547118D01*
X123603624Y-93617314D01*
X123696810Y-93710500D01*
X123810938Y-93776392D01*
X123938232Y-93810500D01*
X123938234Y-93810500D01*
X124070014Y-93810500D01*
X124070016Y-93810500D01*
X124197310Y-93776392D01*
X124311438Y-93710500D01*
X124347524Y-93674414D01*
X129784969Y-93674414D01*
X129784969Y-93806198D01*
X129786122Y-93810500D01*
X129819077Y-93933493D01*
X129835930Y-93962683D01*
X129884969Y-94047620D01*
X129978155Y-94140806D01*
X130092283Y-94206698D01*
X130219577Y-94240806D01*
X130219579Y-94240806D01*
X130351359Y-94240806D01*
X130351361Y-94240806D01*
X130478655Y-94206698D01*
X130592783Y-94140806D01*
X130685969Y-94047620D01*
X130751861Y-93933492D01*
X130785969Y-93806198D01*
X130785969Y-93674414D01*
X130751861Y-93547120D01*
X130685969Y-93432992D01*
X130592783Y-93339806D01*
X130535719Y-93306860D01*
X130478656Y-93273914D01*
X130415008Y-93256860D01*
X130351361Y-93239806D01*
X130219577Y-93239806D01*
X130092281Y-93273914D01*
X129978155Y-93339806D01*
X129978152Y-93339808D01*
X129884971Y-93432989D01*
X129884969Y-93432992D01*
X129819077Y-93547118D01*
X129803759Y-93604287D01*
X129784969Y-93674414D01*
X124347524Y-93674414D01*
X124404624Y-93617314D01*
X124470516Y-93503186D01*
X124504624Y-93375892D01*
X124504624Y-93244108D01*
X124470516Y-93116814D01*
X124468903Y-93114021D01*
X124443136Y-93069391D01*
X124404624Y-93002686D01*
X124311438Y-92909500D01*
X124254374Y-92876554D01*
X124197311Y-92843608D01*
X124133663Y-92826554D01*
X124070016Y-92809500D01*
X123938232Y-92809500D01*
X123938228Y-92809500D01*
X123936389Y-92809742D01*
X123934838Y-92809500D01*
X123930105Y-92809500D01*
X123930105Y-92808761D01*
X123867355Y-92798972D01*
X123815101Y-92752589D01*
X123796220Y-92685319D01*
X123797274Y-92670604D01*
X123797498Y-92668895D01*
X123797500Y-92668892D01*
X123797500Y-92537108D01*
X123763392Y-92409814D01*
X123697500Y-92295686D01*
X123604314Y-92202500D01*
X123531381Y-92160392D01*
X123490187Y-92136608D01*
X123426539Y-92119554D01*
X123362892Y-92102500D01*
X123231108Y-92102500D01*
X123103812Y-92136608D01*
X122989686Y-92202500D01*
X122989683Y-92202502D01*
X122896502Y-92295683D01*
X122896500Y-92295686D01*
X122830608Y-92409812D01*
X122796500Y-92537108D01*
X80264500Y-92537108D01*
X80264500Y-91825108D01*
X96978500Y-91825108D01*
X96978500Y-91956892D01*
X96990403Y-92001314D01*
X97012608Y-92084187D01*
X97034714Y-92122475D01*
X97078500Y-92198314D01*
X97171686Y-92291500D01*
X97285814Y-92357392D01*
X97413108Y-92391500D01*
X97413110Y-92391500D01*
X97544890Y-92391500D01*
X97544892Y-92391500D01*
X97672186Y-92357392D01*
X97786314Y-92291500D01*
X97879500Y-92198314D01*
X97945392Y-92084186D01*
X97979500Y-91956892D01*
X97979500Y-91825108D01*
X97945392Y-91697814D01*
X97945389Y-91697808D01*
X97936252Y-91681982D01*
X97936251Y-91681981D01*
X97905147Y-91628108D01*
X116593500Y-91628108D01*
X116593500Y-91759892D01*
X116595132Y-91765981D01*
X116627608Y-91887187D01*
X116649472Y-91925055D01*
X116693500Y-92001314D01*
X116786686Y-92094500D01*
X116900814Y-92160392D01*
X117028108Y-92194500D01*
X117028110Y-92194500D01*
X117159890Y-92194500D01*
X117159892Y-92194500D01*
X117287186Y-92160392D01*
X117401314Y-92094500D01*
X117494500Y-92001314D01*
X117560392Y-91887186D01*
X117561753Y-91882108D01*
X125991500Y-91882108D01*
X125991500Y-92013892D01*
X126008554Y-92077539D01*
X126025608Y-92141187D01*
X126056388Y-92194499D01*
X126091500Y-92255314D01*
X126184686Y-92348500D01*
X126298814Y-92414392D01*
X126426108Y-92448500D01*
X126426110Y-92448500D01*
X126557890Y-92448500D01*
X126557892Y-92448500D01*
X126685186Y-92414392D01*
X126799314Y-92348500D01*
X126892500Y-92255314D01*
X126943788Y-92166480D01*
X128488167Y-92166480D01*
X128488167Y-92298263D01*
X128522275Y-92425559D01*
X128555221Y-92482622D01*
X128588167Y-92539686D01*
X128681353Y-92632872D01*
X128795481Y-92698764D01*
X128922775Y-92732872D01*
X128922777Y-92732872D01*
X129054557Y-92732872D01*
X129054559Y-92732872D01*
X129181853Y-92698764D01*
X129295981Y-92632872D01*
X129324009Y-92604843D01*
X129385328Y-92571360D01*
X129455020Y-92576344D01*
X129473689Y-92585139D01*
X129480143Y-92588865D01*
X129480145Y-92588867D01*
X129594273Y-92654759D01*
X129721567Y-92688867D01*
X129721569Y-92688867D01*
X129853349Y-92688867D01*
X129853351Y-92688867D01*
X129980645Y-92654759D01*
X130094773Y-92588867D01*
X130187959Y-92495681D01*
X130253851Y-92381553D01*
X130287959Y-92254259D01*
X130287959Y-92122475D01*
X130253851Y-91995181D01*
X130187959Y-91881053D01*
X130094773Y-91787867D01*
X129989986Y-91727368D01*
X129989984Y-91727366D01*
X129980648Y-91721976D01*
X129980645Y-91721975D01*
X129853351Y-91687867D01*
X129721567Y-91687867D01*
X129594271Y-91721975D01*
X129480145Y-91787867D01*
X129452117Y-91815895D01*
X129390793Y-91849379D01*
X129321102Y-91844393D01*
X129302437Y-91835599D01*
X129181856Y-91765981D01*
X129181853Y-91765980D01*
X129054559Y-91731872D01*
X128922775Y-91731872D01*
X128795479Y-91765980D01*
X128681353Y-91831872D01*
X128681350Y-91831874D01*
X128588169Y-91925055D01*
X128588167Y-91925058D01*
X128522275Y-92039184D01*
X128488167Y-92166480D01*
X126943788Y-92166480D01*
X126958392Y-92141186D01*
X126992500Y-92013892D01*
X126992500Y-91882108D01*
X126958392Y-91754814D01*
X126892500Y-91640686D01*
X126879922Y-91628108D01*
X133357500Y-91628108D01*
X133357500Y-91759892D01*
X133359132Y-91765981D01*
X133391608Y-91887187D01*
X133413472Y-91925055D01*
X133457500Y-92001314D01*
X133550686Y-92094500D01*
X133664814Y-92160392D01*
X133792108Y-92194500D01*
X133792110Y-92194500D01*
X133923890Y-92194500D01*
X133923892Y-92194500D01*
X134051186Y-92160392D01*
X134165314Y-92094500D01*
X134258500Y-92001314D01*
X134324392Y-91887186D01*
X134358500Y-91759892D01*
X134358500Y-91628108D01*
X134324392Y-91500814D01*
X134258500Y-91386686D01*
X134165314Y-91293500D01*
X134108250Y-91260554D01*
X134051187Y-91227608D01*
X133987539Y-91210554D01*
X133923892Y-91193500D01*
X133792108Y-91193500D01*
X133664812Y-91227608D01*
X133550686Y-91293500D01*
X133550683Y-91293502D01*
X133457502Y-91386683D01*
X133457500Y-91386686D01*
X133391608Y-91500812D01*
X133369403Y-91583686D01*
X133357500Y-91628108D01*
X126879922Y-91628108D01*
X126799314Y-91547500D01*
X126718452Y-91500814D01*
X126685187Y-91481608D01*
X126621539Y-91464554D01*
X126557892Y-91447500D01*
X126426108Y-91447500D01*
X126298812Y-91481608D01*
X126184686Y-91547500D01*
X126184683Y-91547502D01*
X126091502Y-91640683D01*
X126091500Y-91640686D01*
X126025608Y-91754812D01*
X125991783Y-91881050D01*
X125991500Y-91882108D01*
X117561753Y-91882108D01*
X117594500Y-91759892D01*
X117594500Y-91628108D01*
X117560392Y-91500814D01*
X117494500Y-91386686D01*
X117401314Y-91293500D01*
X117344250Y-91260554D01*
X117287187Y-91227608D01*
X117223539Y-91210554D01*
X117159892Y-91193500D01*
X117028108Y-91193500D01*
X116900812Y-91227608D01*
X116786686Y-91293500D01*
X116786683Y-91293502D01*
X116693502Y-91386683D01*
X116693500Y-91386686D01*
X116627608Y-91500812D01*
X116605403Y-91583686D01*
X116593500Y-91628108D01*
X97905147Y-91628108D01*
X97879500Y-91583686D01*
X97786314Y-91490500D01*
X97711836Y-91447500D01*
X97672187Y-91424608D01*
X97608539Y-91407554D01*
X97544892Y-91390500D01*
X97413108Y-91390500D01*
X97285812Y-91424608D01*
X97171686Y-91490500D01*
X97171683Y-91490502D01*
X97078502Y-91583683D01*
X97078500Y-91583686D01*
X97012608Y-91697812D01*
X96988478Y-91787869D01*
X96978500Y-91825108D01*
X80264500Y-91825108D01*
X80264500Y-87818108D01*
X121419500Y-87818108D01*
X121419500Y-87949891D01*
X121453608Y-88077187D01*
X121457936Y-88084683D01*
X121519500Y-88191314D01*
X121612686Y-88284500D01*
X121726814Y-88350392D01*
X121854108Y-88384500D01*
X121854110Y-88384500D01*
X121985890Y-88384500D01*
X121985892Y-88384500D01*
X122113186Y-88350392D01*
X122155247Y-88326108D01*
X137421500Y-88326108D01*
X137421500Y-88457891D01*
X137455608Y-88585187D01*
X137488554Y-88642250D01*
X137521500Y-88699314D01*
X137614686Y-88792500D01*
X137728814Y-88858392D01*
X137856108Y-88892500D01*
X137856110Y-88892500D01*
X137987890Y-88892500D01*
X137987892Y-88892500D01*
X138115186Y-88858392D01*
X138229314Y-88792500D01*
X138322500Y-88699314D01*
X138388392Y-88585186D01*
X138422500Y-88457892D01*
X138422500Y-88326108D01*
X138388392Y-88198814D01*
X138322500Y-88084686D01*
X138229314Y-87991500D01*
X138157247Y-87949892D01*
X138115187Y-87925608D01*
X138051539Y-87908554D01*
X137987892Y-87891500D01*
X137856108Y-87891500D01*
X137728812Y-87925608D01*
X137614686Y-87991500D01*
X137614683Y-87991502D01*
X137521502Y-88084683D01*
X137521500Y-88084686D01*
X137455608Y-88198812D01*
X137421500Y-88326108D01*
X122155247Y-88326108D01*
X122227314Y-88284500D01*
X122320500Y-88191314D01*
X122386392Y-88077186D01*
X122420500Y-87949892D01*
X122420500Y-87818108D01*
X122386392Y-87690814D01*
X122320500Y-87576686D01*
X122227314Y-87483500D01*
X122170250Y-87450554D01*
X122113187Y-87417608D01*
X122049539Y-87400554D01*
X121985892Y-87383500D01*
X121854108Y-87383500D01*
X121726812Y-87417608D01*
X121612686Y-87483500D01*
X121612683Y-87483502D01*
X121519502Y-87576683D01*
X121519500Y-87576686D01*
X121453608Y-87690812D01*
X121419500Y-87818108D01*
X80264500Y-87818108D01*
X80264500Y-85786108D01*
X123478792Y-85786108D01*
X123478792Y-85917891D01*
X123512900Y-86045187D01*
X123527536Y-86070537D01*
X123578792Y-86159314D01*
X123671978Y-86252500D01*
X123786106Y-86318392D01*
X123913400Y-86352500D01*
X123913402Y-86352500D01*
X124045182Y-86352500D01*
X124045184Y-86352500D01*
X124172478Y-86318392D01*
X124286606Y-86252500D01*
X124379792Y-86159314D01*
X124379792Y-86159313D01*
X124385539Y-86153567D01*
X124387941Y-86155969D01*
X124431614Y-86124033D01*
X124501357Y-86119828D01*
X124561674Y-86153645D01*
X124561753Y-86153567D01*
X124562031Y-86153845D01*
X124562302Y-86153997D01*
X124563074Y-86154888D01*
X124567499Y-86159313D01*
X124567500Y-86159314D01*
X124660686Y-86252500D01*
X124774814Y-86318392D01*
X124902108Y-86352500D01*
X124902110Y-86352500D01*
X125033890Y-86352500D01*
X125033892Y-86352500D01*
X125161186Y-86318392D01*
X125275314Y-86252500D01*
X125368500Y-86159314D01*
X125368613Y-86159117D01*
X125368749Y-86158987D01*
X125373448Y-86152865D01*
X125374402Y-86153597D01*
X125419178Y-86110903D01*
X125487785Y-86097679D01*
X125552650Y-86123646D01*
X125578201Y-86153133D01*
X125578552Y-86152865D01*
X125583064Y-86158746D01*
X125583386Y-86159116D01*
X125583500Y-86159314D01*
X125676686Y-86252500D01*
X125790814Y-86318392D01*
X125918108Y-86352500D01*
X125918110Y-86352500D01*
X126049890Y-86352500D01*
X126049892Y-86352500D01*
X126177186Y-86318392D01*
X126291314Y-86252500D01*
X126384500Y-86159314D01*
X126450392Y-86045186D01*
X126484500Y-85917892D01*
X126484500Y-85786108D01*
X127769500Y-85786108D01*
X127769500Y-85917891D01*
X127803608Y-86045187D01*
X127818244Y-86070537D01*
X127869500Y-86159314D01*
X127962686Y-86252500D01*
X128076814Y-86318392D01*
X128204108Y-86352500D01*
X128204110Y-86352500D01*
X128335890Y-86352500D01*
X128335892Y-86352500D01*
X128463186Y-86318392D01*
X128577314Y-86252500D01*
X128670500Y-86159314D01*
X128693919Y-86118750D01*
X128744484Y-86070537D01*
X128813091Y-86057313D01*
X128877956Y-86083281D01*
X128908690Y-86118749D01*
X128915050Y-86129764D01*
X129008236Y-86222950D01*
X129122364Y-86288842D01*
X129249658Y-86322950D01*
X129249660Y-86322950D01*
X129381440Y-86322950D01*
X129381442Y-86322950D01*
X129508736Y-86288842D01*
X129622864Y-86222950D01*
X129716050Y-86129764D01*
X129781942Y-86015636D01*
X129816050Y-85888342D01*
X129816050Y-85756558D01*
X129781942Y-85629264D01*
X129716050Y-85515136D01*
X129622864Y-85421950D01*
X129559918Y-85385608D01*
X129508737Y-85356058D01*
X129445089Y-85339004D01*
X129381442Y-85321950D01*
X129249658Y-85321950D01*
X129122362Y-85356058D01*
X129008236Y-85421950D01*
X129008233Y-85421952D01*
X128915052Y-85515133D01*
X128915048Y-85515139D01*
X128891630Y-85555699D01*
X128841062Y-85603914D01*
X128772455Y-85617135D01*
X128707591Y-85591166D01*
X128676857Y-85555698D01*
X128670500Y-85544686D01*
X128577314Y-85451500D01*
X128520250Y-85418554D01*
X128463187Y-85385608D01*
X128399539Y-85368554D01*
X128335892Y-85351500D01*
X128204108Y-85351500D01*
X128076812Y-85385608D01*
X127962686Y-85451500D01*
X127962683Y-85451502D01*
X127869502Y-85544683D01*
X127869500Y-85544686D01*
X127803608Y-85658812D01*
X127769500Y-85786108D01*
X126484500Y-85786108D01*
X126450392Y-85658814D01*
X126384500Y-85544686D01*
X126291314Y-85451500D01*
X126234250Y-85418554D01*
X126177187Y-85385608D01*
X126113539Y-85368554D01*
X126049892Y-85351500D01*
X125918108Y-85351500D01*
X125790812Y-85385608D01*
X125676686Y-85451500D01*
X125676683Y-85451502D01*
X125583502Y-85544683D01*
X125583495Y-85544692D01*
X125583384Y-85544886D01*
X125583246Y-85545016D01*
X125578552Y-85551135D01*
X125577597Y-85550402D01*
X125532815Y-85593099D01*
X125464207Y-85606319D01*
X125399344Y-85580348D01*
X125373798Y-85550866D01*
X125373448Y-85551135D01*
X125368937Y-85545257D01*
X125368616Y-85544886D01*
X125368504Y-85544692D01*
X125368501Y-85544689D01*
X125368500Y-85544686D01*
X125275314Y-85451500D01*
X125218250Y-85418554D01*
X125161187Y-85385608D01*
X125097539Y-85368554D01*
X125033892Y-85351500D01*
X124902108Y-85351500D01*
X124774812Y-85385608D01*
X124660686Y-85451500D01*
X124660683Y-85451502D01*
X124561753Y-85550433D01*
X124559361Y-85548041D01*
X124515576Y-85580003D01*
X124445830Y-85584147D01*
X124385639Y-85550332D01*
X124385539Y-85550433D01*
X124385180Y-85550074D01*
X124384914Y-85549925D01*
X124384155Y-85549049D01*
X124286608Y-85451502D01*
X124286606Y-85451500D01*
X124229542Y-85418554D01*
X124172479Y-85385608D01*
X124108831Y-85368554D01*
X124045184Y-85351500D01*
X123913400Y-85351500D01*
X123786104Y-85385608D01*
X123671978Y-85451500D01*
X123671975Y-85451502D01*
X123578794Y-85544683D01*
X123578792Y-85544686D01*
X123512900Y-85658812D01*
X123478792Y-85786108D01*
X80264500Y-85786108D01*
X80264500Y-84008108D01*
X124721500Y-84008108D01*
X124721500Y-84139891D01*
X124755608Y-84267187D01*
X124788554Y-84324250D01*
X124821500Y-84381314D01*
X124914686Y-84474500D01*
X125028814Y-84540392D01*
X125156108Y-84574500D01*
X125156110Y-84574500D01*
X125287890Y-84574500D01*
X125287892Y-84574500D01*
X125415186Y-84540392D01*
X125529314Y-84474500D01*
X125622500Y-84381314D01*
X125688392Y-84267186D01*
X125722500Y-84139892D01*
X125722500Y-84008108D01*
X125688392Y-83880814D01*
X125622500Y-83766686D01*
X125529314Y-83673500D01*
X125472250Y-83640554D01*
X125415187Y-83607608D01*
X125351539Y-83590554D01*
X125287892Y-83573500D01*
X125156108Y-83573500D01*
X125028812Y-83607608D01*
X124914686Y-83673500D01*
X124914683Y-83673502D01*
X124821502Y-83766683D01*
X124821500Y-83766686D01*
X124755608Y-83880812D01*
X124721500Y-84008108D01*
X80264500Y-84008108D01*
X80264500Y-80310108D01*
X137563500Y-80310108D01*
X137563500Y-80441891D01*
X137597608Y-80569187D01*
X137630554Y-80626250D01*
X137663500Y-80683314D01*
X137756686Y-80776500D01*
X137870814Y-80842392D01*
X137998108Y-80876500D01*
X137998110Y-80876500D01*
X138129890Y-80876500D01*
X138129892Y-80876500D01*
X138257186Y-80842392D01*
X138371314Y-80776500D01*
X138464500Y-80683314D01*
X138530392Y-80569186D01*
X138564500Y-80441892D01*
X138564500Y-80310108D01*
X138530392Y-80182814D01*
X138464500Y-80068686D01*
X138371314Y-79975500D01*
X138314250Y-79942554D01*
X138257187Y-79909608D01*
X138193539Y-79892554D01*
X138129892Y-79875500D01*
X137998108Y-79875500D01*
X137870812Y-79909608D01*
X137756686Y-79975500D01*
X137756683Y-79975502D01*
X137663502Y-80068683D01*
X137663500Y-80068686D01*
X137597608Y-80182812D01*
X137563500Y-80310108D01*
X80264500Y-80310108D01*
X80264500Y-76122706D01*
X80264618Y-76117298D01*
X80270518Y-75982155D01*
X80270518Y-75982153D01*
X82555500Y-75982153D01*
X82555500Y-76257846D01*
X82586365Y-76531779D01*
X82586367Y-76531791D01*
X82647712Y-76800562D01*
X82647713Y-76800564D01*
X82738765Y-77060777D01*
X82858378Y-77309156D01*
X82891896Y-77362499D01*
X83005052Y-77542586D01*
X83176938Y-77758124D01*
X83371876Y-77953062D01*
X83587414Y-78124948D01*
X83820841Y-78271620D01*
X84069224Y-78391235D01*
X84329437Y-78482287D01*
X84598208Y-78543633D01*
X84872154Y-78574499D01*
X84872155Y-78574500D01*
X84872158Y-78574500D01*
X85147845Y-78574500D01*
X85147845Y-78574499D01*
X85421792Y-78543633D01*
X85690563Y-78482287D01*
X85950776Y-78391235D01*
X86199159Y-78271620D01*
X86432586Y-78124948D01*
X86648124Y-77953062D01*
X86843062Y-77758124D01*
X87014948Y-77542586D01*
X87161620Y-77309159D01*
X87281235Y-77060776D01*
X87338855Y-76896108D01*
X120657500Y-76896108D01*
X120657500Y-77027892D01*
X120666312Y-77060779D01*
X120691608Y-77155187D01*
X120724554Y-77212250D01*
X120757500Y-77269314D01*
X120850686Y-77362500D01*
X120964814Y-77428392D01*
X121092108Y-77462500D01*
X121092110Y-77462500D01*
X121223890Y-77462500D01*
X121223892Y-77462500D01*
X121351186Y-77428392D01*
X121465314Y-77362500D01*
X121558500Y-77269314D01*
X121624392Y-77155186D01*
X121658500Y-77027892D01*
X121658500Y-76896108D01*
X121624392Y-76768814D01*
X121558500Y-76654686D01*
X121465314Y-76561500D01*
X121408250Y-76528554D01*
X121351187Y-76495608D01*
X121287539Y-76478554D01*
X121223892Y-76461500D01*
X121092108Y-76461500D01*
X120964812Y-76495608D01*
X120850686Y-76561500D01*
X120850683Y-76561502D01*
X120757502Y-76654683D01*
X120757500Y-76654686D01*
X120691608Y-76768812D01*
X120670651Y-76847026D01*
X120657500Y-76896108D01*
X87338855Y-76896108D01*
X87372287Y-76800563D01*
X87433633Y-76531792D01*
X87464500Y-76257842D01*
X87464500Y-75982158D01*
X87464499Y-75982153D01*
X227495500Y-75982153D01*
X227495500Y-76257846D01*
X227526365Y-76531779D01*
X227526367Y-76531791D01*
X227587712Y-76800562D01*
X227587713Y-76800564D01*
X227678765Y-77060777D01*
X227798378Y-77309156D01*
X227831896Y-77362499D01*
X227945052Y-77542586D01*
X228116938Y-77758124D01*
X228311876Y-77953062D01*
X228527414Y-78124948D01*
X228760841Y-78271620D01*
X229009224Y-78391235D01*
X229269437Y-78482287D01*
X229538208Y-78543633D01*
X229812154Y-78574499D01*
X229812155Y-78574500D01*
X229812158Y-78574500D01*
X230087845Y-78574500D01*
X230087845Y-78574499D01*
X230361792Y-78543633D01*
X230630563Y-78482287D01*
X230890776Y-78391235D01*
X231139159Y-78271620D01*
X231372586Y-78124948D01*
X231588124Y-77953062D01*
X231783062Y-77758124D01*
X231954948Y-77542586D01*
X232101620Y-77309159D01*
X232221235Y-77060776D01*
X232312287Y-76800563D01*
X232373633Y-76531792D01*
X232404500Y-76257842D01*
X232404500Y-75982158D01*
X232373633Y-75708208D01*
X232312287Y-75439437D01*
X232221235Y-75179224D01*
X232154561Y-75040774D01*
X232101621Y-74930843D01*
X232080394Y-74897060D01*
X231954948Y-74697414D01*
X231783062Y-74481876D01*
X231588124Y-74286938D01*
X231372586Y-74115052D01*
X231139159Y-73968380D01*
X231139156Y-73968378D01*
X230890777Y-73848765D01*
X230630564Y-73757713D01*
X230630562Y-73757712D01*
X230423137Y-73710368D01*
X230361792Y-73696367D01*
X230361788Y-73696366D01*
X230361779Y-73696365D01*
X230087846Y-73665500D01*
X230087842Y-73665500D01*
X229812158Y-73665500D01*
X229812153Y-73665500D01*
X229538220Y-73696365D01*
X229538208Y-73696367D01*
X229269437Y-73757712D01*
X229269435Y-73757713D01*
X229009222Y-73848765D01*
X228760843Y-73968378D01*
X228527415Y-74115051D01*
X228311876Y-74286937D01*
X228116937Y-74481876D01*
X227945051Y-74697415D01*
X227798378Y-74930843D01*
X227678765Y-75179222D01*
X227587713Y-75439435D01*
X227587712Y-75439437D01*
X227526367Y-75708208D01*
X227526365Y-75708220D01*
X227495500Y-75982153D01*
X87464499Y-75982153D01*
X87433633Y-75708208D01*
X87372287Y-75439437D01*
X87281235Y-75179224D01*
X87251803Y-75118108D01*
X128023500Y-75118108D01*
X128023500Y-75249891D01*
X128057608Y-75377187D01*
X128090554Y-75434250D01*
X128123500Y-75491314D01*
X128216686Y-75584500D01*
X128330814Y-75650392D01*
X128458108Y-75684500D01*
X128458110Y-75684500D01*
X128589890Y-75684500D01*
X128589892Y-75684500D01*
X128717186Y-75650392D01*
X128831314Y-75584500D01*
X128924500Y-75491314D01*
X128990392Y-75377186D01*
X129024500Y-75249892D01*
X129024500Y-75118108D01*
X128990392Y-74990814D01*
X128924500Y-74876686D01*
X128831314Y-74783500D01*
X128774250Y-74750554D01*
X128717187Y-74717608D01*
X128641820Y-74697414D01*
X128589892Y-74683500D01*
X128458108Y-74683500D01*
X128330812Y-74717608D01*
X128216686Y-74783500D01*
X128216683Y-74783502D01*
X128123502Y-74876683D01*
X128123500Y-74876686D01*
X128057608Y-74990812D01*
X128023500Y-75118108D01*
X87251803Y-75118108D01*
X87161620Y-74930841D01*
X87014948Y-74697414D01*
X86843062Y-74481876D01*
X86648124Y-74286938D01*
X86432586Y-74115052D01*
X86199159Y-73968380D01*
X86199156Y-73968378D01*
X85950777Y-73848765D01*
X85690564Y-73757713D01*
X85690562Y-73757712D01*
X85483137Y-73710368D01*
X85421792Y-73696367D01*
X85421788Y-73696366D01*
X85421779Y-73696365D01*
X85147846Y-73665500D01*
X85147842Y-73665500D01*
X84872158Y-73665500D01*
X84872153Y-73665500D01*
X84598220Y-73696365D01*
X84598208Y-73696367D01*
X84329437Y-73757712D01*
X84329435Y-73757713D01*
X84069222Y-73848765D01*
X83820843Y-73968378D01*
X83587415Y-74115051D01*
X83371876Y-74286937D01*
X83176937Y-74481876D01*
X83005051Y-74697415D01*
X82858378Y-74930843D01*
X82738765Y-75179222D01*
X82647713Y-75439435D01*
X82647712Y-75439437D01*
X82586367Y-75708208D01*
X82586365Y-75708220D01*
X82555500Y-75982153D01*
X80270518Y-75982153D01*
X80282322Y-75711787D01*
X80283262Y-75701054D01*
X80335889Y-75301308D01*
X80337762Y-75290688D01*
X80425032Y-74897035D01*
X80427819Y-74886635D01*
X80549068Y-74502081D01*
X80552752Y-74491960D01*
X80707051Y-74119448D01*
X80711609Y-74109674D01*
X80897790Y-73752024D01*
X80903172Y-73742703D01*
X81119808Y-73402653D01*
X81125999Y-73393810D01*
X81371449Y-73073934D01*
X81378387Y-73065665D01*
X81650777Y-72768405D01*
X81658405Y-72760777D01*
X81955665Y-72488387D01*
X81963934Y-72481449D01*
X82283810Y-72235999D01*
X82292653Y-72229808D01*
X82632703Y-72013172D01*
X82642024Y-72007790D01*
X82999674Y-71821609D01*
X83009448Y-71817051D01*
X83381960Y-71662752D01*
X83392081Y-71659068D01*
X83776635Y-71537819D01*
X83787035Y-71535032D01*
X84180688Y-71447762D01*
X84191308Y-71445889D01*
X84591054Y-71393262D01*
X84601787Y-71392322D01*
X84995134Y-71375149D01*
X85007298Y-71374618D01*
X85012706Y-71374500D01*
X85054875Y-71374500D01*
X229905125Y-71374500D01*
X229947294Y-71374500D01*
X229952702Y-71374617D01*
G37*
%TD.AperFunction*%
%TD*%
M02*
