%TF.GenerationSoftware,KiCad,Pcbnew,9.0.4*%
%TF.CreationDate,2026-01-23T16:00:14+08:00*%
%TF.ProjectId,TTR9.5eco_VCU,54545239-2e35-4656-936f-5f5643552e6b,v1*%
%TF.SameCoordinates,Original*%
%TF.FileFunction,Copper,L4,Bot*%
%TF.FilePolarity,Positive*%
%FSLAX46Y46*%
G04 Gerber Fmt 4.6, Leading zero omitted, Abs format (unit mm)*
G04 Created by KiCad (PCBNEW 9.0.4) date 2026-01-23 16:00:14*
%MOMM*%
%LPD*%
G01*
G04 APERTURE LIST*
G04 Aperture macros list*
%AMRoundRect*
0 Rectangle with rounded corners*
0 $1 Rounding radius*
0 $2 $3 $4 $5 $6 $7 $8 $9 X,Y pos of 4 corners*
0 Add a 4 corners polygon primitive as box body*
4,1,4,$2,$3,$4,$5,$6,$7,$8,$9,$2,$3,0*
0 Add four circle primitives for the rounded corners*
1,1,$1+$1,$2,$3*
1,1,$1+$1,$4,$5*
1,1,$1+$1,$6,$7*
1,1,$1+$1,$8,$9*
0 Add four rect primitives between the rounded corners*
20,1,$1+$1,$2,$3,$4,$5,0*
20,1,$1+$1,$4,$5,$6,$7,0*
20,1,$1+$1,$6,$7,$8,$9,0*
20,1,$1+$1,$8,$9,$2,$3,0*%
%AMFreePoly0*
4,1,120,3.492903,3.659953,3.849027,3.589116,4.196492,3.483713,4.531954,3.344760,4.852180,3.173596,5.154087,2.971868,5.434768,2.741519,5.691519,2.484768,5.921868,2.204087,6.123596,1.902180,6.294760,1.581954,6.433713,1.246492,6.539116,0.899027,6.609953,0.542903,6.645543,0.181550,6.645543,-0.181550,6.609953,-0.542903,6.539116,-0.899027,6.433713,-1.246492,6.294760,-1.581954,
6.123596,-1.902180,5.921868,-2.204087,5.691519,-2.484768,5.434768,-2.741519,5.154087,-2.971868,4.852180,-3.173596,4.531954,-3.344760,4.196492,-3.483713,3.849027,-3.589116,3.492903,-3.659953,3.131550,-3.695543,2.768450,-3.695543,2.407097,-3.659953,2.050973,-3.589116,1.703508,-3.483713,1.368046,-3.344760,1.047820,-3.173596,0.745913,-2.971868,0.465232,-2.741519,0.208481,-2.484768,
-0.021868,-2.204087,-0.223596,-1.902180,-0.394760,-1.581954,-0.533713,-1.246492,-0.639116,-0.899027,-0.709953,-0.542903,-0.745543,-0.181550,-0.745543,-0.077766,-0.746389,-0.073513,-0.746389,0.073513,-0.745543,0.077766,-0.745543,0.144196,0.750000,0.144196,0.750000,-0.144196,0.787643,-0.430120,0.862284,-0.708684,0.972647,-0.975123,1.116842,-1.224877,1.292404,-1.453673,1.496327,-1.657596,
1.725123,-1.833158,1.974877,-1.977353,2.241316,-2.087716,2.519880,-2.162357,2.805804,-2.200000,3.094196,-2.200000,3.380120,-2.162357,3.658684,-2.087716,3.925123,-1.977353,4.174877,-1.833158,4.403673,-1.657596,4.607596,-1.453673,4.783158,-1.224877,4.927353,-0.975123,5.037716,-0.708684,5.112357,-0.430120,5.150000,-0.144196,5.150000,0.144196,5.112357,0.430120,5.037716,0.708684,
4.927353,0.975123,4.783158,1.224877,4.607596,1.453673,4.403673,1.657596,4.174877,1.833158,3.925123,1.977353,3.658684,2.087716,3.380120,2.162357,3.094196,2.200000,2.805804,2.200000,2.519880,2.162357,2.241316,2.087716,1.974877,1.977353,1.725123,1.833158,1.496327,1.657596,1.292404,1.453673,1.116842,1.224877,0.972647,0.975123,0.862284,0.708684,0.787643,0.430120,
0.750000,0.144196,-0.745543,0.144196,-0.745543,0.181550,-0.709953,0.542903,-0.639116,0.899027,-0.533713,1.246492,-0.394760,1.581954,-0.223596,1.902180,-0.021868,2.204087,0.208481,2.484768,0.465232,2.741519,0.745913,2.971868,1.047820,3.173596,1.368046,3.344760,1.703508,3.483713,2.050973,3.589116,2.407097,3.659953,2.768450,3.695543,3.131550,3.695543,3.492903,3.659953,
3.492903,3.659953,$1*%
G04 Aperture macros list end*
%TA.AperFunction,ComponentPad*%
%ADD10C,0.630000*%
%TD*%
%TA.AperFunction,SMDPad,CuDef*%
%ADD11R,2.600000X3.300000*%
%TD*%
%TA.AperFunction,ComponentPad*%
%ADD12C,3.400000*%
%TD*%
%TA.AperFunction,SMDPad,CuDef*%
%ADD13C,1.500000*%
%TD*%
%TA.AperFunction,SMDPad,CuDef*%
%ADD14FreePoly0,180.000000*%
%TD*%
%TA.AperFunction,SMDPad,CuDef*%
%ADD15RoundRect,0.225000X0.250000X-0.225000X0.250000X0.225000X-0.250000X0.225000X-0.250000X-0.225000X0*%
%TD*%
%TA.AperFunction,SMDPad,CuDef*%
%ADD16RoundRect,0.225000X-0.250000X0.225000X-0.250000X-0.225000X0.250000X-0.225000X0.250000X0.225000X0*%
%TD*%
%TA.AperFunction,SMDPad,CuDef*%
%ADD17RoundRect,0.218750X0.256250X-0.218750X0.256250X0.218750X-0.256250X0.218750X-0.256250X-0.218750X0*%
%TD*%
%TA.AperFunction,ViaPad*%
%ADD18C,0.600000*%
%TD*%
%TA.AperFunction,ViaPad*%
%ADD19C,0.800000*%
%TD*%
%TA.AperFunction,Conductor*%
%ADD20C,0.200000*%
%TD*%
%TA.AperFunction,Conductor*%
%ADD21C,0.254000*%
%TD*%
%TA.AperFunction,Conductor*%
%ADD22C,0.635000*%
%TD*%
G04 APERTURE END LIST*
D10*
%TO.P,U2,9,PAD*%
%TO.N,GND*%
X189799000Y-112171000D03*
X189799000Y-110871000D03*
X189799000Y-109571000D03*
D11*
X189149000Y-110871000D03*
D10*
X188499000Y-112171000D03*
X188499000Y-110871000D03*
X188499000Y-109571000D03*
%TD*%
%TO.P,U1,9,PAD*%
%TO.N,GND*%
X208280000Y-114584000D03*
X208280000Y-113284000D03*
X208280000Y-111984000D03*
D11*
X207630000Y-113284000D03*
D10*
X206980000Y-114584000D03*
X206980000Y-113284000D03*
X206980000Y-111984000D03*
%TD*%
D12*
%TO.P,J3,1,Pin_1*%
%TO.N,+48V*%
X226060000Y-111840000D03*
%TO.P,J3,2,Pin_2*%
%TO.N,GND*%
X226060000Y-116840000D03*
%TD*%
D13*
%TO.P,H1,1*%
%TO.N,N/C*%
X87960000Y-132160000D03*
D14*
X87960000Y-132160000D03*
D13*
X85010000Y-135110000D03*
X85010000Y-129210000D03*
X82060000Y-132160000D03*
%TD*%
D15*
%TO.P,C8,1*%
%TO.N,Net-(U4-VDDA)*%
X115538000Y-98806000D03*
%TO.P,C8,2*%
%TO.N,GND*%
X115538000Y-97256000D03*
%TD*%
D16*
%TO.P,C9,1*%
%TO.N,+3V3*%
X111982000Y-97256000D03*
%TO.P,C9,2*%
%TO.N,GND*%
X111982000Y-98806000D03*
%TD*%
D13*
%TO.P,H4,1*%
%TO.N,N/C*%
X232900000Y-132160000D03*
D14*
X232900000Y-132160000D03*
D13*
X229950000Y-135110000D03*
X229950000Y-129210000D03*
X227000000Y-132160000D03*
%TD*%
D15*
%TO.P,C7,1*%
%TO.N,Net-(U4-VDDA)*%
X117316000Y-98806000D03*
%TO.P,C7,2*%
%TO.N,GND*%
X117316000Y-97256000D03*
%TD*%
D13*
%TO.P,H3,1*%
%TO.N,N/C*%
X232900000Y-76120000D03*
D14*
X232900000Y-76120000D03*
D13*
X229950000Y-79070000D03*
X229950000Y-73170000D03*
X227000000Y-76120000D03*
%TD*%
%TO.P,H2,1*%
%TO.N,N/C*%
X87960000Y-76120000D03*
D14*
X87960000Y-76120000D03*
D13*
X85010000Y-79070000D03*
X85010000Y-73170000D03*
X82060000Y-76120000D03*
%TD*%
D17*
%TO.P,L2,1,1*%
%TO.N,Net-(U4-VDDA)*%
X113760000Y-98793000D03*
%TO.P,L2,2,2*%
%TO.N,+3V3*%
X113760000Y-97218000D03*
%TD*%
D18*
%TO.N,+3V3A*%
X156464000Y-121792000D03*
%TO.N,GND*%
X157734000Y-118872000D03*
X159766000Y-118872000D03*
X156464000Y-123792000D03*
X133096000Y-124714000D03*
X108966000Y-95631000D03*
X106934000Y-92202000D03*
X162560000Y-83780000D03*
X175260000Y-99090000D03*
X99822000Y-92964000D03*
X118110000Y-89154000D03*
X115062000Y-95885000D03*
X116586000Y-95885000D03*
X156210000Y-103886000D03*
X187960000Y-83780000D03*
X99822000Y-92202000D03*
X107442000Y-95631000D03*
X156972000Y-126746000D03*
X110464000Y-88920000D03*
X115798000Y-89174000D03*
X103124000Y-94996000D03*
X99822000Y-91440000D03*
X174244000Y-107188000D03*
X132588000Y-104140000D03*
X187960000Y-99090000D03*
X157988000Y-124714000D03*
X110490000Y-93726000D03*
X112776000Y-93853000D03*
X108095000Y-112776000D03*
X164084000Y-126746000D03*
X201646000Y-111282000D03*
X108178000Y-89682000D03*
X105918000Y-91186000D03*
X133096000Y-86868000D03*
X159004000Y-126746000D03*
X200914000Y-99090000D03*
X108204000Y-93472000D03*
X165100000Y-124714000D03*
X163068000Y-124714000D03*
X154163144Y-86628856D03*
X115824000Y-93888000D03*
X114300000Y-93888000D03*
X122428000Y-92456000D03*
X187655000Y-127508000D03*
X159004000Y-124714000D03*
X111226000Y-88920000D03*
X165100000Y-126746000D03*
X162560000Y-99090000D03*
X143891000Y-78867000D03*
X109702000Y-88920000D03*
X110490000Y-95631000D03*
X144780000Y-75946000D03*
X102108000Y-93980000D03*
X106680000Y-95631000D03*
X105918000Y-93980000D03*
X147637000Y-90424000D03*
X114274000Y-88920000D03*
X194371000Y-112903000D03*
X105156000Y-95631000D03*
X162063777Y-124714000D03*
X114300000Y-95885000D03*
X213360000Y-83780000D03*
X105860003Y-88900000D03*
X115824000Y-95885000D03*
X115798000Y-89936000D03*
X170798000Y-119888000D03*
X108204000Y-95631000D03*
X125984000Y-74930000D03*
X214854000Y-115945373D03*
X166116000Y-126746000D03*
X105918000Y-95631000D03*
X99822000Y-93726000D03*
X137160000Y-105792000D03*
X154243000Y-78486000D03*
X213360000Y-99090000D03*
X111988000Y-88920000D03*
X121666000Y-98298000D03*
X160020000Y-124714000D03*
X111030000Y-98793000D03*
X163068000Y-126746000D03*
X203708000Y-132588000D03*
X156972000Y-124714000D03*
X111252000Y-93726000D03*
X131826000Y-106680000D03*
X164084000Y-124714000D03*
X115062000Y-93888000D03*
X165862000Y-122936000D03*
X115824000Y-93218000D03*
X115036000Y-88920000D03*
X168360000Y-120904000D03*
X92666000Y-90096000D03*
X113538000Y-93853000D03*
X175006000Y-122936000D03*
X101346000Y-93980000D03*
X108178000Y-91968000D03*
X175006000Y-128636000D03*
X102870000Y-88900000D03*
X100584000Y-93980000D03*
X165862000Y-128636000D03*
X117348000Y-95885000D03*
X200660000Y-83780000D03*
X112750000Y-88920000D03*
X99822000Y-90678000D03*
X137160000Y-103792000D03*
X136150000Y-111800000D03*
X144018000Y-86868000D03*
X139700000Y-78826000D03*
X108178000Y-91206000D03*
X105918000Y-89662000D03*
X212753000Y-115219000D03*
X105918000Y-90424000D03*
X166116000Y-124714000D03*
X173918000Y-115388000D03*
X118396000Y-97269000D03*
X108178000Y-88920000D03*
X206235875Y-130683000D03*
X100584000Y-88900000D03*
X96083051Y-101600000D03*
X136398000Y-92710000D03*
X99822000Y-89916000D03*
X157988000Y-126746000D03*
X99822000Y-89154000D03*
X120945400Y-125296000D03*
X225806000Y-99090000D03*
X144780000Y-83820000D03*
X108966000Y-93726000D03*
X105918000Y-93218000D03*
X188940750Y-107188000D03*
X185105000Y-129987000D03*
X104336003Y-88900000D03*
X120765400Y-112088000D03*
X95903000Y-112776000D03*
X162052000Y-126746000D03*
X109728000Y-93726000D03*
X132842000Y-93397000D03*
X108940000Y-88920000D03*
X112014000Y-93853000D03*
X103632000Y-95504000D03*
X168302000Y-112930000D03*
X196403000Y-113411000D03*
X102108000Y-88900000D03*
X137922000Y-86868000D03*
X102616000Y-94488000D03*
X108178000Y-92730000D03*
X108178000Y-90444000D03*
X101346000Y-88900000D03*
X108095000Y-125550000D03*
X103632000Y-88900000D03*
X175260000Y-83780000D03*
X161036000Y-124714000D03*
X122447660Y-100584000D03*
X106426000Y-91694000D03*
X109728000Y-95631000D03*
X183007000Y-108839000D03*
X113512000Y-88920000D03*
X127254000Y-74930000D03*
X119380000Y-104394000D03*
X105156000Y-88900000D03*
X104394000Y-95631000D03*
X95903000Y-125730000D03*
X129014468Y-100584000D03*
X119126000Y-88900000D03*
X207591500Y-109601000D03*
X161036000Y-126746000D03*
X160020000Y-126746000D03*
%TO.N,Net-(U4-VDDA)*%
X118396000Y-98793000D03*
%TO.N,+3V3*%
X160020000Y-108204000D03*
X160020000Y-110490000D03*
X108583051Y-100584000D03*
X133858000Y-91694000D03*
X160020000Y-109728000D03*
X129540000Y-105156000D03*
X138064000Y-80376000D03*
X160020000Y-108966000D03*
X110776000Y-97269000D03*
X137922000Y-88392000D03*
X160020000Y-107442000D03*
X122428000Y-105410000D03*
X121920000Y-87884000D03*
X117094000Y-91694000D03*
X97479000Y-91891000D03*
X128524000Y-75184000D03*
D19*
%TO.N,+5V*%
X181610000Y-131953000D03*
X181610000Y-106934000D03*
D18*
%TO.N,/MCU/NRST*%
X124968000Y-95758000D03*
X124968000Y-85852000D03*
D19*
%TO.N,+12V*%
X200225500Y-134800500D03*
X200225500Y-109502000D03*
D18*
%TO.N,+3V3A*%
X161290000Y-121158000D03*
%TO.N,/Connectors/USART6.TX*%
X127000000Y-105664000D03*
X127038003Y-98370000D03*
%TO.N,/Connectors/USART6.RX*%
X125742132Y-105651869D03*
X125730000Y-97790000D03*
%TO.N,/Connectors/ROT1_SIG*%
X106083051Y-101600000D03*
X113030000Y-101561997D03*
%TO.N,/Connectors/ROT2_SIG*%
X103583051Y-102362000D03*
X113030000Y-102362000D03*
%TO.N,/Connectors/ACC_SIG*%
X123265400Y-120650000D03*
X116269644Y-101107000D03*
%TO.N,/Connectors/SYS.JTCK*%
X128270000Y-85852000D03*
X129787459Y-92188367D03*
%TO.N,/Connectors/USART3.TX*%
X124004124Y-93310000D03*
X123979292Y-85852000D03*
%TO.N,/Connectors/SYS.JTMS*%
X129315550Y-85822450D03*
X130285469Y-93740306D03*
%TO.N,/Connectors/USART3.RX*%
X123297000Y-92603000D03*
X121158000Y-76962000D03*
%TO.N,/Connectors/SYS.JTDO*%
X126492000Y-91948000D03*
X125984000Y-85852000D03*
%TO.N,/Connectors/SYS.JTDI*%
X125222000Y-84074000D03*
X128988667Y-92232372D03*
%TO.N,/MCU/USART1.RX*%
X156464000Y-119888000D03*
X139043000Y-96625000D03*
%TO.N,/MCU/USART1.RTS*%
X156464000Y-111792000D03*
X140362000Y-94270000D03*
%TO.N,/MCU/USART1.CTS*%
X156464000Y-115824000D03*
X139446000Y-94897000D03*
%TO.N,/MCU/~{DATA_IND}*%
X156464000Y-109728000D03*
X123339185Y-105877185D03*
%TO.N,/MCU/USART1.TX*%
X156464000Y-117856000D03*
X137033000Y-95897000D03*
%TD*%
D20*
%TO.N,/MCU/USART1.RTS*%
X140398000Y-94234000D02*
X140362000Y-94270000D01*
X144018000Y-94234000D02*
X140398000Y-94234000D01*
X151785000Y-102001000D02*
X144018000Y-94234000D01*
X151785000Y-110129000D02*
X151785000Y-102001000D01*
X156432000Y-111760000D02*
X153416000Y-111760000D01*
X156464000Y-111792000D02*
X156432000Y-111760000D01*
D21*
X153416000Y-111792000D02*
X153384000Y-111760000D01*
X156464000Y-111792000D02*
X153416000Y-111792000D01*
D20*
X153416000Y-111760000D02*
X151785000Y-110129000D01*
%TO.N,/MCU/USART1.CTS*%
X151384000Y-113792000D02*
X151384000Y-102923000D01*
X153416000Y-115824000D02*
X151384000Y-113792000D01*
X156464000Y-115824000D02*
X153416000Y-115824000D01*
%TO.N,/MCU/USART1.TX*%
X137288000Y-96025000D02*
X137160000Y-95897000D01*
X138794057Y-96024000D02*
X138793057Y-96025000D01*
X139291943Y-96024000D02*
X138794057Y-96024000D01*
X139292943Y-96025000D02*
X139291943Y-96024000D01*
X138793057Y-96025000D02*
X137288000Y-96025000D01*
X144674800Y-96025000D02*
X139292943Y-96025000D01*
X150983000Y-102333200D02*
X144674800Y-96025000D01*
X153416000Y-117856000D02*
X150983000Y-115423000D01*
X156464000Y-117856000D02*
X153416000Y-117856000D01*
X137160000Y-95897000D02*
X137033000Y-95897000D01*
X150983000Y-115423000D02*
X150983000Y-102333200D01*
%TO.N,/MCU/USART1.RX*%
X144707700Y-96625000D02*
X139043000Y-96625000D01*
X150582000Y-117308000D02*
X150582000Y-102499300D01*
X153162000Y-119888000D02*
X150582000Y-117308000D01*
X156464000Y-119888000D02*
X153162000Y-119888000D01*
X150582000Y-102499300D02*
X144707700Y-96625000D01*
D21*
%TO.N,GND*%
X118383000Y-97256000D02*
X118396000Y-97269000D01*
X115538000Y-97256000D02*
X118383000Y-97256000D01*
X111043000Y-98806000D02*
X111030000Y-98793000D01*
X111982000Y-98806000D02*
X111043000Y-98806000D01*
%TO.N,Net-(U4-VDDA)*%
X113760000Y-98793000D02*
X118396000Y-98793000D01*
%TO.N,+3V3*%
X110789000Y-97256000D02*
X110776000Y-97269000D01*
X113722000Y-97256000D02*
X113760000Y-97218000D01*
X111982000Y-97256000D02*
X113722000Y-97256000D01*
X111982000Y-97256000D02*
X110789000Y-97256000D01*
D22*
%TO.N,+5V*%
X181610000Y-131953000D02*
X181610000Y-106934000D01*
D20*
%TO.N,/MCU/NRST*%
X124968000Y-85852000D02*
X124968000Y-95758000D01*
D22*
%TO.N,+12V*%
X200225500Y-109502000D02*
X200225500Y-134800500D01*
D20*
%TO.N,/Connectors/USART6.TX*%
X127000000Y-105664000D02*
X127000000Y-98408003D01*
X127000000Y-98408003D02*
X127038003Y-98370000D01*
%TO.N,/Connectors/USART6.RX*%
X125730000Y-97790000D02*
X125730000Y-105639737D01*
X125730000Y-105639737D02*
X125742132Y-105651869D01*
D21*
%TO.N,/Connectors/ROT1_SIG*%
X106121054Y-101561997D02*
X106083051Y-101600000D01*
D20*
X113030000Y-101561997D02*
X106121054Y-101561997D01*
%TO.N,/Connectors/ROT2_SIG*%
X113030000Y-102362000D02*
X103583051Y-102362000D01*
%TO.N,/Connectors/ACC_SIG*%
X116332000Y-116332000D02*
X116332000Y-101169356D01*
X120650000Y-120650000D02*
X116332000Y-116332000D01*
X123265400Y-120650000D02*
X120650000Y-120650000D01*
X116332000Y-101169356D02*
X116269644Y-101107000D01*
%TO.N,/Connectors/SYS.JTCK*%
X129794000Y-87376000D02*
X128270000Y-85852000D01*
X129787459Y-92188367D02*
X129794000Y-92181826D01*
X129794000Y-92181826D02*
X129794000Y-87376000D01*
%TO.N,/Connectors/USART3.TX*%
X123979292Y-93285168D02*
X124004124Y-93310000D01*
X123979292Y-85852000D02*
X123979292Y-93285168D01*
%TO.N,/Connectors/SYS.JTMS*%
X129315550Y-85822450D02*
X130395000Y-86901900D01*
X130395000Y-86901900D02*
X130395000Y-93630775D01*
X130395000Y-93630775D02*
X130285469Y-93740306D01*
%TO.N,/Connectors/USART3.RX*%
X123297000Y-92603000D02*
X123297000Y-84943000D01*
X121158000Y-82804000D02*
X121158000Y-76962000D01*
X123297000Y-84943000D02*
X121158000Y-82804000D01*
%TO.N,/Connectors/SYS.JTDO*%
X125984000Y-85852000D02*
X126492000Y-86360000D01*
X126492000Y-86360000D02*
X126492000Y-91948000D01*
%TO.N,/Connectors/SYS.JTDI*%
X125222000Y-84074000D02*
X128988667Y-87840667D01*
X128988667Y-87840667D02*
X128988667Y-92232372D01*
%TO.N,/MCU/USART1.CTS*%
X144113900Y-94897000D02*
X151384000Y-102167100D01*
X139446000Y-94897000D02*
X144113900Y-94897000D01*
X151384000Y-102167100D02*
X151384000Y-103124000D01*
%TO.N,/MCU/~{DATA_IND}*%
X123399885Y-105816485D02*
X123339185Y-105877185D01*
%TD*%
%TA.AperFunction,Conductor*%
%TO.N,GND*%
G36*
X229952702Y-71374617D02*
G01*
X230358212Y-71392322D01*
X230368947Y-71393262D01*
X230768688Y-71445889D01*
X230779315Y-71447762D01*
X231172958Y-71535031D01*
X231183370Y-71537820D01*
X231567911Y-71659066D01*
X231578046Y-71662755D01*
X231950542Y-71817048D01*
X231960334Y-71821614D01*
X232317965Y-72007785D01*
X232327305Y-72013178D01*
X232474493Y-72106947D01*
X232667336Y-72229802D01*
X232676197Y-72236006D01*
X232996056Y-72481442D01*
X233004343Y-72488396D01*
X233301583Y-72760767D01*
X233309232Y-72768416D01*
X233581603Y-73065656D01*
X233588557Y-73073943D01*
X233833993Y-73393802D01*
X233840197Y-73402663D01*
X234056813Y-73742680D01*
X234062218Y-73752042D01*
X234179445Y-73977232D01*
X234248382Y-74109659D01*
X234252954Y-74119463D01*
X234407238Y-74491938D01*
X234410938Y-74502103D01*
X234532173Y-74886610D01*
X234534973Y-74897060D01*
X234622234Y-75290672D01*
X234624112Y-75301325D01*
X234676735Y-75701032D01*
X234677678Y-75711808D01*
X234695382Y-76117297D01*
X234695500Y-76122706D01*
X234695500Y-132157293D01*
X234695382Y-132162702D01*
X234677678Y-132568191D01*
X234676735Y-132578967D01*
X234624112Y-132978674D01*
X234622234Y-132989327D01*
X234534973Y-133382939D01*
X234532173Y-133393389D01*
X234410938Y-133777896D01*
X234407238Y-133788061D01*
X234252954Y-134160536D01*
X234248382Y-134170340D01*
X234062222Y-134527951D01*
X234056813Y-134537319D01*
X233840197Y-134877336D01*
X233833993Y-134886197D01*
X233588557Y-135206056D01*
X233581603Y-135214343D01*
X233309232Y-135511583D01*
X233301583Y-135519232D01*
X233004343Y-135791603D01*
X232996056Y-135798557D01*
X232676197Y-136043993D01*
X232667336Y-136050197D01*
X232327319Y-136266813D01*
X232317951Y-136272222D01*
X231960340Y-136458382D01*
X231950536Y-136462954D01*
X231578061Y-136617238D01*
X231567896Y-136620938D01*
X231183389Y-136742173D01*
X231172939Y-136744973D01*
X230779327Y-136832234D01*
X230768674Y-136834112D01*
X230368967Y-136886735D01*
X230358191Y-136887678D01*
X229952703Y-136905382D01*
X229947294Y-136905500D01*
X85012706Y-136905500D01*
X85007297Y-136905382D01*
X84601808Y-136887678D01*
X84591032Y-136886735D01*
X84191325Y-136834112D01*
X84180672Y-136832234D01*
X83924740Y-136775495D01*
X83787057Y-136744972D01*
X83776614Y-136742174D01*
X83392101Y-136620937D01*
X83381938Y-136617238D01*
X83009463Y-136462954D01*
X82999659Y-136458382D01*
X82816556Y-136363065D01*
X82642042Y-136272218D01*
X82632686Y-136266817D01*
X82420513Y-136131647D01*
X82292663Y-136050197D01*
X82283802Y-136043993D01*
X81963943Y-135798557D01*
X81955656Y-135791603D01*
X81658416Y-135519232D01*
X81650767Y-135511583D01*
X81378396Y-135214343D01*
X81371442Y-135206056D01*
X81126006Y-134886197D01*
X81119802Y-134877336D01*
X80998827Y-134687444D01*
X80903178Y-134537305D01*
X80897785Y-134527965D01*
X80711614Y-134170334D01*
X80707045Y-134160536D01*
X80552755Y-133788046D01*
X80549066Y-133777911D01*
X80427820Y-133393370D01*
X80425031Y-133382958D01*
X80337762Y-132989315D01*
X80335889Y-132978688D01*
X80283262Y-132578947D01*
X80282322Y-132568210D01*
X80264618Y-132162701D01*
X80264500Y-132157293D01*
X80264500Y-131978231D01*
X80804500Y-131978231D01*
X80804500Y-132049242D01*
X80804500Y-132341769D01*
X80806356Y-132379547D01*
X80806934Y-132391320D01*
X80842564Y-132753079D01*
X80842569Y-132753118D01*
X80849844Y-132802169D01*
X80849845Y-132802174D01*
X80920771Y-133158741D01*
X80920774Y-133158755D01*
X80932813Y-133206813D01*
X80932820Y-133206841D01*
X80932823Y-133206850D01*
X81038353Y-133554735D01*
X81045705Y-133575282D01*
X81055064Y-133601441D01*
X81194167Y-133937266D01*
X81194186Y-133937311D01*
X81215402Y-133982167D01*
X81386762Y-134302759D01*
X81386767Y-134302767D01*
X81412270Y-134345317D01*
X81412277Y-134345327D01*
X81614229Y-134647571D01*
X81614240Y-134647586D01*
X81643791Y-134687431D01*
X81727028Y-134788856D01*
X81874401Y-134968431D01*
X81874427Y-134968461D01*
X81907733Y-135005208D01*
X82164791Y-135262266D01*
X82200238Y-135294394D01*
X82201549Y-135295582D01*
X82201559Y-135295590D01*
X82201568Y-135295598D01*
X82297757Y-135374538D01*
X82482569Y-135526209D01*
X82522413Y-135555759D01*
X82522428Y-135555770D01*
X82824672Y-135757722D01*
X82824682Y-135757729D01*
X82867232Y-135783232D01*
X82867240Y-135783237D01*
X82895902Y-135798557D01*
X83187847Y-135954605D01*
X83232692Y-135975815D01*
X83568558Y-136114935D01*
X83615265Y-136131647D01*
X83963150Y-136237177D01*
X83963186Y-136237186D01*
X84011244Y-136249225D01*
X84011258Y-136249228D01*
X84011262Y-136249228D01*
X84011271Y-136249231D01*
X84367825Y-136320154D01*
X84367830Y-136320155D01*
X84378553Y-136321745D01*
X84416895Y-136327433D01*
X84778683Y-136363066D01*
X84828231Y-136365500D01*
X84828243Y-136365500D01*
X85191757Y-136365500D01*
X85191769Y-136365500D01*
X85241317Y-136363066D01*
X85603105Y-136327433D01*
X85647603Y-136320832D01*
X85652169Y-136320155D01*
X85652171Y-136320154D01*
X85652175Y-136320154D01*
X86008729Y-136249231D01*
X86008741Y-136249228D01*
X86008755Y-136249225D01*
X86040307Y-136241320D01*
X86056850Y-136237177D01*
X86404735Y-136131647D01*
X86451442Y-136114935D01*
X86787308Y-135975815D01*
X86832153Y-135954605D01*
X87152765Y-135783234D01*
X87195315Y-135757731D01*
X87497586Y-135555760D01*
X87537431Y-135526209D01*
X87818451Y-135295582D01*
X87855207Y-135262267D01*
X87855208Y-135262266D01*
X87855216Y-135262259D01*
X88112259Y-135005216D01*
X88112266Y-135005208D01*
X88112267Y-135005207D01*
X88145582Y-134968451D01*
X88376209Y-134687431D01*
X88405760Y-134647586D01*
X88607731Y-134345315D01*
X88633234Y-134302765D01*
X88804605Y-133982153D01*
X88825815Y-133937308D01*
X88964935Y-133601442D01*
X88981647Y-133554735D01*
X89087177Y-133206850D01*
X89091320Y-133190307D01*
X89099225Y-133158755D01*
X89099228Y-133158741D01*
X89099228Y-133158740D01*
X89099231Y-133158729D01*
X89170154Y-132802175D01*
X89177433Y-132753105D01*
X89213066Y-132391317D01*
X89215500Y-132341769D01*
X89215500Y-131978231D01*
X89213066Y-131928683D01*
X89177433Y-131566895D01*
X89170154Y-131517825D01*
X89099231Y-131161271D01*
X89099228Y-131161258D01*
X89099225Y-131161244D01*
X89087186Y-131113186D01*
X89087177Y-131113150D01*
X88981647Y-130765265D01*
X88964935Y-130718558D01*
X88825815Y-130382692D01*
X88804605Y-130337847D01*
X88633234Y-130017235D01*
X88607731Y-129974685D01*
X88541677Y-129875829D01*
X88405770Y-129672428D01*
X88405759Y-129672413D01*
X88376209Y-129632569D01*
X88145582Y-129351549D01*
X88144394Y-129350238D01*
X88112266Y-129314791D01*
X87855208Y-129057733D01*
X87818461Y-129024427D01*
X87818431Y-129024401D01*
X87537444Y-128793802D01*
X87537431Y-128793791D01*
X87497586Y-128764240D01*
X87497571Y-128764229D01*
X87195327Y-128562277D01*
X87195317Y-128562270D01*
X87152767Y-128536767D01*
X87152759Y-128536762D01*
X86832167Y-128365402D01*
X86832159Y-128365398D01*
X86832153Y-128365395D01*
X86810874Y-128355330D01*
X86787311Y-128344186D01*
X86787266Y-128344167D01*
X86451441Y-128205064D01*
X86425282Y-128195705D01*
X86404735Y-128188353D01*
X86056850Y-128082823D01*
X86056841Y-128082820D01*
X86056813Y-128082813D01*
X86008755Y-128070774D01*
X86008741Y-128070771D01*
X85652174Y-127999845D01*
X85652169Y-127999844D01*
X85603118Y-127992569D01*
X85603121Y-127992569D01*
X85603105Y-127992567D01*
X85603093Y-127992565D01*
X85603079Y-127992564D01*
X85241318Y-127956934D01*
X85241322Y-127956934D01*
X85226744Y-127956218D01*
X85191769Y-127954500D01*
X84828231Y-127954500D01*
X84791070Y-127956325D01*
X84778679Y-127956934D01*
X84416920Y-127992564D01*
X84416901Y-127992566D01*
X84416895Y-127992567D01*
X84416884Y-127992568D01*
X84416881Y-127992569D01*
X84367830Y-127999844D01*
X84367825Y-127999845D01*
X84011258Y-128070771D01*
X84011244Y-128070774D01*
X83963186Y-128082813D01*
X83963157Y-128082821D01*
X83615271Y-128188351D01*
X83568558Y-128205064D01*
X83232733Y-128344167D01*
X83232688Y-128344186D01*
X83187832Y-128365402D01*
X82867240Y-128536762D01*
X82867232Y-128536767D01*
X82824682Y-128562270D01*
X82824672Y-128562277D01*
X82522428Y-128764229D01*
X82522413Y-128764240D01*
X82482582Y-128793781D01*
X82482555Y-128793802D01*
X82201568Y-129024401D01*
X82201538Y-129024427D01*
X82164791Y-129057733D01*
X82164784Y-129057741D01*
X81907741Y-129314784D01*
X81907733Y-129314791D01*
X81874427Y-129351538D01*
X81874401Y-129351568D01*
X81643802Y-129632555D01*
X81643781Y-129632582D01*
X81614240Y-129672413D01*
X81614229Y-129672428D01*
X81412277Y-129974672D01*
X81412270Y-129974682D01*
X81386767Y-130017232D01*
X81386762Y-130017240D01*
X81215402Y-130337832D01*
X81194186Y-130382688D01*
X81194167Y-130382733D01*
X81055064Y-130718558D01*
X81038351Y-130765271D01*
X80932821Y-131113157D01*
X80932813Y-131113186D01*
X80920774Y-131161244D01*
X80920771Y-131161258D01*
X80849845Y-131517825D01*
X80849844Y-131517830D01*
X80842569Y-131566881D01*
X80842564Y-131566920D01*
X80813274Y-131864309D01*
X80806934Y-131928683D01*
X80804500Y-131978231D01*
X80264500Y-131978231D01*
X80264500Y-121713153D01*
X155663500Y-121713153D01*
X155663500Y-121870846D01*
X155694261Y-122025489D01*
X155694264Y-122025501D01*
X155754602Y-122171172D01*
X155754609Y-122171185D01*
X155842210Y-122302288D01*
X155842213Y-122302292D01*
X155953707Y-122413786D01*
X155953711Y-122413789D01*
X156084814Y-122501390D01*
X156084827Y-122501397D01*
X156230498Y-122561735D01*
X156230503Y-122561737D01*
X156385153Y-122592499D01*
X156385156Y-122592500D01*
X156385158Y-122592500D01*
X156542844Y-122592500D01*
X156542845Y-122592499D01*
X156697497Y-122561737D01*
X156843179Y-122501394D01*
X156974289Y-122413789D01*
X157085789Y-122302289D01*
X157173394Y-122171179D01*
X157233737Y-122025497D01*
X157264500Y-121870842D01*
X157264500Y-121713158D01*
X157264500Y-121713155D01*
X157264499Y-121713153D01*
X157233737Y-121558503D01*
X157224907Y-121537185D01*
X157173397Y-121412827D01*
X157173390Y-121412814D01*
X157085789Y-121281711D01*
X157085786Y-121281707D01*
X156974295Y-121170216D01*
X156974287Y-121170210D01*
X156974285Y-121170208D01*
X156843185Y-121082609D01*
X156843172Y-121082602D01*
X156834845Y-121079153D01*
X160489500Y-121079153D01*
X160489500Y-121236846D01*
X160520261Y-121391489D01*
X160520264Y-121391501D01*
X160580602Y-121537172D01*
X160580609Y-121537185D01*
X160668210Y-121668288D01*
X160668213Y-121668292D01*
X160779707Y-121779786D01*
X160779711Y-121779789D01*
X160910814Y-121867390D01*
X160910827Y-121867397D01*
X161056498Y-121927735D01*
X161056503Y-121927737D01*
X161211153Y-121958499D01*
X161211156Y-121958500D01*
X161211158Y-121958500D01*
X161368844Y-121958500D01*
X161368845Y-121958499D01*
X161523497Y-121927737D01*
X161669179Y-121867394D01*
X161800289Y-121779789D01*
X161911789Y-121668289D01*
X161999394Y-121537179D01*
X162059737Y-121391497D01*
X162090500Y-121236842D01*
X162090500Y-121079158D01*
X162090500Y-121079155D01*
X162090499Y-121079153D01*
X162077616Y-121014385D01*
X162059737Y-120924503D01*
X162042749Y-120883489D01*
X161999397Y-120778827D01*
X161999390Y-120778814D01*
X161911789Y-120647711D01*
X161911786Y-120647707D01*
X161800292Y-120536213D01*
X161800288Y-120536210D01*
X161669185Y-120448609D01*
X161669172Y-120448602D01*
X161523501Y-120388264D01*
X161523489Y-120388261D01*
X161368845Y-120357500D01*
X161368842Y-120357500D01*
X161211158Y-120357500D01*
X161211155Y-120357500D01*
X161056510Y-120388261D01*
X161056498Y-120388264D01*
X160910827Y-120448602D01*
X160910814Y-120448609D01*
X160779711Y-120536210D01*
X160779707Y-120536213D01*
X160668213Y-120647707D01*
X160668210Y-120647711D01*
X160580609Y-120778814D01*
X160580602Y-120778827D01*
X160520264Y-120924498D01*
X160520261Y-120924510D01*
X160489500Y-121079153D01*
X156834845Y-121079153D01*
X156697501Y-121022264D01*
X156697489Y-121022261D01*
X156542845Y-120991500D01*
X156542842Y-120991500D01*
X156385158Y-120991500D01*
X156385155Y-120991500D01*
X156230510Y-121022261D01*
X156230498Y-121022264D01*
X156084827Y-121082602D01*
X156084814Y-121082609D01*
X155953711Y-121170210D01*
X155953707Y-121170213D01*
X155842213Y-121281707D01*
X155842210Y-121281711D01*
X155754609Y-121412814D01*
X155754602Y-121412827D01*
X155694264Y-121558498D01*
X155694261Y-121558510D01*
X155663500Y-121713153D01*
X80264500Y-121713153D01*
X80264500Y-102283153D01*
X102782551Y-102283153D01*
X102782551Y-102440846D01*
X102813312Y-102595489D01*
X102813315Y-102595501D01*
X102873653Y-102741172D01*
X102873660Y-102741185D01*
X102961261Y-102872288D01*
X102961264Y-102872292D01*
X103072758Y-102983786D01*
X103072762Y-102983789D01*
X103203865Y-103071390D01*
X103203878Y-103071397D01*
X103349549Y-103131735D01*
X103349554Y-103131737D01*
X103504204Y-103162499D01*
X103504207Y-103162500D01*
X103504209Y-103162500D01*
X103661895Y-103162500D01*
X103661896Y-103162499D01*
X103816548Y-103131737D01*
X103962230Y-103071394D01*
X103962236Y-103071390D01*
X104093926Y-102983398D01*
X104160604Y-102962520D01*
X104162817Y-102962500D01*
X112450234Y-102962500D01*
X112517273Y-102982185D01*
X112519125Y-102983398D01*
X112650814Y-103071390D01*
X112650827Y-103071397D01*
X112796498Y-103131735D01*
X112796503Y-103131737D01*
X112951153Y-103162499D01*
X112951156Y-103162500D01*
X112951158Y-103162500D01*
X113108844Y-103162500D01*
X113108845Y-103162499D01*
X113263497Y-103131737D01*
X113409179Y-103071394D01*
X113540289Y-102983789D01*
X113651789Y-102872289D01*
X113739394Y-102741179D01*
X113799737Y-102595497D01*
X113830500Y-102440842D01*
X113830500Y-102283158D01*
X113830500Y-102283155D01*
X113830499Y-102283153D01*
X113799738Y-102128510D01*
X113799737Y-102128503D01*
X113750423Y-102009449D01*
X113742955Y-101939981D01*
X113750421Y-101914551D01*
X113799737Y-101795494D01*
X113830500Y-101640839D01*
X113830500Y-101483155D01*
X113830500Y-101483152D01*
X113830499Y-101483150D01*
X113799737Y-101328500D01*
X113755138Y-101220827D01*
X113739397Y-101182824D01*
X113739390Y-101182811D01*
X113678015Y-101090957D01*
X113651789Y-101051708D01*
X113651786Y-101051704D01*
X113628235Y-101028153D01*
X115469144Y-101028153D01*
X115469144Y-101185846D01*
X115499905Y-101340489D01*
X115499908Y-101340501D01*
X115560246Y-101486172D01*
X115560253Y-101486185D01*
X115647854Y-101617288D01*
X115647857Y-101617292D01*
X115695180Y-101664614D01*
X115728666Y-101725937D01*
X115731500Y-101752296D01*
X115731500Y-116245330D01*
X115731499Y-116245348D01*
X115731499Y-116411054D01*
X115731498Y-116411054D01*
X115772423Y-116563785D01*
X115789716Y-116593737D01*
X115789715Y-116593737D01*
X115789716Y-116593738D01*
X115851475Y-116700709D01*
X115851481Y-116700717D01*
X115970349Y-116819585D01*
X115970355Y-116819590D01*
X120165139Y-121014374D01*
X120165149Y-121014385D01*
X120169479Y-121018715D01*
X120169480Y-121018716D01*
X120281284Y-121130520D01*
X120368095Y-121180639D01*
X120368097Y-121180641D01*
X120406151Y-121202611D01*
X120418215Y-121209577D01*
X120570943Y-121250500D01*
X122685634Y-121250500D01*
X122752673Y-121270185D01*
X122754525Y-121271398D01*
X122886214Y-121359390D01*
X122886227Y-121359397D01*
X123031898Y-121419735D01*
X123031903Y-121419737D01*
X123186553Y-121450499D01*
X123186556Y-121450500D01*
X123186558Y-121450500D01*
X123344244Y-121450500D01*
X123344245Y-121450499D01*
X123498897Y-121419737D01*
X123644579Y-121359394D01*
X123775689Y-121271789D01*
X123887189Y-121160289D01*
X123974794Y-121029179D01*
X124035137Y-120883497D01*
X124065900Y-120728842D01*
X124065900Y-120571158D01*
X124065900Y-120571155D01*
X124065899Y-120571153D01*
X124058949Y-120536213D01*
X124035137Y-120416503D01*
X124015262Y-120368520D01*
X123974797Y-120270827D01*
X123974790Y-120270814D01*
X123887189Y-120139711D01*
X123887186Y-120139707D01*
X123775692Y-120028213D01*
X123775688Y-120028210D01*
X123644585Y-119940609D01*
X123644572Y-119940602D01*
X123498901Y-119880264D01*
X123498889Y-119880261D01*
X123344245Y-119849500D01*
X123344242Y-119849500D01*
X123186558Y-119849500D01*
X123186555Y-119849500D01*
X123031910Y-119880261D01*
X123031898Y-119880264D01*
X122886227Y-119940602D01*
X122886214Y-119940609D01*
X122754525Y-120028602D01*
X122687847Y-120049480D01*
X122685634Y-120049500D01*
X120950097Y-120049500D01*
X120883058Y-120029815D01*
X120862416Y-120013181D01*
X116968819Y-116119584D01*
X116935334Y-116058261D01*
X116932500Y-116031903D01*
X116932500Y-105331153D01*
X121627500Y-105331153D01*
X121627500Y-105488846D01*
X121658261Y-105643489D01*
X121658264Y-105643501D01*
X121718602Y-105789172D01*
X121718609Y-105789185D01*
X121806210Y-105920288D01*
X121806213Y-105920292D01*
X121917707Y-106031786D01*
X121917711Y-106031789D01*
X122048814Y-106119390D01*
X122048827Y-106119397D01*
X122194498Y-106179735D01*
X122194503Y-106179737D01*
X122346157Y-106209903D01*
X122349153Y-106210499D01*
X122349156Y-106210500D01*
X122349158Y-106210500D01*
X122506843Y-106210500D01*
X122507044Y-106210460D01*
X122507152Y-106210469D01*
X122512907Y-106209903D01*
X122513014Y-106210993D01*
X122576636Y-106216681D01*
X122631817Y-106259540D01*
X122634347Y-106263184D01*
X122717395Y-106387473D01*
X122717398Y-106387477D01*
X122828892Y-106498971D01*
X122828896Y-106498974D01*
X122959999Y-106586575D01*
X122960012Y-106586582D01*
X123092598Y-106641500D01*
X123105688Y-106646922D01*
X123228405Y-106671332D01*
X123260338Y-106677684D01*
X123260341Y-106677685D01*
X123260343Y-106677685D01*
X123418029Y-106677685D01*
X123418030Y-106677684D01*
X123572682Y-106646922D01*
X123718364Y-106586579D01*
X123849474Y-106498974D01*
X123960974Y-106387474D01*
X124048579Y-106256364D01*
X124108922Y-106110682D01*
X124139685Y-105956027D01*
X124139685Y-105798343D01*
X124139685Y-105798340D01*
X124139684Y-105798338D01*
X124137861Y-105789172D01*
X124108922Y-105643688D01*
X124108840Y-105643489D01*
X124048582Y-105498012D01*
X124048575Y-105497999D01*
X123960974Y-105366896D01*
X123960971Y-105366892D01*
X123849477Y-105255398D01*
X123849473Y-105255395D01*
X123718370Y-105167794D01*
X123718357Y-105167787D01*
X123572686Y-105107449D01*
X123572674Y-105107446D01*
X123418030Y-105076685D01*
X123418027Y-105076685D01*
X123260343Y-105076685D01*
X123260338Y-105076685D01*
X123260114Y-105076730D01*
X123259994Y-105076719D01*
X123254280Y-105077282D01*
X123254173Y-105076197D01*
X123190523Y-105070493D01*
X123135352Y-105027622D01*
X123132837Y-105024000D01*
X123049789Y-104899711D01*
X123049786Y-104899707D01*
X122938292Y-104788213D01*
X122938288Y-104788210D01*
X122807185Y-104700609D01*
X122807172Y-104700602D01*
X122661501Y-104640264D01*
X122661489Y-104640261D01*
X122506845Y-104609500D01*
X122506842Y-104609500D01*
X122349158Y-104609500D01*
X122349155Y-104609500D01*
X122194510Y-104640261D01*
X122194498Y-104640264D01*
X122048827Y-104700602D01*
X122048814Y-104700609D01*
X121917711Y-104788210D01*
X121917707Y-104788213D01*
X121806213Y-104899707D01*
X121806210Y-104899711D01*
X121718609Y-105030814D01*
X121718602Y-105030827D01*
X121658264Y-105176498D01*
X121658261Y-105176510D01*
X121627500Y-105331153D01*
X116932500Y-105331153D01*
X116932500Y-101593442D01*
X116952185Y-101526403D01*
X116953398Y-101524551D01*
X116955665Y-101521158D01*
X116979038Y-101486179D01*
X117039381Y-101340497D01*
X117070144Y-101185842D01*
X117070144Y-101028158D01*
X117070144Y-101028155D01*
X117070143Y-101028153D01*
X117056849Y-100961319D01*
X117039381Y-100873503D01*
X117021470Y-100830261D01*
X116979041Y-100727827D01*
X116979034Y-100727814D01*
X116891433Y-100596711D01*
X116891430Y-100596707D01*
X116779936Y-100485213D01*
X116779932Y-100485210D01*
X116648829Y-100397609D01*
X116648816Y-100397602D01*
X116503145Y-100337264D01*
X116503133Y-100337261D01*
X116348489Y-100306500D01*
X116348486Y-100306500D01*
X116190802Y-100306500D01*
X116190799Y-100306500D01*
X116036154Y-100337261D01*
X116036142Y-100337264D01*
X115890471Y-100397602D01*
X115890458Y-100397609D01*
X115759355Y-100485210D01*
X115759351Y-100485213D01*
X115647857Y-100596707D01*
X115647854Y-100596711D01*
X115560253Y-100727814D01*
X115560246Y-100727827D01*
X115499908Y-100873498D01*
X115499905Y-100873510D01*
X115469144Y-101028153D01*
X113628235Y-101028153D01*
X113540292Y-100940210D01*
X113540288Y-100940207D01*
X113409185Y-100852606D01*
X113409172Y-100852599D01*
X113263501Y-100792261D01*
X113263489Y-100792258D01*
X113108845Y-100761497D01*
X113108842Y-100761497D01*
X112951158Y-100761497D01*
X112951155Y-100761497D01*
X112796510Y-100792258D01*
X112796498Y-100792261D01*
X112650827Y-100852599D01*
X112650814Y-100852606D01*
X112519125Y-100940599D01*
X112452447Y-100961477D01*
X112450234Y-100961497D01*
X109475239Y-100961497D01*
X109408200Y-100941812D01*
X109362445Y-100889008D01*
X109352501Y-100819850D01*
X109353622Y-100813305D01*
X109383551Y-100662844D01*
X109383551Y-100505155D01*
X109383550Y-100505153D01*
X109362157Y-100397606D01*
X109352788Y-100350503D01*
X109347303Y-100337261D01*
X109292448Y-100204827D01*
X109292441Y-100204814D01*
X109204840Y-100073711D01*
X109204837Y-100073707D01*
X109093343Y-99962213D01*
X109093339Y-99962210D01*
X108962236Y-99874609D01*
X108962223Y-99874602D01*
X108816552Y-99814264D01*
X108816540Y-99814261D01*
X108661896Y-99783500D01*
X108661893Y-99783500D01*
X108504209Y-99783500D01*
X108504206Y-99783500D01*
X108349561Y-99814261D01*
X108349549Y-99814264D01*
X108203878Y-99874602D01*
X108203865Y-99874609D01*
X108072762Y-99962210D01*
X108072758Y-99962213D01*
X107961264Y-100073707D01*
X107961261Y-100073711D01*
X107873660Y-100204814D01*
X107873653Y-100204827D01*
X107813315Y-100350498D01*
X107813312Y-100350510D01*
X107782551Y-100505153D01*
X107782551Y-100505158D01*
X107782551Y-100662842D01*
X107782551Y-100662844D01*
X107782550Y-100662844D01*
X107812480Y-100813305D01*
X107806253Y-100882897D01*
X107763390Y-100938074D01*
X107697500Y-100961319D01*
X107690863Y-100961497D01*
X106605941Y-100961497D01*
X106538902Y-100941812D01*
X106537050Y-100940599D01*
X106462236Y-100890609D01*
X106462223Y-100890602D01*
X106316552Y-100830264D01*
X106316540Y-100830261D01*
X106161896Y-100799500D01*
X106161893Y-100799500D01*
X106004209Y-100799500D01*
X106004206Y-100799500D01*
X105849561Y-100830261D01*
X105849549Y-100830264D01*
X105703878Y-100890602D01*
X105703865Y-100890609D01*
X105572762Y-100978210D01*
X105572758Y-100978213D01*
X105461264Y-101089707D01*
X105461261Y-101089711D01*
X105373660Y-101220814D01*
X105373653Y-101220827D01*
X105313315Y-101366498D01*
X105313312Y-101366510D01*
X105282551Y-101521153D01*
X105282551Y-101637500D01*
X105262866Y-101704539D01*
X105210062Y-101750294D01*
X105158551Y-101761500D01*
X104162817Y-101761500D01*
X104095778Y-101741815D01*
X104093926Y-101740602D01*
X103962236Y-101652609D01*
X103962223Y-101652602D01*
X103816552Y-101592264D01*
X103816540Y-101592261D01*
X103661896Y-101561500D01*
X103661893Y-101561500D01*
X103504209Y-101561500D01*
X103504206Y-101561500D01*
X103349561Y-101592261D01*
X103349549Y-101592264D01*
X103203878Y-101652602D01*
X103203865Y-101652609D01*
X103072762Y-101740210D01*
X103072758Y-101740213D01*
X102961264Y-101851707D01*
X102961261Y-101851711D01*
X102873660Y-101982814D01*
X102873653Y-101982827D01*
X102813315Y-102128498D01*
X102813312Y-102128510D01*
X102782551Y-102283153D01*
X80264500Y-102283153D01*
X80264500Y-97190153D01*
X109975500Y-97190153D01*
X109975500Y-97347846D01*
X110006261Y-97502489D01*
X110006264Y-97502501D01*
X110066602Y-97648172D01*
X110066609Y-97648185D01*
X110154210Y-97779288D01*
X110154213Y-97779292D01*
X110265707Y-97890786D01*
X110265711Y-97890789D01*
X110396814Y-97978390D01*
X110396827Y-97978397D01*
X110519394Y-98029165D01*
X110542503Y-98038737D01*
X110697153Y-98069499D01*
X110697156Y-98069500D01*
X110697158Y-98069500D01*
X110854844Y-98069500D01*
X110854845Y-98069499D01*
X111009497Y-98038737D01*
X111112718Y-97995981D01*
X111182186Y-97988513D01*
X111244665Y-98019788D01*
X111247850Y-98022862D01*
X111278955Y-98053967D01*
X111278959Y-98053970D01*
X111423294Y-98142998D01*
X111423297Y-98142999D01*
X111423303Y-98143003D01*
X111584292Y-98196349D01*
X111683655Y-98206500D01*
X112280344Y-98206499D01*
X112280352Y-98206498D01*
X112280355Y-98206498D01*
X112334760Y-98200940D01*
X112379708Y-98196349D01*
X112540697Y-98143003D01*
X112685044Y-98053968D01*
X112703575Y-98035436D01*
X112764895Y-98001951D01*
X112834587Y-98006934D01*
X112890522Y-98048804D01*
X112914940Y-98114268D01*
X112900089Y-98182542D01*
X112896795Y-98188214D01*
X112847452Y-98268210D01*
X112847450Y-98268215D01*
X112820773Y-98348719D01*
X112794564Y-98427815D01*
X112794564Y-98427816D01*
X112794563Y-98427816D01*
X112784500Y-98526318D01*
X112784500Y-99059681D01*
X112794563Y-99158183D01*
X112847450Y-99317784D01*
X112847455Y-99317795D01*
X112935716Y-99460887D01*
X112935719Y-99460891D01*
X113054608Y-99579780D01*
X113054612Y-99579783D01*
X113197704Y-99668044D01*
X113197707Y-99668045D01*
X113197713Y-99668049D01*
X113357315Y-99720936D01*
X113455826Y-99731000D01*
X113455831Y-99731000D01*
X114064169Y-99731000D01*
X114064174Y-99731000D01*
X114162685Y-99720936D01*
X114322287Y-99668049D01*
X114465391Y-99579781D01*
X114550401Y-99494770D01*
X114611720Y-99461288D01*
X114681412Y-99466272D01*
X114725760Y-99494772D01*
X114834956Y-99603968D01*
X114834958Y-99603969D01*
X114834959Y-99603970D01*
X114979294Y-99692998D01*
X114979297Y-99692999D01*
X114979303Y-99693003D01*
X115140292Y-99746349D01*
X115239655Y-99756500D01*
X115836344Y-99756499D01*
X115836352Y-99756498D01*
X115836355Y-99756498D01*
X115890760Y-99750940D01*
X115935708Y-99746349D01*
X116096697Y-99693003D01*
X116241044Y-99603968D01*
X116339319Y-99505693D01*
X116400642Y-99472208D01*
X116470334Y-99477192D01*
X116514681Y-99505693D01*
X116612955Y-99603967D01*
X116612959Y-99603970D01*
X116757294Y-99692998D01*
X116757297Y-99692999D01*
X116757303Y-99693003D01*
X116918292Y-99746349D01*
X117017655Y-99756500D01*
X117614344Y-99756499D01*
X117614352Y-99756498D01*
X117614355Y-99756498D01*
X117668760Y-99750940D01*
X117713708Y-99746349D01*
X117874697Y-99693003D01*
X118019044Y-99603968D01*
X118031626Y-99591385D01*
X118092946Y-99557897D01*
X118156239Y-99562420D01*
X118156680Y-99560970D01*
X118162499Y-99562735D01*
X118162503Y-99562737D01*
X118162507Y-99562737D01*
X118162511Y-99562739D01*
X118317153Y-99593499D01*
X118317156Y-99593500D01*
X118317158Y-99593500D01*
X118474844Y-99593500D01*
X118474845Y-99593499D01*
X118629497Y-99562737D01*
X118742166Y-99516067D01*
X118775172Y-99502397D01*
X118775172Y-99502396D01*
X118775179Y-99502394D01*
X118906289Y-99414789D01*
X119017789Y-99303289D01*
X119105394Y-99172179D01*
X119111191Y-99158185D01*
X119151992Y-99059681D01*
X119165737Y-99026497D01*
X119196500Y-98871842D01*
X119196500Y-98714158D01*
X119196500Y-98714155D01*
X119196499Y-98714153D01*
X119165738Y-98559510D01*
X119165737Y-98559503D01*
X119151995Y-98526326D01*
X119105397Y-98413827D01*
X119105390Y-98413814D01*
X119017789Y-98282711D01*
X119017786Y-98282707D01*
X118906292Y-98171213D01*
X118906288Y-98171210D01*
X118775185Y-98083609D01*
X118775172Y-98083602D01*
X118629501Y-98023264D01*
X118629489Y-98023261D01*
X118474845Y-97992500D01*
X118474842Y-97992500D01*
X118317158Y-97992500D01*
X118317155Y-97992500D01*
X118162506Y-98023261D01*
X118162497Y-98023264D01*
X118148250Y-98029165D01*
X118078781Y-98036629D01*
X118023894Y-98011867D01*
X118019040Y-98008029D01*
X117874705Y-97919001D01*
X117874699Y-97918998D01*
X117874697Y-97918997D01*
X117871136Y-97917817D01*
X117713709Y-97865651D01*
X117614346Y-97855500D01*
X117017662Y-97855500D01*
X117017644Y-97855501D01*
X116918292Y-97865650D01*
X116918289Y-97865651D01*
X116757305Y-97918996D01*
X116757294Y-97919001D01*
X116612959Y-98008029D01*
X116514681Y-98106307D01*
X116453358Y-98139791D01*
X116383666Y-98134807D01*
X116339319Y-98106307D01*
X116293831Y-98060819D01*
X116241044Y-98008032D01*
X116241041Y-98008030D01*
X116241040Y-98008029D01*
X116096705Y-97919001D01*
X116096699Y-97918998D01*
X116096697Y-97918997D01*
X116093136Y-97917817D01*
X115935709Y-97865651D01*
X115836346Y-97855500D01*
X115239662Y-97855500D01*
X115239644Y-97855501D01*
X115140292Y-97865650D01*
X115140289Y-97865651D01*
X114979305Y-97918996D01*
X114979294Y-97919001D01*
X114834959Y-98008029D01*
X114738761Y-98104227D01*
X114730814Y-98108565D01*
X114725390Y-98115812D01*
X114700630Y-98125046D01*
X114677437Y-98137711D01*
X114668408Y-98137065D01*
X114659926Y-98140229D01*
X114634105Y-98134612D01*
X114607746Y-98132727D01*
X114598692Y-98126908D01*
X114591653Y-98125377D01*
X114563399Y-98104226D01*
X114552353Y-98093180D01*
X114518868Y-98031857D01*
X114523852Y-97962165D01*
X114552352Y-97917819D01*
X114584281Y-97885891D01*
X114672549Y-97742787D01*
X114683031Y-97711153D01*
X124929500Y-97711153D01*
X124929500Y-97868846D01*
X124960261Y-98023489D01*
X124960264Y-98023501D01*
X125020602Y-98169172D01*
X125020609Y-98169185D01*
X125108602Y-98300874D01*
X125129480Y-98367551D01*
X125129500Y-98369765D01*
X125129500Y-105090260D01*
X125109815Y-105157299D01*
X125108602Y-105159151D01*
X125032741Y-105272683D01*
X125032734Y-105272696D01*
X124972396Y-105418367D01*
X124972393Y-105418379D01*
X124941632Y-105573022D01*
X124941632Y-105730715D01*
X124972393Y-105885358D01*
X124972396Y-105885370D01*
X125032734Y-106031041D01*
X125032741Y-106031054D01*
X125120342Y-106162157D01*
X125120345Y-106162161D01*
X125231839Y-106273655D01*
X125231843Y-106273658D01*
X125362946Y-106361259D01*
X125362959Y-106361266D01*
X125508630Y-106421604D01*
X125508635Y-106421606D01*
X125663285Y-106452368D01*
X125663288Y-106452369D01*
X125663290Y-106452369D01*
X125820976Y-106452369D01*
X125820977Y-106452368D01*
X125975629Y-106421606D01*
X126121311Y-106361263D01*
X126252421Y-106273658D01*
X126277319Y-106248759D01*
X126338640Y-106215275D01*
X126408332Y-106220258D01*
X126452681Y-106248760D01*
X126489707Y-106285786D01*
X126489711Y-106285789D01*
X126620814Y-106373390D01*
X126620827Y-106373397D01*
X126737211Y-106421604D01*
X126766503Y-106433737D01*
X126921153Y-106464499D01*
X126921156Y-106464500D01*
X126921158Y-106464500D01*
X127078844Y-106464500D01*
X127078845Y-106464499D01*
X127233497Y-106433737D01*
X127379179Y-106373394D01*
X127510289Y-106285789D01*
X127621789Y-106174289D01*
X127709394Y-106043179D01*
X127769737Y-105897497D01*
X127800500Y-105742842D01*
X127800500Y-105585158D01*
X127800500Y-105585155D01*
X127800499Y-105585153D01*
X127769738Y-105430510D01*
X127769737Y-105430503D01*
X127752749Y-105389489D01*
X127709397Y-105284827D01*
X127709390Y-105284814D01*
X127621398Y-105153125D01*
X127615747Y-105135078D01*
X127605523Y-105119169D01*
X127601071Y-105088207D01*
X127600520Y-105086447D01*
X127600500Y-105084234D01*
X127600500Y-105077153D01*
X128739500Y-105077153D01*
X128739500Y-105234846D01*
X128770261Y-105389489D01*
X128770264Y-105389501D01*
X128830602Y-105535172D01*
X128830609Y-105535185D01*
X128918210Y-105666288D01*
X128918213Y-105666292D01*
X129029707Y-105777786D01*
X129029711Y-105777789D01*
X129160814Y-105865390D01*
X129160827Y-105865397D01*
X129306498Y-105925735D01*
X129306503Y-105925737D01*
X129458780Y-105956027D01*
X129461153Y-105956499D01*
X129461156Y-105956500D01*
X129461158Y-105956500D01*
X129618844Y-105956500D01*
X129618845Y-105956499D01*
X129773497Y-105925737D01*
X129919179Y-105865394D01*
X130050289Y-105777789D01*
X130161789Y-105666289D01*
X130249394Y-105535179D01*
X130309737Y-105389497D01*
X130340500Y-105234842D01*
X130340500Y-105077158D01*
X130340500Y-105077155D01*
X130340499Y-105077153D01*
X130331283Y-105030821D01*
X130309737Y-104922503D01*
X130254112Y-104788211D01*
X130249397Y-104776827D01*
X130249390Y-104776814D01*
X130161789Y-104645711D01*
X130161786Y-104645707D01*
X130050292Y-104534213D01*
X130050288Y-104534210D01*
X129919185Y-104446609D01*
X129919172Y-104446602D01*
X129773501Y-104386264D01*
X129773489Y-104386261D01*
X129618845Y-104355500D01*
X129618842Y-104355500D01*
X129461158Y-104355500D01*
X129461155Y-104355500D01*
X129306510Y-104386261D01*
X129306498Y-104386264D01*
X129160827Y-104446602D01*
X129160814Y-104446609D01*
X129029711Y-104534210D01*
X129029707Y-104534213D01*
X128918213Y-104645707D01*
X128918210Y-104645711D01*
X128830609Y-104776814D01*
X128830602Y-104776827D01*
X128770264Y-104922498D01*
X128770261Y-104922510D01*
X128739500Y-105077153D01*
X127600500Y-105077153D01*
X127600500Y-98990943D01*
X127620185Y-98923904D01*
X127636815Y-98903265D01*
X127659792Y-98880289D01*
X127747397Y-98749179D01*
X127807740Y-98603497D01*
X127838503Y-98448842D01*
X127838503Y-98291158D01*
X127838503Y-98291155D01*
X127838502Y-98291153D01*
X127814644Y-98171211D01*
X127807740Y-98136503D01*
X127807738Y-98136498D01*
X127747400Y-97990827D01*
X127747393Y-97990814D01*
X127659792Y-97859711D01*
X127659789Y-97859707D01*
X127548295Y-97748213D01*
X127548291Y-97748210D01*
X127417188Y-97660609D01*
X127417175Y-97660602D01*
X127271504Y-97600264D01*
X127271492Y-97600261D01*
X127116848Y-97569500D01*
X127116845Y-97569500D01*
X126959161Y-97569500D01*
X126959158Y-97569500D01*
X126804513Y-97600261D01*
X126804501Y-97600264D01*
X126670570Y-97655740D01*
X126601101Y-97663209D01*
X126538622Y-97631933D01*
X126502970Y-97571844D01*
X126501500Y-97565368D01*
X126499737Y-97556503D01*
X126469982Y-97484668D01*
X126439397Y-97410827D01*
X126439390Y-97410814D01*
X126351789Y-97279711D01*
X126351786Y-97279707D01*
X126240292Y-97168213D01*
X126240288Y-97168210D01*
X126109185Y-97080609D01*
X126109172Y-97080602D01*
X125963501Y-97020264D01*
X125963489Y-97020261D01*
X125808845Y-96989500D01*
X125808842Y-96989500D01*
X125651158Y-96989500D01*
X125651155Y-96989500D01*
X125496510Y-97020261D01*
X125496498Y-97020264D01*
X125350827Y-97080602D01*
X125350814Y-97080609D01*
X125219711Y-97168210D01*
X125219707Y-97168213D01*
X125108213Y-97279707D01*
X125108210Y-97279711D01*
X125020609Y-97410814D01*
X125020602Y-97410827D01*
X124960264Y-97556498D01*
X124960261Y-97556510D01*
X124929500Y-97711153D01*
X114683031Y-97711153D01*
X114725436Y-97583185D01*
X114735500Y-97484674D01*
X114735500Y-96951326D01*
X114725436Y-96852815D01*
X114672549Y-96693213D01*
X114672545Y-96693207D01*
X114672544Y-96693204D01*
X114584283Y-96550112D01*
X114584280Y-96550108D01*
X114465391Y-96431219D01*
X114465387Y-96431216D01*
X114322295Y-96342955D01*
X114322289Y-96342952D01*
X114322287Y-96342951D01*
X114162685Y-96290064D01*
X114162683Y-96290063D01*
X114064181Y-96280000D01*
X114064174Y-96280000D01*
X113455826Y-96280000D01*
X113455818Y-96280000D01*
X113357316Y-96290063D01*
X113357315Y-96290064D01*
X113280102Y-96315650D01*
X113197715Y-96342950D01*
X113197704Y-96342955D01*
X113054612Y-96431216D01*
X113054608Y-96431219D01*
X112944101Y-96541727D01*
X112882778Y-96575212D01*
X112813086Y-96570228D01*
X112768739Y-96541727D01*
X112685044Y-96458032D01*
X112685040Y-96458029D01*
X112540705Y-96369001D01*
X112540699Y-96368998D01*
X112540697Y-96368997D01*
X112462092Y-96342950D01*
X112379709Y-96315651D01*
X112280346Y-96305500D01*
X111683662Y-96305500D01*
X111683644Y-96305501D01*
X111584292Y-96315650D01*
X111584289Y-96315651D01*
X111423305Y-96368996D01*
X111423294Y-96369001D01*
X111278959Y-96458029D01*
X111229463Y-96507524D01*
X111168139Y-96541008D01*
X111098447Y-96536022D01*
X111094343Y-96534407D01*
X111009497Y-96499263D01*
X111009489Y-96499261D01*
X110854845Y-96468500D01*
X110854842Y-96468500D01*
X110697158Y-96468500D01*
X110697155Y-96468500D01*
X110542510Y-96499261D01*
X110542498Y-96499264D01*
X110396827Y-96559602D01*
X110396814Y-96559609D01*
X110265711Y-96647210D01*
X110265707Y-96647213D01*
X110154213Y-96758707D01*
X110154210Y-96758711D01*
X110066609Y-96889814D01*
X110066602Y-96889827D01*
X110006264Y-97035498D01*
X110006261Y-97035510D01*
X109975500Y-97190153D01*
X80264500Y-97190153D01*
X80264500Y-91812153D01*
X96678500Y-91812153D01*
X96678500Y-91969846D01*
X96709261Y-92124489D01*
X96709264Y-92124501D01*
X96769602Y-92270172D01*
X96769609Y-92270185D01*
X96857210Y-92401288D01*
X96857213Y-92401292D01*
X96968707Y-92512786D01*
X96968711Y-92512789D01*
X97099814Y-92600390D01*
X97099827Y-92600397D01*
X97237432Y-92657394D01*
X97245503Y-92660737D01*
X97400153Y-92691499D01*
X97400156Y-92691500D01*
X97400158Y-92691500D01*
X97557844Y-92691500D01*
X97557845Y-92691499D01*
X97712497Y-92660737D01*
X97858179Y-92600394D01*
X97989289Y-92512789D01*
X98100789Y-92401289D01*
X98188394Y-92270179D01*
X98248737Y-92124497D01*
X98279500Y-91969842D01*
X98279500Y-91812158D01*
X98279500Y-91812155D01*
X98279499Y-91812153D01*
X98271680Y-91772844D01*
X98248737Y-91657503D01*
X98231195Y-91615153D01*
X116293500Y-91615153D01*
X116293500Y-91772846D01*
X116324261Y-91927489D01*
X116324264Y-91927501D01*
X116384602Y-92073172D01*
X116384609Y-92073185D01*
X116472210Y-92204288D01*
X116472213Y-92204292D01*
X116583707Y-92315786D01*
X116583711Y-92315789D01*
X116714814Y-92403390D01*
X116714827Y-92403397D01*
X116860498Y-92463735D01*
X116860503Y-92463737D01*
X117015153Y-92494499D01*
X117015156Y-92494500D01*
X117015158Y-92494500D01*
X117172844Y-92494500D01*
X117172845Y-92494499D01*
X117327497Y-92463737D01*
X117473179Y-92403394D01*
X117604289Y-92315789D01*
X117715789Y-92204289D01*
X117803394Y-92073179D01*
X117863737Y-91927497D01*
X117894500Y-91772842D01*
X117894500Y-91615158D01*
X117894500Y-91615155D01*
X117894499Y-91615153D01*
X117885283Y-91568821D01*
X117863737Y-91460503D01*
X117854054Y-91437125D01*
X117803397Y-91314827D01*
X117803390Y-91314814D01*
X117715789Y-91183711D01*
X117715786Y-91183707D01*
X117604292Y-91072213D01*
X117604288Y-91072210D01*
X117473185Y-90984609D01*
X117473172Y-90984602D01*
X117327501Y-90924264D01*
X117327489Y-90924261D01*
X117172845Y-90893500D01*
X117172842Y-90893500D01*
X117015158Y-90893500D01*
X117015155Y-90893500D01*
X116860510Y-90924261D01*
X116860498Y-90924264D01*
X116714827Y-90984602D01*
X116714814Y-90984609D01*
X116583711Y-91072210D01*
X116583707Y-91072213D01*
X116472213Y-91183707D01*
X116472210Y-91183711D01*
X116384609Y-91314814D01*
X116384602Y-91314827D01*
X116324264Y-91460498D01*
X116324261Y-91460510D01*
X116293500Y-91615153D01*
X98231195Y-91615153D01*
X98188397Y-91511827D01*
X98188390Y-91511814D01*
X98100789Y-91380711D01*
X98100786Y-91380707D01*
X97989292Y-91269213D01*
X97989288Y-91269210D01*
X97858185Y-91181609D01*
X97858172Y-91181602D01*
X97712501Y-91121264D01*
X97712489Y-91121261D01*
X97557845Y-91090500D01*
X97557842Y-91090500D01*
X97400158Y-91090500D01*
X97400155Y-91090500D01*
X97245510Y-91121261D01*
X97245498Y-91121264D01*
X97099827Y-91181602D01*
X97099814Y-91181609D01*
X96968711Y-91269210D01*
X96968707Y-91269213D01*
X96857213Y-91380707D01*
X96857210Y-91380711D01*
X96769609Y-91511814D01*
X96769602Y-91511827D01*
X96709264Y-91657498D01*
X96709261Y-91657510D01*
X96678500Y-91812153D01*
X80264500Y-91812153D01*
X80264500Y-76122706D01*
X80264618Y-76117298D01*
X80266710Y-76069377D01*
X80272436Y-75938231D01*
X80804500Y-75938231D01*
X80804500Y-76009242D01*
X80804500Y-76301769D01*
X80806388Y-76340210D01*
X80806934Y-76351320D01*
X80842564Y-76713079D01*
X80842569Y-76713118D01*
X80849844Y-76762169D01*
X80849845Y-76762174D01*
X80920771Y-77118741D01*
X80920774Y-77118755D01*
X80932813Y-77166813D01*
X80932820Y-77166841D01*
X80932823Y-77166850D01*
X81038353Y-77514735D01*
X81045705Y-77535282D01*
X81055064Y-77561441D01*
X81194167Y-77897266D01*
X81194186Y-77897311D01*
X81215402Y-77942167D01*
X81386762Y-78262759D01*
X81386767Y-78262767D01*
X81412270Y-78305317D01*
X81412277Y-78305327D01*
X81614229Y-78607571D01*
X81614240Y-78607586D01*
X81643791Y-78647431D01*
X81643802Y-78647444D01*
X81874401Y-78928431D01*
X81874427Y-78928461D01*
X81907733Y-78965208D01*
X82164791Y-79222266D01*
X82200238Y-79254394D01*
X82201549Y-79255582D01*
X82482569Y-79486209D01*
X82522413Y-79515759D01*
X82522428Y-79515770D01*
X82824672Y-79717722D01*
X82824682Y-79717729D01*
X82867232Y-79743232D01*
X82867240Y-79743237D01*
X82887771Y-79754211D01*
X83187847Y-79914605D01*
X83232692Y-79935815D01*
X83568558Y-80074935D01*
X83615265Y-80091647D01*
X83963150Y-80197177D01*
X83963186Y-80197186D01*
X84011244Y-80209225D01*
X84011258Y-80209228D01*
X84011262Y-80209228D01*
X84011271Y-80209231D01*
X84367825Y-80280154D01*
X84367830Y-80280155D01*
X84378553Y-80281745D01*
X84416895Y-80287433D01*
X84778683Y-80323066D01*
X84828231Y-80325500D01*
X84828243Y-80325500D01*
X85191757Y-80325500D01*
X85191769Y-80325500D01*
X85241317Y-80323066D01*
X85603105Y-80287433D01*
X85647603Y-80280832D01*
X85652169Y-80280155D01*
X85652171Y-80280154D01*
X85652175Y-80280154D01*
X86008729Y-80209231D01*
X86008741Y-80209228D01*
X86008755Y-80209225D01*
X86040307Y-80201320D01*
X86056850Y-80197177D01*
X86404735Y-80091647D01*
X86451442Y-80074935D01*
X86787308Y-79935815D01*
X86832153Y-79914605D01*
X87152765Y-79743234D01*
X87195315Y-79717731D01*
X87497586Y-79515760D01*
X87537431Y-79486209D01*
X87818451Y-79255582D01*
X87855207Y-79222267D01*
X87855208Y-79222266D01*
X87855216Y-79222259D01*
X88112259Y-78965216D01*
X88112266Y-78965208D01*
X88112267Y-78965207D01*
X88145582Y-78928451D01*
X88376209Y-78647431D01*
X88405760Y-78607586D01*
X88607731Y-78305315D01*
X88633234Y-78262765D01*
X88804605Y-77942153D01*
X88825815Y-77897308D01*
X88964935Y-77561442D01*
X88981647Y-77514735D01*
X89087177Y-77166850D01*
X89091320Y-77150307D01*
X89099225Y-77118755D01*
X89099228Y-77118741D01*
X89099228Y-77118740D01*
X89099231Y-77118729D01*
X89146090Y-76883153D01*
X120357500Y-76883153D01*
X120357500Y-77040846D01*
X120388261Y-77195489D01*
X120388264Y-77195501D01*
X120448602Y-77341172D01*
X120448609Y-77341185D01*
X120536602Y-77472874D01*
X120557480Y-77539551D01*
X120557500Y-77541765D01*
X120557500Y-82717330D01*
X120557499Y-82717348D01*
X120557499Y-82883054D01*
X120557498Y-82883054D01*
X120598423Y-83035785D01*
X120627358Y-83085900D01*
X120627359Y-83085904D01*
X120627360Y-83085904D01*
X120677479Y-83172714D01*
X120677481Y-83172717D01*
X120796349Y-83291585D01*
X120796355Y-83291590D01*
X122660181Y-85155416D01*
X122693666Y-85216739D01*
X122696500Y-85243097D01*
X122696500Y-87229059D01*
X122676815Y-87296098D01*
X122624011Y-87341853D01*
X122554853Y-87351797D01*
X122491297Y-87322772D01*
X122484819Y-87316740D01*
X122430292Y-87262213D01*
X122430288Y-87262210D01*
X122299185Y-87174609D01*
X122299172Y-87174602D01*
X122153501Y-87114264D01*
X122153489Y-87114261D01*
X121998845Y-87083500D01*
X121998842Y-87083500D01*
X121841158Y-87083500D01*
X121841155Y-87083500D01*
X121686510Y-87114261D01*
X121686498Y-87114264D01*
X121540827Y-87174602D01*
X121540814Y-87174609D01*
X121409711Y-87262210D01*
X121409707Y-87262213D01*
X121298213Y-87373707D01*
X121298210Y-87373711D01*
X121210609Y-87504814D01*
X121210602Y-87504827D01*
X121150264Y-87650498D01*
X121150261Y-87650510D01*
X121119500Y-87805153D01*
X121119500Y-87962846D01*
X121150261Y-88117489D01*
X121150264Y-88117501D01*
X121210602Y-88263172D01*
X121210609Y-88263185D01*
X121298210Y-88394288D01*
X121298213Y-88394292D01*
X121409707Y-88505786D01*
X121409711Y-88505789D01*
X121540814Y-88593390D01*
X121540827Y-88593397D01*
X121686498Y-88653735D01*
X121686503Y-88653737D01*
X121841153Y-88684499D01*
X121841156Y-88684500D01*
X121841158Y-88684500D01*
X121998844Y-88684500D01*
X121998845Y-88684499D01*
X122153497Y-88653737D01*
X122299179Y-88593394D01*
X122430289Y-88505789D01*
X122430292Y-88505786D01*
X122484819Y-88451260D01*
X122546142Y-88417775D01*
X122615834Y-88422759D01*
X122671767Y-88464631D01*
X122696184Y-88530095D01*
X122696500Y-88538941D01*
X122696500Y-92023234D01*
X122676815Y-92090273D01*
X122675602Y-92092125D01*
X122587609Y-92223814D01*
X122587602Y-92223827D01*
X122527264Y-92369498D01*
X122527261Y-92369510D01*
X122496500Y-92524153D01*
X122496500Y-92681846D01*
X122527261Y-92836489D01*
X122527264Y-92836501D01*
X122587602Y-92982172D01*
X122587609Y-92982185D01*
X122675210Y-93113288D01*
X122675213Y-93113292D01*
X122786707Y-93224786D01*
X122786711Y-93224789D01*
X122917814Y-93312390D01*
X122917827Y-93312397D01*
X123005230Y-93348599D01*
X123063503Y-93372737D01*
X123124799Y-93384929D01*
X123186708Y-93417313D01*
X123221283Y-93478028D01*
X123222224Y-93482354D01*
X123234385Y-93543490D01*
X123234387Y-93543498D01*
X123294726Y-93689172D01*
X123294733Y-93689185D01*
X123382334Y-93820288D01*
X123382337Y-93820292D01*
X123493831Y-93931786D01*
X123493835Y-93931789D01*
X123624938Y-94019390D01*
X123624951Y-94019397D01*
X123757636Y-94074356D01*
X123770627Y-94079737D01*
X123908275Y-94107117D01*
X123925277Y-94110499D01*
X123925280Y-94110500D01*
X123925282Y-94110500D01*
X124082968Y-94110500D01*
X124219308Y-94083380D01*
X124288900Y-94089607D01*
X124344077Y-94132470D01*
X124367322Y-94198360D01*
X124367500Y-94204997D01*
X124367500Y-95178234D01*
X124347815Y-95245273D01*
X124346602Y-95247125D01*
X124258609Y-95378814D01*
X124258602Y-95378827D01*
X124198264Y-95524498D01*
X124198261Y-95524510D01*
X124167500Y-95679153D01*
X124167500Y-95836846D01*
X124198261Y-95991489D01*
X124198264Y-95991501D01*
X124258602Y-96137172D01*
X124258609Y-96137185D01*
X124346210Y-96268288D01*
X124346213Y-96268292D01*
X124457707Y-96379786D01*
X124457711Y-96379789D01*
X124588814Y-96467390D01*
X124588827Y-96467397D01*
X124685704Y-96507524D01*
X124734503Y-96527737D01*
X124889153Y-96558499D01*
X124889156Y-96558500D01*
X124889158Y-96558500D01*
X125046844Y-96558500D01*
X125046845Y-96558499D01*
X125201497Y-96527737D01*
X125347179Y-96467394D01*
X125478289Y-96379789D01*
X125589789Y-96268289D01*
X125677394Y-96137179D01*
X125737737Y-95991497D01*
X125768500Y-95836842D01*
X125768500Y-95818153D01*
X136232500Y-95818153D01*
X136232500Y-95975846D01*
X136263261Y-96130489D01*
X136263264Y-96130501D01*
X136323602Y-96276172D01*
X136323609Y-96276185D01*
X136411210Y-96407288D01*
X136411213Y-96407292D01*
X136522707Y-96518786D01*
X136522711Y-96518789D01*
X136653814Y-96606390D01*
X136653827Y-96606397D01*
X136799498Y-96666735D01*
X136799503Y-96666737D01*
X136932561Y-96693204D01*
X136954153Y-96697499D01*
X136954156Y-96697500D01*
X136954158Y-96697500D01*
X137111844Y-96697500D01*
X137111845Y-96697499D01*
X137188152Y-96682320D01*
X137266488Y-96666739D01*
X137266490Y-96666738D01*
X137266497Y-96666737D01*
X137343265Y-96634939D01*
X137390717Y-96625500D01*
X138125152Y-96625500D01*
X138192191Y-96645185D01*
X138237946Y-96697989D01*
X138246769Y-96725308D01*
X138273261Y-96858491D01*
X138273264Y-96858501D01*
X138333602Y-97004172D01*
X138333609Y-97004185D01*
X138421210Y-97135288D01*
X138421213Y-97135292D01*
X138532707Y-97246786D01*
X138532711Y-97246789D01*
X138663814Y-97334390D01*
X138663827Y-97334397D01*
X138809498Y-97394735D01*
X138809503Y-97394737D01*
X138964153Y-97425499D01*
X138964156Y-97425500D01*
X138964158Y-97425500D01*
X139121844Y-97425500D01*
X139121845Y-97425499D01*
X139276497Y-97394737D01*
X139422179Y-97334394D01*
X139504024Y-97279707D01*
X139553875Y-97246398D01*
X139620553Y-97225520D01*
X139622766Y-97225500D01*
X144407603Y-97225500D01*
X144474642Y-97245185D01*
X144495284Y-97261819D01*
X149945181Y-102711716D01*
X149978666Y-102773039D01*
X149981500Y-102799397D01*
X149981500Y-117221330D01*
X149981499Y-117221348D01*
X149981499Y-117387054D01*
X149981498Y-117387054D01*
X150022423Y-117539784D01*
X150022424Y-117539787D01*
X150027094Y-117547875D01*
X150027095Y-117547877D01*
X150101477Y-117676712D01*
X150101481Y-117676717D01*
X150220349Y-117795585D01*
X150220355Y-117795590D01*
X152677139Y-120252374D01*
X152677149Y-120252385D01*
X152681479Y-120256715D01*
X152681480Y-120256716D01*
X152793284Y-120368520D01*
X152876394Y-120416503D01*
X152930215Y-120447577D01*
X153082943Y-120488501D01*
X153082946Y-120488501D01*
X153248653Y-120488501D01*
X153248669Y-120488500D01*
X155884234Y-120488500D01*
X155951273Y-120508185D01*
X155953125Y-120509398D01*
X156084814Y-120597390D01*
X156084827Y-120597397D01*
X156206288Y-120647707D01*
X156230503Y-120657737D01*
X156385153Y-120688499D01*
X156385156Y-120688500D01*
X156385158Y-120688500D01*
X156542844Y-120688500D01*
X156542845Y-120688499D01*
X156697497Y-120657737D01*
X156843179Y-120597394D01*
X156974289Y-120509789D01*
X157085789Y-120398289D01*
X157173394Y-120267179D01*
X157233737Y-120121497D01*
X157264500Y-119966842D01*
X157264500Y-119809158D01*
X157264500Y-119809155D01*
X157264499Y-119809153D01*
X157233738Y-119654510D01*
X157233737Y-119654503D01*
X157233735Y-119654498D01*
X157173397Y-119508827D01*
X157173390Y-119508814D01*
X157085789Y-119377711D01*
X157085786Y-119377707D01*
X156974292Y-119266213D01*
X156974288Y-119266210D01*
X156843185Y-119178609D01*
X156843172Y-119178602D01*
X156697501Y-119118264D01*
X156697489Y-119118261D01*
X156542845Y-119087500D01*
X156542842Y-119087500D01*
X156385158Y-119087500D01*
X156385155Y-119087500D01*
X156230510Y-119118261D01*
X156230498Y-119118264D01*
X156084827Y-119178602D01*
X156084814Y-119178609D01*
X155953125Y-119266602D01*
X155886447Y-119287480D01*
X155884234Y-119287500D01*
X153462097Y-119287500D01*
X153395058Y-119267815D01*
X153374416Y-119251181D01*
X151218819Y-117095584D01*
X151204115Y-117068656D01*
X151187523Y-117042838D01*
X151186631Y-117036637D01*
X151185334Y-117034261D01*
X151182500Y-117007903D01*
X151182500Y-116771097D01*
X151202185Y-116704058D01*
X151254989Y-116658303D01*
X151324147Y-116648359D01*
X151387703Y-116677384D01*
X151394179Y-116683414D01*
X153047284Y-118336520D01*
X153047286Y-118336521D01*
X153047290Y-118336524D01*
X153184209Y-118415573D01*
X153184216Y-118415577D01*
X153336943Y-118456501D01*
X153336945Y-118456501D01*
X153502654Y-118456501D01*
X153502670Y-118456500D01*
X155884234Y-118456500D01*
X155951273Y-118476185D01*
X155953125Y-118477398D01*
X156084814Y-118565390D01*
X156084827Y-118565397D01*
X156230498Y-118625735D01*
X156230503Y-118625737D01*
X156385153Y-118656499D01*
X156385156Y-118656500D01*
X156385158Y-118656500D01*
X156542844Y-118656500D01*
X156542845Y-118656499D01*
X156697497Y-118625737D01*
X156843179Y-118565394D01*
X156974289Y-118477789D01*
X157085789Y-118366289D01*
X157173394Y-118235179D01*
X157233737Y-118089497D01*
X157264500Y-117934842D01*
X157264500Y-117777158D01*
X157264500Y-117777155D01*
X157264499Y-117777153D01*
X157244521Y-117676717D01*
X157233737Y-117622503D01*
X157202826Y-117547877D01*
X157173397Y-117476827D01*
X157173390Y-117476814D01*
X157085789Y-117345711D01*
X157085786Y-117345707D01*
X156974292Y-117234213D01*
X156974288Y-117234210D01*
X156843185Y-117146609D01*
X156843172Y-117146602D01*
X156697501Y-117086264D01*
X156697489Y-117086261D01*
X156542845Y-117055500D01*
X156542842Y-117055500D01*
X156385158Y-117055500D01*
X156385155Y-117055500D01*
X156230510Y-117086261D01*
X156230498Y-117086264D01*
X156084827Y-117146602D01*
X156084814Y-117146609D01*
X155953125Y-117234602D01*
X155886447Y-117255480D01*
X155884234Y-117255500D01*
X153716098Y-117255500D01*
X153649059Y-117235815D01*
X153628417Y-117219181D01*
X152924151Y-116514915D01*
X152914915Y-116498001D01*
X152901617Y-116484055D01*
X152898516Y-116467968D01*
X152890666Y-116453592D01*
X152892040Y-116434371D01*
X152888393Y-116415448D01*
X152894481Y-116400239D01*
X152895650Y-116383900D01*
X152907199Y-116368472D01*
X152914361Y-116350583D01*
X152927705Y-116341080D01*
X152937522Y-116327967D01*
X152955576Y-116321232D01*
X152971275Y-116310054D01*
X152987638Y-116309274D01*
X153002986Y-116303550D01*
X153021815Y-116307646D01*
X153041065Y-116306729D01*
X153068987Y-116317907D01*
X153071259Y-116318402D01*
X153073831Y-116319847D01*
X153134095Y-116354640D01*
X153134097Y-116354641D01*
X153158053Y-116368472D01*
X153184215Y-116383577D01*
X153336943Y-116424501D01*
X153336946Y-116424501D01*
X153502653Y-116424501D01*
X153502669Y-116424500D01*
X155884234Y-116424500D01*
X155951273Y-116444185D01*
X155953125Y-116445398D01*
X156084814Y-116533390D01*
X156084827Y-116533397D01*
X156230498Y-116593735D01*
X156230503Y-116593737D01*
X156385153Y-116624499D01*
X156385156Y-116624500D01*
X156385158Y-116624500D01*
X156542844Y-116624500D01*
X156542845Y-116624499D01*
X156697497Y-116593737D01*
X156843179Y-116533394D01*
X156974289Y-116445789D01*
X157085789Y-116334289D01*
X157173394Y-116203179D01*
X157233737Y-116057497D01*
X157264500Y-115902842D01*
X157264500Y-115745158D01*
X157264500Y-115745155D01*
X157264499Y-115745153D01*
X157233738Y-115590510D01*
X157233737Y-115590503D01*
X157233735Y-115590498D01*
X157173397Y-115444827D01*
X157173390Y-115444814D01*
X157085789Y-115313711D01*
X157085786Y-115313707D01*
X156974292Y-115202213D01*
X156974288Y-115202210D01*
X156843185Y-115114609D01*
X156843172Y-115114602D01*
X156697501Y-115054264D01*
X156697489Y-115054261D01*
X156542845Y-115023500D01*
X156542842Y-115023500D01*
X156385158Y-115023500D01*
X156385155Y-115023500D01*
X156230510Y-115054261D01*
X156230498Y-115054264D01*
X156084827Y-115114602D01*
X156084814Y-115114609D01*
X155953125Y-115202602D01*
X155886447Y-115223480D01*
X155884234Y-115223500D01*
X153716097Y-115223500D01*
X153649058Y-115203815D01*
X153628416Y-115187181D01*
X152020819Y-113579584D01*
X151987334Y-113518261D01*
X151984500Y-113491903D01*
X151984500Y-111477097D01*
X152004185Y-111410058D01*
X152056989Y-111364303D01*
X152126147Y-111354359D01*
X152189703Y-111383384D01*
X152196181Y-111389416D01*
X152784962Y-111978197D01*
X152811841Y-112018423D01*
X152827916Y-112057230D01*
X152827920Y-112057238D01*
X152896590Y-112160010D01*
X152896592Y-112160012D01*
X152928588Y-112192007D01*
X152928589Y-112192008D01*
X153006787Y-112270206D01*
X153015994Y-112279413D01*
X153015996Y-112279414D01*
X153118756Y-112348076D01*
X153118758Y-112348077D01*
X153118767Y-112348083D01*
X153148743Y-112360499D01*
X153148744Y-112360500D01*
X153148745Y-112360500D01*
X153232966Y-112395386D01*
X153354192Y-112419499D01*
X153354196Y-112419500D01*
X153354197Y-112419500D01*
X155924643Y-112419500D01*
X155991682Y-112439185D01*
X155993534Y-112440398D01*
X156084814Y-112501390D01*
X156084827Y-112501397D01*
X156199415Y-112548860D01*
X156230503Y-112561737D01*
X156385153Y-112592499D01*
X156385156Y-112592500D01*
X156385158Y-112592500D01*
X156542844Y-112592500D01*
X156542845Y-112592499D01*
X156697497Y-112561737D01*
X156843179Y-112501394D01*
X156974289Y-112413789D01*
X157085789Y-112302289D01*
X157173394Y-112171179D01*
X157178020Y-112160012D01*
X157187067Y-112138166D01*
X157233737Y-112025497D01*
X157264500Y-111870842D01*
X157264500Y-111713158D01*
X157264500Y-111713155D01*
X157264499Y-111713153D01*
X157233738Y-111558510D01*
X157233737Y-111558503D01*
X157200018Y-111477097D01*
X157173397Y-111412827D01*
X157173390Y-111412814D01*
X157085789Y-111281711D01*
X157085786Y-111281707D01*
X156974292Y-111170213D01*
X156974288Y-111170210D01*
X156843185Y-111082609D01*
X156843172Y-111082602D01*
X156697501Y-111022264D01*
X156697489Y-111022261D01*
X156542845Y-110991500D01*
X156542842Y-110991500D01*
X156385158Y-110991500D01*
X156385155Y-110991500D01*
X156230510Y-111022261D01*
X156230498Y-111022264D01*
X156084827Y-111082602D01*
X156084814Y-111082609D01*
X156001017Y-111138602D01*
X155934340Y-111159480D01*
X155932126Y-111159500D01*
X153716097Y-111159500D01*
X153649058Y-111139815D01*
X153628416Y-111123181D01*
X152421819Y-109916584D01*
X152407115Y-109889656D01*
X152390523Y-109863838D01*
X152389631Y-109857637D01*
X152388334Y-109855261D01*
X152385500Y-109828903D01*
X152385500Y-109649153D01*
X155663500Y-109649153D01*
X155663500Y-109806846D01*
X155694261Y-109961489D01*
X155694264Y-109961501D01*
X155754602Y-110107172D01*
X155754609Y-110107185D01*
X155842210Y-110238288D01*
X155842213Y-110238292D01*
X155953707Y-110349786D01*
X155953711Y-110349789D01*
X156084814Y-110437390D01*
X156084827Y-110437397D01*
X156230498Y-110497735D01*
X156230503Y-110497737D01*
X156385153Y-110528499D01*
X156385156Y-110528500D01*
X156385158Y-110528500D01*
X156542844Y-110528500D01*
X156542845Y-110528499D01*
X156697497Y-110497737D01*
X156843179Y-110437394D01*
X156974289Y-110349789D01*
X157085789Y-110238289D01*
X157173394Y-110107179D01*
X157233737Y-109961497D01*
X157264500Y-109806842D01*
X157264500Y-109649158D01*
X157264500Y-109649155D01*
X157264499Y-109649153D01*
X157252871Y-109590695D01*
X157233737Y-109494503D01*
X157200106Y-109413309D01*
X157173397Y-109348827D01*
X157173390Y-109348814D01*
X157085789Y-109217711D01*
X157085786Y-109217707D01*
X156974292Y-109106213D01*
X156974288Y-109106210D01*
X156843185Y-109018609D01*
X156843172Y-109018602D01*
X156697501Y-108958264D01*
X156697489Y-108958261D01*
X156542845Y-108927500D01*
X156542842Y-108927500D01*
X156385158Y-108927500D01*
X156385155Y-108927500D01*
X156230510Y-108958261D01*
X156230498Y-108958264D01*
X156084827Y-109018602D01*
X156084814Y-109018609D01*
X155953711Y-109106210D01*
X155953707Y-109106213D01*
X155842213Y-109217707D01*
X155842210Y-109217711D01*
X155754609Y-109348814D01*
X155754602Y-109348827D01*
X155694264Y-109494498D01*
X155694261Y-109494510D01*
X155663500Y-109649153D01*
X152385500Y-109649153D01*
X152385500Y-107363153D01*
X159219500Y-107363153D01*
X159219500Y-107520846D01*
X159250261Y-107675489D01*
X159250263Y-107675497D01*
X159291705Y-107775547D01*
X159299174Y-107845017D01*
X159291705Y-107870453D01*
X159250263Y-107970502D01*
X159250261Y-107970510D01*
X159219500Y-108125153D01*
X159219500Y-108282846D01*
X159250261Y-108437489D01*
X159250263Y-108437497D01*
X159291705Y-108537547D01*
X159299174Y-108607017D01*
X159291705Y-108632453D01*
X159250263Y-108732502D01*
X159250261Y-108732510D01*
X159219500Y-108887153D01*
X159219500Y-109044846D01*
X159250261Y-109199489D01*
X159250263Y-109199497D01*
X159291705Y-109299547D01*
X159299174Y-109369017D01*
X159291705Y-109394450D01*
X159276140Y-109432028D01*
X159250263Y-109494502D01*
X159250261Y-109494510D01*
X159219500Y-109649153D01*
X159219500Y-109806846D01*
X159250261Y-109961489D01*
X159250263Y-109961497D01*
X159291705Y-110061547D01*
X159299174Y-110131017D01*
X159291705Y-110156450D01*
X159276140Y-110194028D01*
X159250263Y-110256502D01*
X159250261Y-110256510D01*
X159219500Y-110411153D01*
X159219500Y-110568846D01*
X159250261Y-110723489D01*
X159250264Y-110723501D01*
X159310602Y-110869172D01*
X159310609Y-110869185D01*
X159398210Y-111000288D01*
X159398213Y-111000292D01*
X159509707Y-111111786D01*
X159509711Y-111111789D01*
X159640814Y-111199390D01*
X159640827Y-111199397D01*
X159786498Y-111259735D01*
X159786503Y-111259737D01*
X159941153Y-111290499D01*
X159941156Y-111290500D01*
X159941158Y-111290500D01*
X160098844Y-111290500D01*
X160098845Y-111290499D01*
X160253497Y-111259737D01*
X160399179Y-111199394D01*
X160530289Y-111111789D01*
X160641789Y-111000289D01*
X160729394Y-110869179D01*
X160789737Y-110723497D01*
X160820500Y-110568842D01*
X160820500Y-110411158D01*
X160820500Y-110411155D01*
X160820499Y-110411153D01*
X160789738Y-110256510D01*
X160789737Y-110256503D01*
X160748294Y-110156452D01*
X160740826Y-110086983D01*
X160748295Y-110061547D01*
X160789737Y-109961497D01*
X160820500Y-109806842D01*
X160820500Y-109649158D01*
X160820500Y-109649155D01*
X160820499Y-109649153D01*
X160808871Y-109590695D01*
X160789737Y-109494503D01*
X160748294Y-109394452D01*
X160740826Y-109324983D01*
X160748295Y-109299547D01*
X160789737Y-109199497D01*
X160820500Y-109044842D01*
X160820500Y-108887158D01*
X160820500Y-108887155D01*
X160820499Y-108887153D01*
X160803668Y-108802538D01*
X160789737Y-108732503D01*
X160748294Y-108632452D01*
X160740826Y-108562983D01*
X160748295Y-108537547D01*
X160789737Y-108437497D01*
X160820500Y-108282842D01*
X160820500Y-108125158D01*
X160820500Y-108125155D01*
X160820499Y-108125153D01*
X160789738Y-107970510D01*
X160789737Y-107970503D01*
X160748294Y-107870452D01*
X160740826Y-107800983D01*
X160748295Y-107775547D01*
X160789737Y-107675497D01*
X160820500Y-107520842D01*
X160820500Y-107363158D01*
X160820500Y-107363155D01*
X160820499Y-107363153D01*
X160810382Y-107312293D01*
X160789737Y-107208503D01*
X160784831Y-107196658D01*
X160729397Y-107062827D01*
X160729390Y-107062814D01*
X160641789Y-106931711D01*
X160641786Y-106931707D01*
X160555383Y-106845304D01*
X180709500Y-106845304D01*
X180709500Y-107022695D01*
X180744104Y-107196658D01*
X180744107Y-107196670D01*
X180782561Y-107289506D01*
X180792000Y-107336958D01*
X180792000Y-131550042D01*
X180782561Y-131597494D01*
X180744106Y-131690332D01*
X180744103Y-131690341D01*
X180709500Y-131864304D01*
X180709500Y-132041695D01*
X180744103Y-132215658D01*
X180744106Y-132215667D01*
X180811983Y-132379540D01*
X180811990Y-132379553D01*
X180910535Y-132527034D01*
X180910538Y-132527038D01*
X181035961Y-132652461D01*
X181035965Y-132652464D01*
X181183446Y-132751009D01*
X181183459Y-132751016D01*
X181306363Y-132801923D01*
X181347334Y-132818894D01*
X181347336Y-132818894D01*
X181347341Y-132818896D01*
X181521304Y-132853499D01*
X181521307Y-132853500D01*
X181521309Y-132853500D01*
X181698693Y-132853500D01*
X181698694Y-132853499D01*
X181756682Y-132841964D01*
X181872658Y-132818896D01*
X181872661Y-132818894D01*
X181872666Y-132818894D01*
X182031465Y-132753118D01*
X182036540Y-132751016D01*
X182036540Y-132751015D01*
X182036547Y-132751013D01*
X182184035Y-132652464D01*
X182309464Y-132527035D01*
X182408013Y-132379547D01*
X182475894Y-132215666D01*
X182486430Y-132162701D01*
X182510499Y-132041695D01*
X182510500Y-132041693D01*
X182510500Y-131864306D01*
X182510499Y-131864304D01*
X182475896Y-131690341D01*
X182475893Y-131690332D01*
X182437439Y-131597494D01*
X182428000Y-131550042D01*
X182428000Y-109413304D01*
X199325000Y-109413304D01*
X199325000Y-109590695D01*
X199359604Y-109764658D01*
X199359607Y-109764670D01*
X199398061Y-109857506D01*
X199407500Y-109904958D01*
X199407500Y-134397542D01*
X199398061Y-134444994D01*
X199359606Y-134537832D01*
X199359603Y-134537841D01*
X199325000Y-134711804D01*
X199325000Y-134889195D01*
X199359603Y-135063158D01*
X199359606Y-135063167D01*
X199427483Y-135227040D01*
X199427490Y-135227053D01*
X199526035Y-135374534D01*
X199526038Y-135374538D01*
X199651461Y-135499961D01*
X199651465Y-135499964D01*
X199798946Y-135598509D01*
X199798959Y-135598516D01*
X199921863Y-135649423D01*
X199962834Y-135666394D01*
X199962836Y-135666394D01*
X199962841Y-135666396D01*
X200136804Y-135700999D01*
X200136807Y-135701000D01*
X200136809Y-135701000D01*
X200314193Y-135701000D01*
X200314194Y-135700999D01*
X200372182Y-135689464D01*
X200488158Y-135666396D01*
X200488161Y-135666394D01*
X200488166Y-135666394D01*
X200652047Y-135598513D01*
X200799535Y-135499964D01*
X200924964Y-135374535D01*
X201023513Y-135227047D01*
X201091394Y-135063166D01*
X201126000Y-134889191D01*
X201126000Y-134711809D01*
X201126000Y-134711806D01*
X201125999Y-134711804D01*
X201091396Y-134537841D01*
X201091393Y-134537832D01*
X201052939Y-134444994D01*
X201043500Y-134397542D01*
X201043500Y-131978231D01*
X225744500Y-131978231D01*
X225744500Y-132049242D01*
X225744500Y-132341769D01*
X225746356Y-132379547D01*
X225746934Y-132391320D01*
X225782564Y-132753079D01*
X225782569Y-132753118D01*
X225789844Y-132802169D01*
X225789845Y-132802174D01*
X225860771Y-133158741D01*
X225860774Y-133158755D01*
X225872813Y-133206813D01*
X225872820Y-133206841D01*
X225872823Y-133206850D01*
X225978353Y-133554735D01*
X225985705Y-133575282D01*
X225995064Y-133601441D01*
X226134167Y-133937266D01*
X226134186Y-133937311D01*
X226155402Y-133982167D01*
X226326762Y-134302759D01*
X226326767Y-134302767D01*
X226352270Y-134345317D01*
X226352277Y-134345327D01*
X226554229Y-134647571D01*
X226554240Y-134647586D01*
X226583791Y-134687431D01*
X226667028Y-134788856D01*
X226814401Y-134968431D01*
X226814427Y-134968461D01*
X226847733Y-135005208D01*
X227104791Y-135262266D01*
X227140238Y-135294394D01*
X227141549Y-135295582D01*
X227141559Y-135295590D01*
X227141568Y-135295598D01*
X227237757Y-135374538D01*
X227422569Y-135526209D01*
X227462413Y-135555759D01*
X227462428Y-135555770D01*
X227764672Y-135757722D01*
X227764682Y-135757729D01*
X227807232Y-135783232D01*
X227807240Y-135783237D01*
X227835902Y-135798557D01*
X228127847Y-135954605D01*
X228172692Y-135975815D01*
X228508558Y-136114935D01*
X228555265Y-136131647D01*
X228903150Y-136237177D01*
X228903186Y-136237186D01*
X228951244Y-136249225D01*
X228951258Y-136249228D01*
X228951262Y-136249228D01*
X228951271Y-136249231D01*
X229307825Y-136320154D01*
X229307830Y-136320155D01*
X229318553Y-136321745D01*
X229356895Y-136327433D01*
X229718683Y-136363066D01*
X229768231Y-136365500D01*
X229768243Y-136365500D01*
X230131757Y-136365500D01*
X230131769Y-136365500D01*
X230181317Y-136363066D01*
X230543105Y-136327433D01*
X230587603Y-136320832D01*
X230592169Y-136320155D01*
X230592171Y-136320154D01*
X230592175Y-136320154D01*
X230948729Y-136249231D01*
X230948741Y-136249228D01*
X230948755Y-136249225D01*
X230980307Y-136241320D01*
X230996850Y-136237177D01*
X231344735Y-136131647D01*
X231391442Y-136114935D01*
X231727308Y-135975815D01*
X231772153Y-135954605D01*
X232092765Y-135783234D01*
X232135315Y-135757731D01*
X232437586Y-135555760D01*
X232477431Y-135526209D01*
X232758451Y-135295582D01*
X232795207Y-135262267D01*
X232795208Y-135262266D01*
X232795216Y-135262259D01*
X233052259Y-135005216D01*
X233052266Y-135005208D01*
X233052267Y-135005207D01*
X233085582Y-134968451D01*
X233316209Y-134687431D01*
X233345760Y-134647586D01*
X233547731Y-134345315D01*
X233573234Y-134302765D01*
X233744605Y-133982153D01*
X233765815Y-133937308D01*
X233904935Y-133601442D01*
X233921647Y-133554735D01*
X234027177Y-133206850D01*
X234031320Y-133190307D01*
X234039225Y-133158755D01*
X234039228Y-133158741D01*
X234039228Y-133158740D01*
X234039231Y-133158729D01*
X234110154Y-132802175D01*
X234117433Y-132753105D01*
X234153066Y-132391317D01*
X234155500Y-132341769D01*
X234155500Y-131978231D01*
X234153066Y-131928683D01*
X234117433Y-131566895D01*
X234110154Y-131517825D01*
X234039231Y-131161271D01*
X234039228Y-131161258D01*
X234039225Y-131161244D01*
X234027186Y-131113186D01*
X234027177Y-131113150D01*
X233921647Y-130765265D01*
X233904935Y-130718558D01*
X233765815Y-130382692D01*
X233744605Y-130337847D01*
X233573234Y-130017235D01*
X233547731Y-129974685D01*
X233481677Y-129875829D01*
X233345770Y-129672428D01*
X233345759Y-129672413D01*
X233316209Y-129632569D01*
X233085582Y-129351549D01*
X233084394Y-129350238D01*
X233052266Y-129314791D01*
X232795208Y-129057733D01*
X232758461Y-129024427D01*
X232758431Y-129024401D01*
X232477444Y-128793802D01*
X232477431Y-128793791D01*
X232437586Y-128764240D01*
X232437571Y-128764229D01*
X232135327Y-128562277D01*
X232135317Y-128562270D01*
X232092767Y-128536767D01*
X232092759Y-128536762D01*
X231772167Y-128365402D01*
X231772159Y-128365398D01*
X231772153Y-128365395D01*
X231750874Y-128355330D01*
X231727311Y-128344186D01*
X231727266Y-128344167D01*
X231391441Y-128205064D01*
X231365282Y-128195705D01*
X231344735Y-128188353D01*
X230996850Y-128082823D01*
X230996841Y-128082820D01*
X230996813Y-128082813D01*
X230948755Y-128070774D01*
X230948741Y-128070771D01*
X230592174Y-127999845D01*
X230592169Y-127999844D01*
X230543118Y-127992569D01*
X230543121Y-127992569D01*
X230543105Y-127992567D01*
X230543093Y-127992565D01*
X230543079Y-127992564D01*
X230181318Y-127956934D01*
X230181322Y-127956934D01*
X230166744Y-127956218D01*
X230131769Y-127954500D01*
X229768231Y-127954500D01*
X229731070Y-127956325D01*
X229718679Y-127956934D01*
X229356920Y-127992564D01*
X229356901Y-127992566D01*
X229356895Y-127992567D01*
X229356884Y-127992568D01*
X229356881Y-127992569D01*
X229307830Y-127999844D01*
X229307825Y-127999845D01*
X228951258Y-128070771D01*
X228951244Y-128070774D01*
X228903186Y-128082813D01*
X228903157Y-128082821D01*
X228555271Y-128188351D01*
X228508558Y-128205064D01*
X228172733Y-128344167D01*
X228172688Y-128344186D01*
X228127832Y-128365402D01*
X227807240Y-128536762D01*
X227807232Y-128536767D01*
X227764682Y-128562270D01*
X227764672Y-128562277D01*
X227462428Y-128764229D01*
X227462413Y-128764240D01*
X227422582Y-128793781D01*
X227422555Y-128793802D01*
X227141568Y-129024401D01*
X227141538Y-129024427D01*
X227104791Y-129057733D01*
X227104784Y-129057741D01*
X226847741Y-129314784D01*
X226847733Y-129314791D01*
X226814427Y-129351538D01*
X226814401Y-129351568D01*
X226583802Y-129632555D01*
X226583781Y-129632582D01*
X226554240Y-129672413D01*
X226554229Y-129672428D01*
X226352277Y-129974672D01*
X226352270Y-129974682D01*
X226326767Y-130017232D01*
X226326762Y-130017240D01*
X226155402Y-130337832D01*
X226134186Y-130382688D01*
X226134167Y-130382733D01*
X225995064Y-130718558D01*
X225978351Y-130765271D01*
X225872821Y-131113157D01*
X225872813Y-131113186D01*
X225860774Y-131161244D01*
X225860771Y-131161258D01*
X225789845Y-131517825D01*
X225789844Y-131517830D01*
X225782569Y-131566881D01*
X225782564Y-131566920D01*
X225753274Y-131864309D01*
X225746934Y-131928683D01*
X225744500Y-131978231D01*
X201043500Y-131978231D01*
X201043500Y-114340000D01*
X223769300Y-114340000D01*
X223786054Y-114499406D01*
X223786055Y-114499409D01*
X223835582Y-114651838D01*
X223835585Y-114651845D01*
X223915727Y-114790655D01*
X223953086Y-114832146D01*
X224022972Y-114909764D01*
X224022975Y-114909766D01*
X224022978Y-114909769D01*
X224120232Y-114980428D01*
X224152651Y-115003983D01*
X224196488Y-115023500D01*
X224299077Y-115069175D01*
X224455858Y-115102500D01*
X227664142Y-115102500D01*
X227820923Y-115069175D01*
X227967350Y-115003982D01*
X228097022Y-114909769D01*
X228204273Y-114790655D01*
X228284415Y-114651845D01*
X228333946Y-114499406D01*
X228350700Y-114340000D01*
X228333946Y-114180594D01*
X228284415Y-114028155D01*
X228204273Y-113889345D01*
X228162265Y-113842691D01*
X228097027Y-113770235D01*
X228097024Y-113770233D01*
X228097023Y-113770232D01*
X228097022Y-113770231D01*
X228032186Y-113723124D01*
X227967348Y-113676016D01*
X227854930Y-113625965D01*
X227820923Y-113610825D01*
X227820921Y-113610824D01*
X227820920Y-113610824D01*
X227698126Y-113584723D01*
X227636644Y-113551530D01*
X227602868Y-113490367D01*
X227607520Y-113420653D01*
X227636224Y-113375753D01*
X227717974Y-113294004D01*
X227893575Y-113065156D01*
X228037804Y-112815345D01*
X228148191Y-112548845D01*
X228222849Y-112270217D01*
X228260500Y-111984228D01*
X228260500Y-111695772D01*
X228222849Y-111409783D01*
X228148191Y-111131155D01*
X228148186Y-111131145D01*
X228148185Y-111131139D01*
X228037808Y-110864663D01*
X228037800Y-110864647D01*
X227893579Y-110614851D01*
X227893575Y-110614844D01*
X227757410Y-110437390D01*
X227717975Y-110385997D01*
X227717969Y-110385990D01*
X227514009Y-110182030D01*
X227514002Y-110182024D01*
X227285164Y-110006431D01*
X227285162Y-110006429D01*
X227285156Y-110006425D01*
X227285151Y-110006422D01*
X227285148Y-110006420D01*
X227035352Y-109862199D01*
X227035336Y-109862191D01*
X226768860Y-109751814D01*
X226768848Y-109751810D01*
X226768845Y-109751809D01*
X226490217Y-109677151D01*
X226490211Y-109677150D01*
X226490206Y-109677149D01*
X226204238Y-109639501D01*
X226204233Y-109639500D01*
X226204228Y-109639500D01*
X225915772Y-109639500D01*
X225915766Y-109639500D01*
X225915761Y-109639501D01*
X225629793Y-109677149D01*
X225629786Y-109677150D01*
X225629783Y-109677151D01*
X225351155Y-109751809D01*
X225351139Y-109751814D01*
X225084663Y-109862191D01*
X225084647Y-109862199D01*
X224834851Y-110006420D01*
X224834835Y-110006431D01*
X224605997Y-110182024D01*
X224605990Y-110182030D01*
X224402030Y-110385990D01*
X224402024Y-110385997D01*
X224226431Y-110614835D01*
X224226420Y-110614851D01*
X224082199Y-110864647D01*
X224082191Y-110864663D01*
X223971814Y-111131139D01*
X223971809Y-111131155D01*
X223897152Y-111409780D01*
X223897149Y-111409793D01*
X223859501Y-111695761D01*
X223859500Y-111695778D01*
X223859500Y-111984221D01*
X223859501Y-111984238D01*
X223897149Y-112270206D01*
X223897150Y-112270211D01*
X223897151Y-112270217D01*
X223971809Y-112548844D01*
X223971814Y-112548860D01*
X224082191Y-112815336D01*
X224082199Y-112815352D01*
X224226420Y-113065148D01*
X224226431Y-113065164D01*
X224402024Y-113294002D01*
X224402030Y-113294009D01*
X224483773Y-113375752D01*
X224517258Y-113437075D01*
X224512274Y-113506767D01*
X224470402Y-113562700D01*
X224421874Y-113584723D01*
X224299078Y-113610824D01*
X224152651Y-113676016D01*
X224022975Y-113770233D01*
X224022972Y-113770235D01*
X223915726Y-113889346D01*
X223835585Y-114028154D01*
X223835582Y-114028161D01*
X223786055Y-114180590D01*
X223786054Y-114180594D01*
X223769300Y-114340000D01*
X201043500Y-114340000D01*
X201043500Y-109904958D01*
X201052939Y-109857506D01*
X201091392Y-109764670D01*
X201091394Y-109764666D01*
X201126000Y-109590691D01*
X201126000Y-109413309D01*
X201126000Y-109413306D01*
X201125999Y-109413304D01*
X201091396Y-109239341D01*
X201091393Y-109239332D01*
X201082437Y-109217711D01*
X201036254Y-109106213D01*
X201023516Y-109075459D01*
X201023509Y-109075446D01*
X200924964Y-108927965D01*
X200924961Y-108927961D01*
X200799538Y-108802538D01*
X200799534Y-108802535D01*
X200652053Y-108703990D01*
X200652040Y-108703983D01*
X200488167Y-108636106D01*
X200488158Y-108636103D01*
X200314194Y-108601500D01*
X200314191Y-108601500D01*
X200136809Y-108601500D01*
X200136806Y-108601500D01*
X199962841Y-108636103D01*
X199962832Y-108636106D01*
X199798959Y-108703983D01*
X199798946Y-108703990D01*
X199651465Y-108802535D01*
X199651461Y-108802538D01*
X199526038Y-108927961D01*
X199526035Y-108927965D01*
X199427490Y-109075446D01*
X199427483Y-109075459D01*
X199359606Y-109239332D01*
X199359603Y-109239341D01*
X199325000Y-109413304D01*
X182428000Y-109413304D01*
X182428000Y-107336958D01*
X182437439Y-107289506D01*
X182475892Y-107196670D01*
X182475894Y-107196666D01*
X182510500Y-107022691D01*
X182510500Y-106845309D01*
X182510500Y-106845306D01*
X182510499Y-106845304D01*
X182475896Y-106671341D01*
X182475893Y-106671332D01*
X182408016Y-106507459D01*
X182408009Y-106507446D01*
X182309464Y-106359965D01*
X182309461Y-106359961D01*
X182184038Y-106234538D01*
X182184034Y-106234535D01*
X182036553Y-106135990D01*
X182036540Y-106135983D01*
X181872667Y-106068106D01*
X181872658Y-106068103D01*
X181698694Y-106033500D01*
X181698691Y-106033500D01*
X181521309Y-106033500D01*
X181521306Y-106033500D01*
X181347341Y-106068103D01*
X181347332Y-106068106D01*
X181183459Y-106135983D01*
X181183446Y-106135990D01*
X181035965Y-106234535D01*
X181035961Y-106234538D01*
X180910538Y-106359961D01*
X180910535Y-106359965D01*
X180811990Y-106507446D01*
X180811983Y-106507459D01*
X180744106Y-106671332D01*
X180744103Y-106671341D01*
X180709500Y-106845304D01*
X160555383Y-106845304D01*
X160530292Y-106820213D01*
X160530288Y-106820210D01*
X160399185Y-106732609D01*
X160399172Y-106732602D01*
X160253501Y-106672264D01*
X160253489Y-106672261D01*
X160098845Y-106641500D01*
X160098842Y-106641500D01*
X159941158Y-106641500D01*
X159941155Y-106641500D01*
X159786510Y-106672261D01*
X159786498Y-106672264D01*
X159640827Y-106732602D01*
X159640814Y-106732609D01*
X159509711Y-106820210D01*
X159509707Y-106820213D01*
X159398213Y-106931707D01*
X159398210Y-106931711D01*
X159310609Y-107062814D01*
X159310602Y-107062827D01*
X159250264Y-107208498D01*
X159250261Y-107208510D01*
X159219500Y-107363153D01*
X152385500Y-107363153D01*
X152385500Y-102090060D01*
X152385501Y-102090047D01*
X152385501Y-101921944D01*
X152385501Y-101921943D01*
X152344577Y-101769216D01*
X152334808Y-101752296D01*
X152265524Y-101632290D01*
X152265518Y-101632282D01*
X144505590Y-93872355D01*
X144505588Y-93872352D01*
X144386717Y-93753481D01*
X144386716Y-93753480D01*
X144299904Y-93703360D01*
X144299904Y-93703359D01*
X144299900Y-93703358D01*
X144249785Y-93674423D01*
X144097057Y-93633499D01*
X143938943Y-93633499D01*
X143931347Y-93633499D01*
X143931331Y-93633500D01*
X140887887Y-93633500D01*
X140820848Y-93613815D01*
X140819049Y-93612637D01*
X140741179Y-93560606D01*
X140741172Y-93560602D01*
X140595501Y-93500264D01*
X140595489Y-93500261D01*
X140440845Y-93469500D01*
X140440842Y-93469500D01*
X140283158Y-93469500D01*
X140283155Y-93469500D01*
X140128510Y-93500261D01*
X140128498Y-93500264D01*
X139982827Y-93560602D01*
X139982814Y-93560609D01*
X139851711Y-93648210D01*
X139851707Y-93648213D01*
X139740213Y-93759707D01*
X139740210Y-93759711D01*
X139652609Y-93890814D01*
X139652602Y-93890827D01*
X139599118Y-94019952D01*
X139555277Y-94074356D01*
X139488983Y-94096421D01*
X139484557Y-94096500D01*
X139367155Y-94096500D01*
X139212510Y-94127261D01*
X139212498Y-94127264D01*
X139066827Y-94187602D01*
X139066814Y-94187609D01*
X138935711Y-94275210D01*
X138935707Y-94275213D01*
X138824213Y-94386707D01*
X138824210Y-94386711D01*
X138736609Y-94517814D01*
X138736602Y-94517827D01*
X138676264Y-94663498D01*
X138676261Y-94663510D01*
X138645500Y-94818153D01*
X138645500Y-94975846D01*
X138676261Y-95130489D01*
X138676264Y-95130501D01*
X138727024Y-95253048D01*
X138734493Y-95322517D01*
X138703217Y-95384996D01*
X138643128Y-95420648D01*
X138612463Y-95424500D01*
X137743941Y-95424500D01*
X137676902Y-95404815D01*
X137656260Y-95388181D01*
X137543292Y-95275213D01*
X137543288Y-95275210D01*
X137412185Y-95187609D01*
X137412172Y-95187602D01*
X137266501Y-95127264D01*
X137266489Y-95127261D01*
X137111845Y-95096500D01*
X137111842Y-95096500D01*
X136954158Y-95096500D01*
X136954155Y-95096500D01*
X136799510Y-95127261D01*
X136799498Y-95127264D01*
X136653827Y-95187602D01*
X136653814Y-95187609D01*
X136522711Y-95275210D01*
X136522707Y-95275213D01*
X136411213Y-95386707D01*
X136411210Y-95386711D01*
X136323609Y-95517814D01*
X136323602Y-95517827D01*
X136263264Y-95663498D01*
X136263261Y-95663510D01*
X136232500Y-95818153D01*
X125768500Y-95818153D01*
X125768500Y-95679158D01*
X125768500Y-95679155D01*
X125768499Y-95679153D01*
X125737738Y-95524510D01*
X125737737Y-95524503D01*
X125695901Y-95423500D01*
X125677397Y-95378827D01*
X125677390Y-95378814D01*
X125589398Y-95247125D01*
X125568520Y-95180447D01*
X125568500Y-95178234D01*
X125568500Y-92415520D01*
X125588185Y-92348481D01*
X125640989Y-92302726D01*
X125710147Y-92292782D01*
X125773703Y-92321807D01*
X125795602Y-92346629D01*
X125870210Y-92458289D01*
X125981707Y-92569786D01*
X125981711Y-92569789D01*
X126112814Y-92657390D01*
X126112827Y-92657397D01*
X126258498Y-92717735D01*
X126258503Y-92717737D01*
X126383799Y-92742660D01*
X126413153Y-92748499D01*
X126413156Y-92748500D01*
X126413158Y-92748500D01*
X126570844Y-92748500D01*
X126570845Y-92748499D01*
X126725497Y-92717737D01*
X126871179Y-92657394D01*
X127002289Y-92569789D01*
X127113789Y-92458289D01*
X127201394Y-92327179D01*
X127261737Y-92181497D01*
X127292500Y-92026842D01*
X127292500Y-91869158D01*
X127292500Y-91869155D01*
X127292499Y-91869153D01*
X127261737Y-91714503D01*
X127237721Y-91656522D01*
X127201397Y-91568827D01*
X127201390Y-91568814D01*
X127113398Y-91437125D01*
X127092520Y-91370447D01*
X127092500Y-91368234D01*
X127092500Y-87093097D01*
X127112185Y-87026058D01*
X127164989Y-86980303D01*
X127234147Y-86970359D01*
X127297703Y-86999384D01*
X127304181Y-87005416D01*
X128351848Y-88053083D01*
X128385333Y-88114406D01*
X128388167Y-88140764D01*
X128388167Y-91652606D01*
X128368482Y-91719645D01*
X128367269Y-91721497D01*
X128279276Y-91853186D01*
X128279269Y-91853199D01*
X128218931Y-91998870D01*
X128218928Y-91998882D01*
X128188167Y-92153525D01*
X128188167Y-92311218D01*
X128218928Y-92465861D01*
X128218931Y-92465873D01*
X128279269Y-92611544D01*
X128279276Y-92611557D01*
X128366877Y-92742660D01*
X128366880Y-92742664D01*
X128478374Y-92854158D01*
X128478378Y-92854161D01*
X128609481Y-92941762D01*
X128609494Y-92941769D01*
X128755165Y-93002107D01*
X128755170Y-93002109D01*
X128909820Y-93032871D01*
X128909823Y-93032872D01*
X128909825Y-93032872D01*
X129067511Y-93032872D01*
X129067512Y-93032871D01*
X129222164Y-93002109D01*
X129367846Y-92941766D01*
X129368852Y-92941093D01*
X129369460Y-92940903D01*
X129370099Y-92940561D01*
X129370674Y-92939898D01*
X129372156Y-92939462D01*
X129373219Y-92938894D01*
X129373337Y-92939114D01*
X129403174Y-92930340D01*
X129435522Y-92920206D01*
X129436973Y-92920401D01*
X129437705Y-92920186D01*
X129442579Y-92921154D01*
X129472642Y-92925195D01*
X129479044Y-92927072D01*
X129553962Y-92958104D01*
X129650150Y-92977237D01*
X129655440Y-92978788D01*
X129680383Y-92994803D01*
X129706656Y-93008546D01*
X129709462Y-93013474D01*
X129714234Y-93016538D01*
X129726561Y-93043502D01*
X129741230Y-93069262D01*
X129740926Y-93074923D01*
X129743285Y-93080082D01*
X129739077Y-93109428D01*
X129737491Y-93139032D01*
X129734050Y-93144492D01*
X129733369Y-93149244D01*
X129724871Y-93159058D01*
X129708236Y-93185459D01*
X129663683Y-93230012D01*
X129663679Y-93230017D01*
X129576078Y-93361120D01*
X129576071Y-93361133D01*
X129515733Y-93506804D01*
X129515730Y-93506816D01*
X129484969Y-93661459D01*
X129484969Y-93819152D01*
X129515730Y-93973795D01*
X129515733Y-93973807D01*
X129576071Y-94119478D01*
X129576078Y-94119491D01*
X129663679Y-94250594D01*
X129663682Y-94250598D01*
X129775176Y-94362092D01*
X129775180Y-94362095D01*
X129906283Y-94449696D01*
X129906296Y-94449703D01*
X130051967Y-94510041D01*
X130051972Y-94510043D01*
X130206622Y-94540805D01*
X130206625Y-94540806D01*
X130206627Y-94540806D01*
X130364313Y-94540806D01*
X130364314Y-94540805D01*
X130518966Y-94510043D01*
X130664648Y-94449700D01*
X130795758Y-94362095D01*
X130907258Y-94250595D01*
X130994863Y-94119485D01*
X131055206Y-93973803D01*
X131085969Y-93819148D01*
X131085969Y-93661464D01*
X131085969Y-93661461D01*
X131085968Y-93661459D01*
X131055208Y-93506817D01*
X131055205Y-93506807D01*
X131052494Y-93500263D01*
X131004939Y-93385452D01*
X130995500Y-93338000D01*
X130995500Y-91615153D01*
X133057500Y-91615153D01*
X133057500Y-91772846D01*
X133088261Y-91927489D01*
X133088264Y-91927501D01*
X133148602Y-92073172D01*
X133148609Y-92073185D01*
X133236210Y-92204288D01*
X133236213Y-92204292D01*
X133347707Y-92315786D01*
X133347711Y-92315789D01*
X133478814Y-92403390D01*
X133478827Y-92403397D01*
X133624498Y-92463735D01*
X133624503Y-92463737D01*
X133779153Y-92494499D01*
X133779156Y-92494500D01*
X133779158Y-92494500D01*
X133936844Y-92494500D01*
X133936845Y-92494499D01*
X134091497Y-92463737D01*
X134237179Y-92403394D01*
X134368289Y-92315789D01*
X134479789Y-92204289D01*
X134567394Y-92073179D01*
X134627737Y-91927497D01*
X134658500Y-91772842D01*
X134658500Y-91615158D01*
X134658500Y-91615155D01*
X134658499Y-91615153D01*
X134649283Y-91568821D01*
X134627737Y-91460503D01*
X134618054Y-91437125D01*
X134567397Y-91314827D01*
X134567390Y-91314814D01*
X134479789Y-91183711D01*
X134479786Y-91183707D01*
X134368292Y-91072213D01*
X134368288Y-91072210D01*
X134237185Y-90984609D01*
X134237172Y-90984602D01*
X134091501Y-90924264D01*
X134091489Y-90924261D01*
X133936845Y-90893500D01*
X133936842Y-90893500D01*
X133779158Y-90893500D01*
X133779155Y-90893500D01*
X133624510Y-90924261D01*
X133624498Y-90924264D01*
X133478827Y-90984602D01*
X133478814Y-90984609D01*
X133347711Y-91072210D01*
X133347707Y-91072213D01*
X133236213Y-91183707D01*
X133236210Y-91183711D01*
X133148609Y-91314814D01*
X133148602Y-91314827D01*
X133088264Y-91460498D01*
X133088261Y-91460510D01*
X133057500Y-91615153D01*
X130995500Y-91615153D01*
X130995500Y-88313153D01*
X137121500Y-88313153D01*
X137121500Y-88470846D01*
X137152261Y-88625489D01*
X137152264Y-88625501D01*
X137212602Y-88771172D01*
X137212609Y-88771185D01*
X137300210Y-88902288D01*
X137300213Y-88902292D01*
X137411707Y-89013786D01*
X137411711Y-89013789D01*
X137542814Y-89101390D01*
X137542827Y-89101397D01*
X137688498Y-89161735D01*
X137688503Y-89161737D01*
X137843153Y-89192499D01*
X137843156Y-89192500D01*
X137843158Y-89192500D01*
X138000844Y-89192500D01*
X138000845Y-89192499D01*
X138155497Y-89161737D01*
X138301179Y-89101394D01*
X138432289Y-89013789D01*
X138543789Y-88902289D01*
X138631394Y-88771179D01*
X138691737Y-88625497D01*
X138722500Y-88470842D01*
X138722500Y-88313158D01*
X138722500Y-88313155D01*
X138722499Y-88313153D01*
X138691738Y-88158510D01*
X138691737Y-88158503D01*
X138648071Y-88053083D01*
X138631397Y-88012827D01*
X138631390Y-88012814D01*
X138543789Y-87881711D01*
X138543786Y-87881707D01*
X138432292Y-87770213D01*
X138432288Y-87770210D01*
X138301185Y-87682609D01*
X138301172Y-87682602D01*
X138155501Y-87622264D01*
X138155489Y-87622261D01*
X138000845Y-87591500D01*
X138000842Y-87591500D01*
X137843158Y-87591500D01*
X137843155Y-87591500D01*
X137688510Y-87622261D01*
X137688498Y-87622264D01*
X137542827Y-87682602D01*
X137542814Y-87682609D01*
X137411711Y-87770210D01*
X137411707Y-87770213D01*
X137300213Y-87881707D01*
X137300210Y-87881711D01*
X137212609Y-88012814D01*
X137212602Y-88012827D01*
X137152264Y-88158498D01*
X137152261Y-88158510D01*
X137121500Y-88313153D01*
X130995500Y-88313153D01*
X130995500Y-86990959D01*
X130995501Y-86990946D01*
X130995501Y-86822845D01*
X130995501Y-86822843D01*
X130954577Y-86670115D01*
X130909352Y-86591784D01*
X130875520Y-86533184D01*
X130763716Y-86421380D01*
X130763715Y-86421379D01*
X130759385Y-86417049D01*
X130759374Y-86417039D01*
X130150124Y-85807789D01*
X130116639Y-85746466D01*
X130116188Y-85744299D01*
X130085288Y-85588960D01*
X130085287Y-85588953D01*
X130037184Y-85472821D01*
X130024947Y-85443277D01*
X130024940Y-85443264D01*
X129937339Y-85312161D01*
X129937336Y-85312157D01*
X129825842Y-85200663D01*
X129825838Y-85200660D01*
X129694735Y-85113059D01*
X129694722Y-85113052D01*
X129549051Y-85052714D01*
X129549039Y-85052711D01*
X129394395Y-85021950D01*
X129394392Y-85021950D01*
X129236708Y-85021950D01*
X129236705Y-85021950D01*
X129082060Y-85052711D01*
X129082048Y-85052714D01*
X128936377Y-85113052D01*
X128936364Y-85113059D01*
X128839553Y-85177747D01*
X128772875Y-85198625D01*
X128705495Y-85180140D01*
X128701797Y-85177764D01*
X128649179Y-85142606D01*
X128649172Y-85142602D01*
X128503501Y-85082264D01*
X128503489Y-85082261D01*
X128348845Y-85051500D01*
X128348842Y-85051500D01*
X128191158Y-85051500D01*
X128191155Y-85051500D01*
X128036510Y-85082261D01*
X128036498Y-85082264D01*
X127890827Y-85142602D01*
X127890814Y-85142609D01*
X127759711Y-85230210D01*
X127759707Y-85230213D01*
X127648213Y-85341707D01*
X127648208Y-85341713D01*
X127608278Y-85401472D01*
X127554665Y-85446277D01*
X127485340Y-85454983D01*
X127422313Y-85424827D01*
X127417496Y-85420261D01*
X126056573Y-84059337D01*
X126023088Y-83998014D01*
X126022637Y-83995847D01*
X125991738Y-83840510D01*
X125991737Y-83840503D01*
X125991735Y-83840498D01*
X125931397Y-83694827D01*
X125931390Y-83694814D01*
X125843789Y-83563711D01*
X125843786Y-83563707D01*
X125732292Y-83452213D01*
X125732288Y-83452210D01*
X125601185Y-83364609D01*
X125601172Y-83364602D01*
X125455501Y-83304264D01*
X125455489Y-83304261D01*
X125300845Y-83273500D01*
X125300842Y-83273500D01*
X125143158Y-83273500D01*
X125143155Y-83273500D01*
X124988510Y-83304261D01*
X124988498Y-83304264D01*
X124842827Y-83364602D01*
X124842814Y-83364609D01*
X124711711Y-83452210D01*
X124711707Y-83452213D01*
X124600213Y-83563707D01*
X124600210Y-83563711D01*
X124512609Y-83694814D01*
X124512602Y-83694827D01*
X124452264Y-83840498D01*
X124452261Y-83840510D01*
X124421500Y-83995153D01*
X124421500Y-84152846D01*
X124452261Y-84307489D01*
X124452264Y-84307501D01*
X124512602Y-84453172D01*
X124512609Y-84453185D01*
X124600210Y-84584288D01*
X124600213Y-84584292D01*
X124711707Y-84695786D01*
X124711711Y-84695789D01*
X124842814Y-84783390D01*
X124842823Y-84783395D01*
X124917473Y-84814316D01*
X124971876Y-84858157D01*
X124993941Y-84924451D01*
X124976662Y-84992150D01*
X124925525Y-85039761D01*
X124894212Y-85050494D01*
X124734508Y-85082261D01*
X124734498Y-85082264D01*
X124588828Y-85142602D01*
X124588815Y-85142609D01*
X124542537Y-85173532D01*
X124475859Y-85194410D01*
X124408479Y-85175925D01*
X124404755Y-85173532D01*
X124358476Y-85142609D01*
X124358473Y-85142607D01*
X124358471Y-85142606D01*
X124358468Y-85142604D01*
X124358463Y-85142602D01*
X124212793Y-85082264D01*
X124212781Y-85082261D01*
X124058137Y-85051500D01*
X124058134Y-85051500D01*
X124021501Y-85051500D01*
X123954462Y-85031815D01*
X123908707Y-84979011D01*
X123897501Y-84927500D01*
X123897501Y-84863945D01*
X123897501Y-84863943D01*
X123856577Y-84711215D01*
X123821503Y-84650465D01*
X123783298Y-84584292D01*
X123777522Y-84574287D01*
X123777521Y-84574286D01*
X123777520Y-84574284D01*
X123665716Y-84462480D01*
X123665715Y-84462479D01*
X123661385Y-84458149D01*
X123661374Y-84458139D01*
X121794819Y-82591584D01*
X121761334Y-82530261D01*
X121758500Y-82503903D01*
X121758500Y-80297153D01*
X137263500Y-80297153D01*
X137263500Y-80454846D01*
X137294261Y-80609489D01*
X137294264Y-80609501D01*
X137354602Y-80755172D01*
X137354609Y-80755185D01*
X137442210Y-80886288D01*
X137442213Y-80886292D01*
X137553707Y-80997786D01*
X137553711Y-80997789D01*
X137684814Y-81085390D01*
X137684827Y-81085397D01*
X137830498Y-81145735D01*
X137830503Y-81145737D01*
X137985153Y-81176499D01*
X137985156Y-81176500D01*
X137985158Y-81176500D01*
X138142844Y-81176500D01*
X138142845Y-81176499D01*
X138297497Y-81145737D01*
X138443179Y-81085394D01*
X138574289Y-80997789D01*
X138685789Y-80886289D01*
X138773394Y-80755179D01*
X138833737Y-80609497D01*
X138864500Y-80454842D01*
X138864500Y-80297158D01*
X138864500Y-80297155D01*
X138864499Y-80297153D01*
X138847010Y-80209231D01*
X138833737Y-80142503D01*
X138833735Y-80142498D01*
X138773397Y-79996827D01*
X138773390Y-79996814D01*
X138685789Y-79865711D01*
X138685786Y-79865707D01*
X138574292Y-79754213D01*
X138574288Y-79754210D01*
X138443185Y-79666609D01*
X138443172Y-79666602D01*
X138297501Y-79606264D01*
X138297489Y-79606261D01*
X138142845Y-79575500D01*
X138142842Y-79575500D01*
X137985158Y-79575500D01*
X137985155Y-79575500D01*
X137830510Y-79606261D01*
X137830498Y-79606264D01*
X137684827Y-79666602D01*
X137684814Y-79666609D01*
X137553711Y-79754210D01*
X137553707Y-79754213D01*
X137442213Y-79865707D01*
X137442210Y-79865711D01*
X137354609Y-79996814D01*
X137354602Y-79996827D01*
X137294264Y-80142498D01*
X137294261Y-80142510D01*
X137263500Y-80297153D01*
X121758500Y-80297153D01*
X121758500Y-77541765D01*
X121778185Y-77474726D01*
X121779398Y-77472874D01*
X121867390Y-77341185D01*
X121867390Y-77341184D01*
X121867394Y-77341179D01*
X121927737Y-77195497D01*
X121958500Y-77040842D01*
X121958500Y-76883158D01*
X121958500Y-76883155D01*
X121958499Y-76883153D01*
X121934435Y-76762175D01*
X121927737Y-76728503D01*
X121921348Y-76713079D01*
X121867397Y-76582827D01*
X121867390Y-76582814D01*
X121779789Y-76451711D01*
X121779786Y-76451707D01*
X121668292Y-76340213D01*
X121668288Y-76340210D01*
X121537185Y-76252609D01*
X121537172Y-76252602D01*
X121391501Y-76192264D01*
X121391489Y-76192261D01*
X121236845Y-76161500D01*
X121236842Y-76161500D01*
X121079158Y-76161500D01*
X121079155Y-76161500D01*
X120924510Y-76192261D01*
X120924498Y-76192264D01*
X120778827Y-76252602D01*
X120778814Y-76252609D01*
X120647711Y-76340210D01*
X120647707Y-76340213D01*
X120536213Y-76451707D01*
X120536210Y-76451711D01*
X120448609Y-76582814D01*
X120448602Y-76582827D01*
X120388264Y-76728498D01*
X120388261Y-76728510D01*
X120357500Y-76883153D01*
X89146090Y-76883153D01*
X89170154Y-76762175D01*
X89177433Y-76713105D01*
X89213066Y-76351317D01*
X89215500Y-76301769D01*
X89215500Y-75938231D01*
X89213066Y-75888683D01*
X89177433Y-75526895D01*
X89170154Y-75477825D01*
X89099231Y-75121271D01*
X89099228Y-75121258D01*
X89099225Y-75121244D01*
X89095194Y-75105153D01*
X127723500Y-75105153D01*
X127723500Y-75262846D01*
X127754261Y-75417489D01*
X127754264Y-75417501D01*
X127814602Y-75563172D01*
X127814609Y-75563185D01*
X127902210Y-75694288D01*
X127902213Y-75694292D01*
X128013707Y-75805786D01*
X128013711Y-75805789D01*
X128144814Y-75893390D01*
X128144827Y-75893397D01*
X128290498Y-75953735D01*
X128290503Y-75953737D01*
X128445153Y-75984499D01*
X128445156Y-75984500D01*
X128445158Y-75984500D01*
X128602844Y-75984500D01*
X128602845Y-75984499D01*
X128757497Y-75953737D01*
X128794932Y-75938231D01*
X225744500Y-75938231D01*
X225744500Y-76009242D01*
X225744500Y-76301769D01*
X225746388Y-76340210D01*
X225746934Y-76351320D01*
X225782564Y-76713079D01*
X225782569Y-76713118D01*
X225789844Y-76762169D01*
X225789845Y-76762174D01*
X225860771Y-77118741D01*
X225860774Y-77118755D01*
X225872813Y-77166813D01*
X225872820Y-77166841D01*
X225872823Y-77166850D01*
X225978353Y-77514735D01*
X225985705Y-77535282D01*
X225995064Y-77561441D01*
X226134167Y-77897266D01*
X226134186Y-77897311D01*
X226155402Y-77942167D01*
X226326762Y-78262759D01*
X226326767Y-78262767D01*
X226352270Y-78305317D01*
X226352277Y-78305327D01*
X226554229Y-78607571D01*
X226554240Y-78607586D01*
X226583791Y-78647431D01*
X226583802Y-78647444D01*
X226814401Y-78928431D01*
X226814427Y-78928461D01*
X226847733Y-78965208D01*
X227104791Y-79222266D01*
X227140238Y-79254394D01*
X227141549Y-79255582D01*
X227422569Y-79486209D01*
X227462413Y-79515759D01*
X227462428Y-79515770D01*
X227764672Y-79717722D01*
X227764682Y-79717729D01*
X227807232Y-79743232D01*
X227807240Y-79743237D01*
X227827771Y-79754211D01*
X228127847Y-79914605D01*
X228172692Y-79935815D01*
X228508558Y-80074935D01*
X228555265Y-80091647D01*
X228903150Y-80197177D01*
X228903186Y-80197186D01*
X228951244Y-80209225D01*
X228951258Y-80209228D01*
X228951262Y-80209228D01*
X228951271Y-80209231D01*
X229307825Y-80280154D01*
X229307830Y-80280155D01*
X229318553Y-80281745D01*
X229356895Y-80287433D01*
X229718683Y-80323066D01*
X229768231Y-80325500D01*
X229768243Y-80325500D01*
X230131757Y-80325500D01*
X230131769Y-80325500D01*
X230181317Y-80323066D01*
X230543105Y-80287433D01*
X230587603Y-80280832D01*
X230592169Y-80280155D01*
X230592171Y-80280154D01*
X230592175Y-80280154D01*
X230948729Y-80209231D01*
X230948741Y-80209228D01*
X230948755Y-80209225D01*
X230980307Y-80201320D01*
X230996850Y-80197177D01*
X231344735Y-80091647D01*
X231391442Y-80074935D01*
X231727308Y-79935815D01*
X231772153Y-79914605D01*
X232092765Y-79743234D01*
X232135315Y-79717731D01*
X232437586Y-79515760D01*
X232477431Y-79486209D01*
X232758451Y-79255582D01*
X232795207Y-79222267D01*
X232795208Y-79222266D01*
X232795216Y-79222259D01*
X233052259Y-78965216D01*
X233052266Y-78965208D01*
X233052267Y-78965207D01*
X233085582Y-78928451D01*
X233316209Y-78647431D01*
X233345760Y-78607586D01*
X233547731Y-78305315D01*
X233573234Y-78262765D01*
X233744605Y-77942153D01*
X233765815Y-77897308D01*
X233904935Y-77561442D01*
X233921647Y-77514735D01*
X234027177Y-77166850D01*
X234031320Y-77150307D01*
X234039225Y-77118755D01*
X234039228Y-77118741D01*
X234039228Y-77118740D01*
X234039231Y-77118729D01*
X234110154Y-76762175D01*
X234117433Y-76713105D01*
X234153066Y-76351317D01*
X234155500Y-76301769D01*
X234155500Y-75938231D01*
X234153066Y-75888683D01*
X234117433Y-75526895D01*
X234110154Y-75477825D01*
X234039231Y-75121271D01*
X234039228Y-75121258D01*
X234039225Y-75121244D01*
X234027186Y-75073186D01*
X234027177Y-75073150D01*
X233921647Y-74725265D01*
X233904935Y-74678558D01*
X233765815Y-74342692D01*
X233744605Y-74297847D01*
X233573234Y-73977235D01*
X233547731Y-73934685D01*
X233422491Y-73747250D01*
X233345770Y-73632428D01*
X233345759Y-73632413D01*
X233316209Y-73592569D01*
X233085582Y-73311549D01*
X233084394Y-73310238D01*
X233052266Y-73274791D01*
X232795208Y-73017733D01*
X232758461Y-72984427D01*
X232758431Y-72984401D01*
X232578856Y-72837028D01*
X232477431Y-72753791D01*
X232437586Y-72724240D01*
X232437571Y-72724229D01*
X232135327Y-72522277D01*
X232135317Y-72522270D01*
X232092767Y-72496767D01*
X232092759Y-72496762D01*
X231772167Y-72325402D01*
X231772159Y-72325398D01*
X231772153Y-72325395D01*
X231750874Y-72315330D01*
X231727311Y-72304186D01*
X231727266Y-72304167D01*
X231391441Y-72165064D01*
X231365282Y-72155705D01*
X231344735Y-72148353D01*
X230996850Y-72042823D01*
X230996841Y-72042820D01*
X230996813Y-72042813D01*
X230948755Y-72030774D01*
X230948741Y-72030771D01*
X230592174Y-71959845D01*
X230592169Y-71959844D01*
X230543118Y-71952569D01*
X230543121Y-71952569D01*
X230543105Y-71952567D01*
X230543093Y-71952565D01*
X230543079Y-71952564D01*
X230181318Y-71916934D01*
X230181322Y-71916934D01*
X230166744Y-71916218D01*
X230131769Y-71914500D01*
X229768231Y-71914500D01*
X229731070Y-71916325D01*
X229718679Y-71916934D01*
X229356920Y-71952564D01*
X229356901Y-71952566D01*
X229356895Y-71952567D01*
X229356884Y-71952568D01*
X229356881Y-71952569D01*
X229307830Y-71959844D01*
X229307825Y-71959845D01*
X228951258Y-72030771D01*
X228951244Y-72030774D01*
X228903186Y-72042813D01*
X228903157Y-72042821D01*
X228555271Y-72148351D01*
X228508558Y-72165064D01*
X228172733Y-72304167D01*
X228172688Y-72304186D01*
X228127832Y-72325402D01*
X227807240Y-72496762D01*
X227807232Y-72496767D01*
X227764682Y-72522270D01*
X227764672Y-72522277D01*
X227462428Y-72724229D01*
X227462413Y-72724240D01*
X227422582Y-72753781D01*
X227422555Y-72753802D01*
X227141568Y-72984401D01*
X227141538Y-72984427D01*
X227104791Y-73017733D01*
X227104784Y-73017741D01*
X226847741Y-73274784D01*
X226847733Y-73274791D01*
X226814427Y-73311538D01*
X226814401Y-73311568D01*
X226583802Y-73592555D01*
X226583781Y-73592582D01*
X226554240Y-73632413D01*
X226554229Y-73632428D01*
X226352277Y-73934672D01*
X226352270Y-73934682D01*
X226326767Y-73977232D01*
X226326762Y-73977240D01*
X226155402Y-74297832D01*
X226134186Y-74342688D01*
X226134167Y-74342733D01*
X225995064Y-74678558D01*
X225978351Y-74725271D01*
X225872821Y-75073157D01*
X225872813Y-75073186D01*
X225860774Y-75121244D01*
X225860771Y-75121258D01*
X225789845Y-75477825D01*
X225789844Y-75477830D01*
X225782569Y-75526881D01*
X225782564Y-75526920D01*
X225746934Y-75888679D01*
X225746702Y-75893397D01*
X225744500Y-75938231D01*
X128794932Y-75938231D01*
X128903179Y-75893394D01*
X128910230Y-75888683D01*
X128992657Y-75833607D01*
X129007116Y-75823945D01*
X129034289Y-75805789D01*
X129145789Y-75694289D01*
X129233394Y-75563179D01*
X129293737Y-75417497D01*
X129324500Y-75262842D01*
X129324500Y-75105158D01*
X129324500Y-75105155D01*
X129324499Y-75105153D01*
X129318140Y-75073186D01*
X129293737Y-74950503D01*
X129293735Y-74950498D01*
X129233397Y-74804827D01*
X129233390Y-74804814D01*
X129145789Y-74673711D01*
X129145786Y-74673707D01*
X129034292Y-74562213D01*
X129034288Y-74562210D01*
X128903185Y-74474609D01*
X128903172Y-74474602D01*
X128757501Y-74414264D01*
X128757489Y-74414261D01*
X128602845Y-74383500D01*
X128602842Y-74383500D01*
X128445158Y-74383500D01*
X128445155Y-74383500D01*
X128290510Y-74414261D01*
X128290498Y-74414264D01*
X128144827Y-74474602D01*
X128144814Y-74474609D01*
X128013711Y-74562210D01*
X128013707Y-74562213D01*
X127902213Y-74673707D01*
X127902210Y-74673711D01*
X127814609Y-74804814D01*
X127814602Y-74804827D01*
X127754264Y-74950498D01*
X127754261Y-74950510D01*
X127723500Y-75105153D01*
X89095194Y-75105153D01*
X89087186Y-75073186D01*
X89087177Y-75073150D01*
X88981647Y-74725265D01*
X88964935Y-74678558D01*
X88825815Y-74342692D01*
X88804605Y-74297847D01*
X88633234Y-73977235D01*
X88607731Y-73934685D01*
X88482491Y-73747250D01*
X88405770Y-73632428D01*
X88405759Y-73632413D01*
X88376209Y-73592569D01*
X88145582Y-73311549D01*
X88144394Y-73310238D01*
X88112266Y-73274791D01*
X87855208Y-73017733D01*
X87818461Y-72984427D01*
X87818431Y-72984401D01*
X87638856Y-72837028D01*
X87537431Y-72753791D01*
X87497586Y-72724240D01*
X87497571Y-72724229D01*
X87195327Y-72522277D01*
X87195317Y-72522270D01*
X87152767Y-72496767D01*
X87152759Y-72496762D01*
X86832167Y-72325402D01*
X86832159Y-72325398D01*
X86832153Y-72325395D01*
X86810874Y-72315330D01*
X86787311Y-72304186D01*
X86787266Y-72304167D01*
X86451441Y-72165064D01*
X86425282Y-72155705D01*
X86404735Y-72148353D01*
X86056850Y-72042823D01*
X86056841Y-72042820D01*
X86056813Y-72042813D01*
X86008755Y-72030774D01*
X86008741Y-72030771D01*
X85652174Y-71959845D01*
X85652169Y-71959844D01*
X85603118Y-71952569D01*
X85603121Y-71952569D01*
X85603105Y-71952567D01*
X85603093Y-71952565D01*
X85603079Y-71952564D01*
X85241318Y-71916934D01*
X85241322Y-71916934D01*
X85226744Y-71916218D01*
X85191769Y-71914500D01*
X84828231Y-71914500D01*
X84791070Y-71916325D01*
X84778679Y-71916934D01*
X84416920Y-71952564D01*
X84416901Y-71952566D01*
X84416895Y-71952567D01*
X84416884Y-71952568D01*
X84416881Y-71952569D01*
X84367830Y-71959844D01*
X84367825Y-71959845D01*
X84011258Y-72030771D01*
X84011244Y-72030774D01*
X83963186Y-72042813D01*
X83963157Y-72042821D01*
X83615271Y-72148351D01*
X83568558Y-72165064D01*
X83232733Y-72304167D01*
X83232688Y-72304186D01*
X83187832Y-72325402D01*
X82867240Y-72496762D01*
X82867232Y-72496767D01*
X82824682Y-72522270D01*
X82824672Y-72522277D01*
X82522428Y-72724229D01*
X82522413Y-72724240D01*
X82482582Y-72753781D01*
X82482555Y-72753802D01*
X82201568Y-72984401D01*
X82201538Y-72984427D01*
X82164791Y-73017733D01*
X82164784Y-73017741D01*
X81907741Y-73274784D01*
X81907733Y-73274791D01*
X81874427Y-73311538D01*
X81874401Y-73311568D01*
X81643802Y-73592555D01*
X81643781Y-73592582D01*
X81614240Y-73632413D01*
X81614229Y-73632428D01*
X81412277Y-73934672D01*
X81412270Y-73934682D01*
X81386767Y-73977232D01*
X81386762Y-73977240D01*
X81215402Y-74297832D01*
X81194186Y-74342688D01*
X81194167Y-74342733D01*
X81055064Y-74678558D01*
X81038351Y-74725271D01*
X80932821Y-75073157D01*
X80932813Y-75073186D01*
X80920774Y-75121244D01*
X80920771Y-75121258D01*
X80849845Y-75477825D01*
X80849844Y-75477830D01*
X80842569Y-75526881D01*
X80842564Y-75526920D01*
X80806934Y-75888679D01*
X80806702Y-75893397D01*
X80804500Y-75938231D01*
X80272436Y-75938231D01*
X80282322Y-75711785D01*
X80283262Y-75701054D01*
X80335889Y-75301308D01*
X80337762Y-75290688D01*
X80425032Y-74897035D01*
X80427819Y-74886635D01*
X80549068Y-74502081D01*
X80552752Y-74491960D01*
X80707051Y-74119448D01*
X80711609Y-74109674D01*
X80897790Y-73752024D01*
X80903172Y-73742703D01*
X81119808Y-73402653D01*
X81125999Y-73393810D01*
X81371449Y-73073934D01*
X81378387Y-73065665D01*
X81650777Y-72768405D01*
X81658405Y-72760777D01*
X81955665Y-72488387D01*
X81963934Y-72481449D01*
X82283810Y-72235999D01*
X82292653Y-72229808D01*
X82632703Y-72013172D01*
X82642024Y-72007790D01*
X82999674Y-71821609D01*
X83009448Y-71817051D01*
X83381960Y-71662752D01*
X83392081Y-71659068D01*
X83776635Y-71537819D01*
X83787035Y-71535032D01*
X84180688Y-71447762D01*
X84191308Y-71445889D01*
X84591054Y-71393262D01*
X84601787Y-71392322D01*
X84995134Y-71375149D01*
X85007298Y-71374618D01*
X85012706Y-71374500D01*
X85054875Y-71374500D01*
X229905125Y-71374500D01*
X229947294Y-71374500D01*
X229952702Y-71374617D01*
G37*
%TD.AperFunction*%
%TD*%
M02*
